G04 EAGLE Gerber RS-274X export*
G75*
%MOMM*%
%FSLAX34Y34*%
%LPD*%
%INTop Copper*%
%IPPOS*%
%AMOC8*
5,1,8,0,0,1.08239X$1,22.5*%
G01*
%ADD10C,1.930400*%
%ADD11R,1.930400X1.930400*%
%ADD12C,2.032000*%
%ADD13R,2.216000X2.216000*%
%ADD14C,2.216000*%
%ADD15R,2.316000X2.316000*%
%ADD16C,2.316000*%
%ADD17C,1.916000*%
%ADD18R,2.246000X2.246000*%
%ADD19C,2.246000*%
%ADD20R,2.036000X2.036000*%
%ADD21C,2.036000*%
%ADD22C,1.828800*%
%ADD23C,0.914400*%

G36*
X426225Y148856D02*
X426225Y148856D01*
X426385Y148858D01*
X426499Y148876D01*
X426615Y148885D01*
X426772Y148919D01*
X426930Y148944D01*
X427040Y148979D01*
X427153Y149004D01*
X427304Y149061D01*
X427457Y149108D01*
X427561Y149158D01*
X427669Y149199D01*
X427810Y149277D01*
X427955Y149347D01*
X428050Y149411D01*
X428151Y149467D01*
X428279Y149565D01*
X428412Y149654D01*
X428498Y149732D01*
X428590Y149802D01*
X428702Y149917D01*
X428821Y150025D01*
X428895Y150114D01*
X428975Y150197D01*
X429070Y150327D01*
X429172Y150451D01*
X429232Y150550D01*
X429300Y150643D01*
X429374Y150785D01*
X429458Y150923D01*
X429503Y151029D01*
X429556Y151131D01*
X429610Y151283D01*
X429672Y151431D01*
X429701Y151543D01*
X429740Y151652D01*
X429770Y151809D01*
X429811Y151965D01*
X429824Y152080D01*
X429846Y152193D01*
X429854Y152353D01*
X429871Y152513D01*
X429867Y152629D01*
X429873Y152744D01*
X429857Y152904D01*
X429852Y153064D01*
X429831Y153178D01*
X429820Y153293D01*
X429781Y153449D01*
X429753Y153607D01*
X429716Y153717D01*
X429688Y153829D01*
X429628Y153978D01*
X429576Y154130D01*
X429524Y154233D01*
X429480Y154340D01*
X429399Y154479D01*
X429326Y154622D01*
X429260Y154716D01*
X429201Y154816D01*
X429100Y154941D01*
X429008Y155072D01*
X428900Y155191D01*
X428856Y155246D01*
X428819Y155281D01*
X428758Y155348D01*
X426748Y157358D01*
X426747Y157358D01*
X345192Y238914D01*
X345037Y239047D01*
X344886Y239188D01*
X344828Y239228D01*
X344775Y239274D01*
X344602Y239385D01*
X344432Y239502D01*
X344369Y239533D01*
X344310Y239571D01*
X344122Y239655D01*
X343938Y239747D01*
X343871Y239769D01*
X343807Y239798D01*
X343609Y239854D01*
X343413Y239918D01*
X343344Y239930D01*
X343276Y239949D01*
X343072Y239976D01*
X342870Y240011D01*
X342780Y240016D01*
X342729Y240022D01*
X342659Y240021D01*
X342498Y240029D01*
X225125Y240029D01*
X224885Y240012D01*
X224645Y239999D01*
X224610Y239992D01*
X224575Y239989D01*
X224340Y239937D01*
X224104Y239890D01*
X224071Y239878D01*
X224036Y239870D01*
X223811Y239785D01*
X223585Y239704D01*
X223553Y239687D01*
X223520Y239675D01*
X223310Y239558D01*
X223097Y239445D01*
X223069Y239424D01*
X223038Y239407D01*
X222846Y239260D01*
X222653Y239118D01*
X222628Y239093D01*
X222600Y239072D01*
X222432Y238900D01*
X222260Y238731D01*
X222239Y238702D01*
X222214Y238677D01*
X222073Y238483D01*
X221928Y238290D01*
X221911Y238259D01*
X221890Y238231D01*
X221778Y238019D01*
X221662Y237807D01*
X221650Y237774D01*
X221633Y237743D01*
X221554Y237516D01*
X221469Y237290D01*
X221462Y237256D01*
X221450Y237222D01*
X221404Y236985D01*
X221353Y236751D01*
X221351Y236715D01*
X221344Y236681D01*
X221332Y236439D01*
X221316Y236200D01*
X221319Y236165D01*
X221317Y236130D01*
X221340Y235890D01*
X221359Y235650D01*
X221367Y235616D01*
X221370Y235581D01*
X221427Y235348D01*
X221481Y235112D01*
X221495Y235071D01*
X221502Y235045D01*
X221526Y234984D01*
X221606Y234762D01*
X222525Y232544D01*
X222525Y224856D01*
X219583Y217753D01*
X215285Y213456D01*
X215221Y213381D01*
X215149Y213313D01*
X215040Y213173D01*
X214924Y213039D01*
X214871Y212955D01*
X214810Y212877D01*
X214723Y212723D01*
X214628Y212574D01*
X214587Y212483D01*
X214538Y212397D01*
X214474Y212232D01*
X214401Y212071D01*
X214374Y211975D01*
X214338Y211883D01*
X214298Y211711D01*
X214250Y211540D01*
X214237Y211442D01*
X214214Y211346D01*
X214200Y211169D01*
X214177Y210993D01*
X214178Y210894D01*
X214170Y210796D01*
X214181Y210619D01*
X214183Y210442D01*
X214199Y210344D01*
X214205Y210245D01*
X214241Y210072D01*
X214269Y209897D01*
X214299Y209802D01*
X214319Y209705D01*
X214380Y209539D01*
X214433Y209370D01*
X214476Y209281D01*
X214510Y209188D01*
X214612Y208989D01*
X215271Y207398D01*
X215349Y207109D01*
X203200Y207109D01*
X191051Y207109D01*
X191129Y207398D01*
X191785Y208983D01*
X191814Y209031D01*
X191883Y209194D01*
X191960Y209354D01*
X191990Y209448D01*
X192029Y209539D01*
X192073Y209711D01*
X192127Y209880D01*
X192143Y209978D01*
X192168Y210073D01*
X192187Y210249D01*
X192215Y210424D01*
X192217Y210523D01*
X192228Y210622D01*
X192222Y210799D01*
X192224Y210976D01*
X192212Y211074D01*
X192208Y211173D01*
X192176Y211347D01*
X192154Y211523D01*
X192127Y211618D01*
X192109Y211716D01*
X192053Y211883D01*
X192005Y212054D01*
X191965Y212145D01*
X191933Y212238D01*
X191853Y212396D01*
X191781Y212558D01*
X191728Y212642D01*
X191683Y212730D01*
X191581Y212875D01*
X191486Y213025D01*
X191422Y213100D01*
X191364Y213181D01*
X191146Y213422D01*
X191127Y213444D01*
X191122Y213448D01*
X191115Y213456D01*
X186817Y217753D01*
X183875Y224856D01*
X183875Y232544D01*
X186940Y239942D01*
X187004Y240137D01*
X187076Y240330D01*
X187091Y240399D01*
X187113Y240466D01*
X187149Y240668D01*
X187193Y240869D01*
X187197Y240940D01*
X187210Y241009D01*
X187216Y241215D01*
X187230Y241420D01*
X187224Y241490D01*
X187226Y241561D01*
X187203Y241765D01*
X187187Y241970D01*
X187171Y242038D01*
X187163Y242109D01*
X187111Y242307D01*
X187065Y242508D01*
X187035Y242593D01*
X187022Y242642D01*
X186994Y242706D01*
X186940Y242858D01*
X183875Y250256D01*
X183875Y257944D01*
X186940Y265342D01*
X187004Y265537D01*
X187076Y265730D01*
X187091Y265799D01*
X187113Y265866D01*
X187149Y266068D01*
X187193Y266269D01*
X187197Y266340D01*
X187210Y266409D01*
X187216Y266615D01*
X187230Y266820D01*
X187224Y266890D01*
X187226Y266961D01*
X187203Y267165D01*
X187187Y267370D01*
X187171Y267438D01*
X187163Y267509D01*
X187111Y267707D01*
X187065Y267908D01*
X187035Y267993D01*
X187022Y268042D01*
X186994Y268106D01*
X186940Y268258D01*
X183875Y275656D01*
X183875Y283344D01*
X186940Y290742D01*
X187004Y290937D01*
X187076Y291130D01*
X187091Y291199D01*
X187113Y291266D01*
X187149Y291468D01*
X187193Y291669D01*
X187197Y291740D01*
X187210Y291809D01*
X187216Y292015D01*
X187230Y292220D01*
X187224Y292290D01*
X187226Y292361D01*
X187203Y292565D01*
X187187Y292770D01*
X187171Y292838D01*
X187163Y292909D01*
X187111Y293107D01*
X187065Y293308D01*
X187035Y293393D01*
X187022Y293442D01*
X186994Y293506D01*
X186940Y293658D01*
X183875Y301056D01*
X183875Y308744D01*
X186940Y316142D01*
X187004Y316337D01*
X187076Y316530D01*
X187091Y316599D01*
X187113Y316666D01*
X187149Y316868D01*
X187193Y317069D01*
X187197Y317140D01*
X187210Y317209D01*
X187216Y317415D01*
X187230Y317620D01*
X187224Y317690D01*
X187226Y317761D01*
X187203Y317965D01*
X187187Y318170D01*
X187171Y318238D01*
X187163Y318309D01*
X187111Y318507D01*
X187065Y318708D01*
X187035Y318793D01*
X187022Y318842D01*
X186994Y318906D01*
X186940Y319058D01*
X183875Y326456D01*
X183875Y334144D01*
X186817Y341247D01*
X191115Y345544D01*
X191179Y345619D01*
X191251Y345687D01*
X191360Y345827D01*
X191476Y345961D01*
X191529Y346045D01*
X191590Y346123D01*
X191677Y346277D01*
X191772Y346426D01*
X191813Y346517D01*
X191862Y346603D01*
X191926Y346768D01*
X191999Y346929D01*
X192026Y347025D01*
X192062Y347117D01*
X192102Y347289D01*
X192150Y347460D01*
X192163Y347558D01*
X192186Y347654D01*
X192200Y347831D01*
X192223Y348007D01*
X192222Y348106D01*
X192230Y348204D01*
X192219Y348381D01*
X192217Y348558D01*
X192201Y348656D01*
X192195Y348755D01*
X192159Y348928D01*
X192131Y349103D01*
X192101Y349198D01*
X192081Y349295D01*
X192020Y349461D01*
X191967Y349630D01*
X191924Y349719D01*
X191890Y349812D01*
X191788Y350011D01*
X191129Y351602D01*
X191051Y351891D01*
X203200Y351891D01*
X215349Y351891D01*
X215271Y351602D01*
X214615Y350017D01*
X214586Y349969D01*
X214517Y349806D01*
X214440Y349646D01*
X214410Y349552D01*
X214371Y349461D01*
X214327Y349289D01*
X214273Y349120D01*
X214257Y349022D01*
X214232Y348927D01*
X214213Y348751D01*
X214185Y348576D01*
X214183Y348477D01*
X214172Y348378D01*
X214178Y348201D01*
X214176Y348024D01*
X214188Y347926D01*
X214192Y347827D01*
X214224Y347653D01*
X214246Y347477D01*
X214273Y347382D01*
X214291Y347284D01*
X214347Y347116D01*
X214395Y346946D01*
X214435Y346855D01*
X214467Y346762D01*
X214547Y346604D01*
X214619Y346442D01*
X214672Y346358D01*
X214717Y346270D01*
X214819Y346125D01*
X214914Y345975D01*
X214978Y345900D01*
X215036Y345819D01*
X215254Y345578D01*
X215273Y345556D01*
X215278Y345552D01*
X215285Y345544D01*
X216813Y344016D01*
X216968Y343882D01*
X217119Y343742D01*
X217177Y343702D01*
X217230Y343656D01*
X217403Y343545D01*
X217573Y343428D01*
X217636Y343397D01*
X217695Y343359D01*
X217882Y343275D01*
X218067Y343183D01*
X218134Y343161D01*
X218198Y343132D01*
X218396Y343076D01*
X218591Y343012D01*
X218661Y343000D01*
X218729Y342981D01*
X218932Y342954D01*
X219135Y342919D01*
X219225Y342914D01*
X219276Y342908D01*
X219346Y342909D01*
X219506Y342901D01*
X297622Y342901D01*
X302664Y340813D01*
X431372Y212104D01*
X431494Y211999D01*
X431609Y211887D01*
X431702Y211819D01*
X431790Y211743D01*
X431925Y211657D01*
X432055Y211562D01*
X432157Y211509D01*
X432255Y211446D01*
X432401Y211380D01*
X432543Y211306D01*
X432652Y211267D01*
X432758Y211220D01*
X432912Y211176D01*
X433064Y211122D01*
X433177Y211100D01*
X433288Y211068D01*
X433448Y211047D01*
X433605Y211016D01*
X433720Y211011D01*
X433835Y210995D01*
X433996Y210997D01*
X434156Y210989D01*
X434271Y211000D01*
X434387Y211002D01*
X434546Y211027D01*
X434705Y211042D01*
X434817Y211070D01*
X434932Y211088D01*
X435085Y211136D01*
X435241Y211174D01*
X435348Y211217D01*
X435458Y211252D01*
X435603Y211321D01*
X435752Y211382D01*
X435852Y211440D01*
X435956Y211490D01*
X436089Y211580D01*
X436228Y211661D01*
X436318Y211733D01*
X436414Y211798D01*
X436533Y211906D01*
X436658Y212006D01*
X436737Y212091D01*
X436823Y212168D01*
X436925Y212292D01*
X437034Y212410D01*
X437100Y212505D01*
X437173Y212594D01*
X437257Y212731D01*
X437348Y212864D01*
X437399Y212967D01*
X437459Y213066D01*
X437521Y213214D01*
X437593Y213358D01*
X437629Y213468D01*
X437674Y213574D01*
X437714Y213730D01*
X437764Y213882D01*
X437783Y213996D01*
X437812Y214108D01*
X437830Y214268D01*
X437857Y214426D01*
X437865Y214587D01*
X437873Y214657D01*
X437871Y214707D01*
X437875Y214797D01*
X437875Y215299D01*
X439251Y218620D01*
X439316Y218815D01*
X439387Y219008D01*
X439402Y219076D01*
X439424Y219143D01*
X439460Y219346D01*
X439504Y219547D01*
X439508Y219617D01*
X439521Y219687D01*
X439527Y219892D01*
X439541Y220097D01*
X439535Y220167D01*
X439537Y220238D01*
X439514Y220443D01*
X439498Y220647D01*
X439482Y220716D01*
X439474Y220786D01*
X439421Y220985D01*
X439376Y221185D01*
X439346Y221270D01*
X439333Y221319D01*
X439305Y221384D01*
X439251Y221535D01*
X437875Y224856D01*
X437875Y232544D01*
X440940Y239942D01*
X441005Y240138D01*
X441076Y240330D01*
X441091Y240399D01*
X441113Y240466D01*
X441149Y240668D01*
X441193Y240869D01*
X441197Y240940D01*
X441210Y241009D01*
X441216Y241215D01*
X441230Y241420D01*
X441224Y241490D01*
X441226Y241560D01*
X441203Y241765D01*
X441187Y241970D01*
X441171Y242038D01*
X441163Y242109D01*
X441110Y242307D01*
X441065Y242508D01*
X441035Y242593D01*
X441022Y242642D01*
X440994Y242706D01*
X440940Y242858D01*
X437875Y250256D01*
X437875Y257944D01*
X440940Y265342D01*
X441005Y265538D01*
X441076Y265730D01*
X441091Y265799D01*
X441113Y265866D01*
X441149Y266068D01*
X441193Y266269D01*
X441197Y266340D01*
X441210Y266409D01*
X441216Y266615D01*
X441230Y266820D01*
X441224Y266890D01*
X441226Y266960D01*
X441203Y267165D01*
X441187Y267370D01*
X441171Y267438D01*
X441163Y267509D01*
X441110Y267707D01*
X441065Y267908D01*
X441035Y267993D01*
X441022Y268042D01*
X440994Y268106D01*
X440940Y268258D01*
X437875Y275656D01*
X437875Y283344D01*
X440940Y290742D01*
X441005Y290938D01*
X441076Y291130D01*
X441091Y291199D01*
X441113Y291266D01*
X441149Y291468D01*
X441193Y291669D01*
X441197Y291740D01*
X441210Y291809D01*
X441216Y292015D01*
X441230Y292220D01*
X441224Y292290D01*
X441226Y292360D01*
X441203Y292565D01*
X441187Y292770D01*
X441171Y292838D01*
X441163Y292909D01*
X441110Y293107D01*
X441065Y293308D01*
X441035Y293393D01*
X441022Y293442D01*
X440994Y293506D01*
X440940Y293658D01*
X437875Y301056D01*
X437875Y308744D01*
X440940Y316142D01*
X441005Y316338D01*
X441076Y316530D01*
X441091Y316599D01*
X441113Y316666D01*
X441149Y316868D01*
X441193Y317069D01*
X441197Y317140D01*
X441210Y317209D01*
X441216Y317415D01*
X441230Y317620D01*
X441224Y317690D01*
X441226Y317760D01*
X441203Y317965D01*
X441187Y318170D01*
X441171Y318238D01*
X441163Y318309D01*
X441110Y318507D01*
X441065Y318708D01*
X441035Y318793D01*
X441022Y318842D01*
X440994Y318906D01*
X440940Y319058D01*
X437875Y326456D01*
X437875Y334144D01*
X440940Y341542D01*
X441005Y341738D01*
X441076Y341930D01*
X441091Y341999D01*
X441113Y342066D01*
X441149Y342268D01*
X441193Y342469D01*
X441197Y342540D01*
X441210Y342609D01*
X441216Y342815D01*
X441230Y343020D01*
X441224Y343090D01*
X441226Y343160D01*
X441203Y343365D01*
X441187Y343570D01*
X441171Y343638D01*
X441163Y343709D01*
X441110Y343907D01*
X441065Y344108D01*
X441035Y344193D01*
X441022Y344242D01*
X440994Y344306D01*
X440940Y344458D01*
X437875Y351856D01*
X437875Y359544D01*
X440940Y366942D01*
X441005Y367138D01*
X441076Y367330D01*
X441091Y367399D01*
X441113Y367466D01*
X441149Y367668D01*
X441193Y367869D01*
X441197Y367940D01*
X441210Y368009D01*
X441216Y368215D01*
X441230Y368420D01*
X441224Y368490D01*
X441226Y368560D01*
X441203Y368765D01*
X441187Y368970D01*
X441171Y369038D01*
X441163Y369109D01*
X441110Y369307D01*
X441065Y369508D01*
X441035Y369593D01*
X441022Y369642D01*
X440994Y369706D01*
X440940Y369858D01*
X437875Y377256D01*
X437875Y384944D01*
X440940Y392342D01*
X441005Y392538D01*
X441076Y392730D01*
X441091Y392799D01*
X441113Y392866D01*
X441149Y393068D01*
X441193Y393269D01*
X441197Y393340D01*
X441210Y393409D01*
X441216Y393615D01*
X441230Y393820D01*
X441224Y393890D01*
X441226Y393960D01*
X441203Y394165D01*
X441187Y394370D01*
X441171Y394438D01*
X441163Y394509D01*
X441110Y394707D01*
X441065Y394908D01*
X441035Y394993D01*
X441022Y395042D01*
X440994Y395106D01*
X440940Y395258D01*
X437875Y402656D01*
X437875Y410344D01*
X440940Y417742D01*
X441005Y417938D01*
X441076Y418130D01*
X441091Y418199D01*
X441113Y418266D01*
X441149Y418468D01*
X441193Y418669D01*
X441197Y418740D01*
X441210Y418809D01*
X441216Y419015D01*
X441230Y419220D01*
X441224Y419290D01*
X441226Y419360D01*
X441203Y419565D01*
X441187Y419770D01*
X441171Y419838D01*
X441163Y419909D01*
X441110Y420107D01*
X441065Y420308D01*
X441035Y420393D01*
X441022Y420442D01*
X440994Y420506D01*
X440940Y420658D01*
X437875Y428056D01*
X437875Y435744D01*
X440940Y443142D01*
X441005Y443338D01*
X441076Y443530D01*
X441091Y443599D01*
X441113Y443666D01*
X441149Y443868D01*
X441193Y444069D01*
X441197Y444140D01*
X441210Y444209D01*
X441216Y444415D01*
X441230Y444620D01*
X441224Y444690D01*
X441226Y444760D01*
X441203Y444965D01*
X441187Y445170D01*
X441171Y445238D01*
X441163Y445309D01*
X441110Y445507D01*
X441065Y445708D01*
X441035Y445793D01*
X441022Y445842D01*
X440994Y445906D01*
X440940Y446058D01*
X437875Y453456D01*
X437875Y461144D01*
X440940Y468542D01*
X441005Y468738D01*
X441076Y468930D01*
X441091Y468999D01*
X441113Y469066D01*
X441149Y469268D01*
X441193Y469469D01*
X441197Y469540D01*
X441210Y469609D01*
X441216Y469815D01*
X441230Y470020D01*
X441224Y470090D01*
X441226Y470160D01*
X441203Y470365D01*
X441187Y470570D01*
X441171Y470638D01*
X441163Y470709D01*
X441110Y470907D01*
X441065Y471108D01*
X441035Y471193D01*
X441022Y471242D01*
X440994Y471306D01*
X440940Y471458D01*
X437875Y478856D01*
X437875Y486544D01*
X440940Y493942D01*
X441004Y494137D01*
X441076Y494330D01*
X441091Y494399D01*
X441113Y494466D01*
X441149Y494668D01*
X441193Y494869D01*
X441197Y494940D01*
X441210Y495009D01*
X441216Y495215D01*
X441230Y495420D01*
X441224Y495490D01*
X441226Y495561D01*
X441203Y495765D01*
X441187Y495970D01*
X441171Y496038D01*
X441163Y496109D01*
X441111Y496307D01*
X441065Y496508D01*
X441035Y496593D01*
X441022Y496642D01*
X440994Y496706D01*
X440940Y496858D01*
X437875Y504256D01*
X437875Y511944D01*
X440817Y519047D01*
X445115Y523344D01*
X445179Y523419D01*
X445251Y523487D01*
X445360Y523627D01*
X445476Y523761D01*
X445529Y523845D01*
X445590Y523923D01*
X445677Y524077D01*
X445772Y524226D01*
X445813Y524317D01*
X445862Y524403D01*
X445926Y524568D01*
X445999Y524729D01*
X446026Y524825D01*
X446062Y524917D01*
X446102Y525089D01*
X446150Y525260D01*
X446163Y525358D01*
X446186Y525454D01*
X446200Y525631D01*
X446223Y525807D01*
X446222Y525906D01*
X446230Y526004D01*
X446219Y526181D01*
X446217Y526358D01*
X446201Y526456D01*
X446195Y526555D01*
X446159Y526728D01*
X446131Y526903D01*
X446101Y526998D01*
X446081Y527095D01*
X446020Y527261D01*
X445967Y527430D01*
X445924Y527519D01*
X445890Y527612D01*
X445788Y527811D01*
X445129Y529402D01*
X445051Y529691D01*
X457200Y529691D01*
X469349Y529691D01*
X469271Y529402D01*
X468615Y527817D01*
X468586Y527769D01*
X468517Y527606D01*
X468440Y527446D01*
X468410Y527352D01*
X468371Y527261D01*
X468327Y527089D01*
X468273Y526920D01*
X468257Y526822D01*
X468232Y526727D01*
X468213Y526551D01*
X468185Y526376D01*
X468183Y526277D01*
X468172Y526178D01*
X468178Y526001D01*
X468176Y525824D01*
X468188Y525726D01*
X468192Y525627D01*
X468224Y525453D01*
X468246Y525277D01*
X468273Y525182D01*
X468291Y525084D01*
X468347Y524917D01*
X468395Y524746D01*
X468435Y524655D01*
X468467Y524562D01*
X468547Y524403D01*
X468619Y524242D01*
X468672Y524158D01*
X468717Y524070D01*
X468820Y523925D01*
X468914Y523775D01*
X468978Y523700D01*
X469036Y523619D01*
X469254Y523378D01*
X469273Y523356D01*
X469278Y523352D01*
X469285Y523344D01*
X473583Y519047D01*
X476525Y511944D01*
X476525Y504256D01*
X473460Y496858D01*
X473395Y496662D01*
X473324Y496470D01*
X473309Y496401D01*
X473287Y496334D01*
X473251Y496132D01*
X473207Y495931D01*
X473203Y495860D01*
X473190Y495791D01*
X473184Y495585D01*
X473170Y495380D01*
X473176Y495310D01*
X473174Y495240D01*
X473197Y495035D01*
X473213Y494830D01*
X473229Y494762D01*
X473237Y494691D01*
X473290Y494493D01*
X473335Y494292D01*
X473365Y494207D01*
X473378Y494158D01*
X473406Y494094D01*
X473460Y493942D01*
X476525Y486544D01*
X476525Y484545D01*
X476536Y484385D01*
X476538Y484225D01*
X476556Y484111D01*
X476565Y483995D01*
X476599Y483838D01*
X476624Y483680D01*
X476659Y483569D01*
X476684Y483457D01*
X476741Y483306D01*
X476788Y483153D01*
X476838Y483049D01*
X476879Y482941D01*
X476957Y482801D01*
X477027Y482655D01*
X477091Y482559D01*
X477147Y482459D01*
X477245Y482331D01*
X477334Y482198D01*
X477412Y482112D01*
X477482Y482020D01*
X477597Y481908D01*
X477705Y481789D01*
X477794Y481715D01*
X477877Y481635D01*
X478006Y481541D01*
X478131Y481438D01*
X478230Y481378D01*
X478323Y481310D01*
X478465Y481236D01*
X478603Y481152D01*
X478709Y481107D01*
X478811Y481054D01*
X478963Y481000D01*
X479111Y480938D01*
X479223Y480909D01*
X479332Y480870D01*
X479489Y480840D01*
X479645Y480799D01*
X479760Y480786D01*
X479873Y480764D01*
X480033Y480756D01*
X480193Y480739D01*
X480309Y480743D01*
X480424Y480737D01*
X480584Y480753D01*
X480744Y480758D01*
X480858Y480779D01*
X480973Y480790D01*
X481129Y480829D01*
X481287Y480857D01*
X481397Y480894D01*
X481509Y480922D01*
X481658Y480982D01*
X481810Y481034D01*
X481913Y481086D01*
X482020Y481130D01*
X482159Y481211D01*
X482302Y481284D01*
X482396Y481350D01*
X482496Y481409D01*
X482621Y481509D01*
X482752Y481602D01*
X482871Y481710D01*
X482926Y481754D01*
X482961Y481792D01*
X483028Y481852D01*
X488886Y487710D01*
X488892Y487718D01*
X488900Y487724D01*
X489075Y487928D01*
X489247Y488128D01*
X489252Y488136D01*
X489259Y488144D01*
X489399Y488367D01*
X489544Y488593D01*
X489548Y488602D01*
X489553Y488610D01*
X489712Y488946D01*
X491740Y493842D01*
X491804Y494037D01*
X491876Y494230D01*
X491891Y494299D01*
X491913Y494366D01*
X491949Y494568D01*
X491993Y494769D01*
X491997Y494840D01*
X492010Y494909D01*
X492016Y495115D01*
X492030Y495320D01*
X492024Y495390D01*
X492026Y495461D01*
X492003Y495665D01*
X491987Y495870D01*
X491971Y495938D01*
X491963Y496009D01*
X491910Y496207D01*
X491865Y496408D01*
X491835Y496493D01*
X491822Y496542D01*
X491794Y496606D01*
X491740Y496758D01*
X488675Y504156D01*
X488675Y511844D01*
X491740Y519242D01*
X491804Y519437D01*
X491876Y519630D01*
X491891Y519699D01*
X491913Y519766D01*
X491949Y519968D01*
X491993Y520169D01*
X491997Y520240D01*
X492010Y520309D01*
X492016Y520515D01*
X492030Y520720D01*
X492024Y520790D01*
X492026Y520861D01*
X492003Y521065D01*
X491987Y521270D01*
X491971Y521338D01*
X491963Y521409D01*
X491911Y521607D01*
X491865Y521808D01*
X491835Y521893D01*
X491822Y521942D01*
X491794Y522006D01*
X491740Y522158D01*
X488675Y529556D01*
X488675Y537244D01*
X491740Y544642D01*
X491804Y544837D01*
X491876Y545030D01*
X491891Y545099D01*
X491913Y545166D01*
X491949Y545368D01*
X491993Y545569D01*
X491997Y545640D01*
X492010Y545709D01*
X492016Y545915D01*
X492030Y546120D01*
X492024Y546190D01*
X492026Y546261D01*
X492003Y546465D01*
X491987Y546670D01*
X491971Y546738D01*
X491963Y546809D01*
X491911Y547007D01*
X491865Y547208D01*
X491835Y547293D01*
X491822Y547342D01*
X491794Y547406D01*
X491740Y547558D01*
X488675Y554956D01*
X488675Y562644D01*
X491740Y570042D01*
X491804Y570237D01*
X491876Y570430D01*
X491891Y570499D01*
X491913Y570566D01*
X491949Y570768D01*
X491993Y570969D01*
X491997Y571040D01*
X492010Y571109D01*
X492016Y571315D01*
X492030Y571520D01*
X492024Y571590D01*
X492026Y571661D01*
X492003Y571865D01*
X491987Y572070D01*
X491971Y572138D01*
X491963Y572209D01*
X491911Y572407D01*
X491865Y572608D01*
X491835Y572693D01*
X491822Y572742D01*
X491794Y572806D01*
X491740Y572958D01*
X488675Y580356D01*
X488675Y588044D01*
X491740Y595442D01*
X491804Y595637D01*
X491876Y595830D01*
X491891Y595899D01*
X491913Y595966D01*
X491949Y596168D01*
X491993Y596369D01*
X491997Y596440D01*
X492010Y596509D01*
X492016Y596715D01*
X492030Y596920D01*
X492024Y596990D01*
X492026Y597061D01*
X492003Y597265D01*
X491987Y597470D01*
X491971Y597538D01*
X491963Y597609D01*
X491911Y597807D01*
X491865Y598008D01*
X491835Y598093D01*
X491822Y598142D01*
X491794Y598206D01*
X491740Y598358D01*
X488675Y605756D01*
X488675Y613444D01*
X491617Y620547D01*
X494164Y623093D01*
X494297Y623248D01*
X494438Y623399D01*
X494478Y623457D01*
X494524Y623510D01*
X494635Y623683D01*
X494752Y623853D01*
X494783Y623916D01*
X494821Y623975D01*
X494905Y624163D01*
X494997Y624347D01*
X495019Y624414D01*
X495048Y624478D01*
X495104Y624676D01*
X495168Y624871D01*
X495180Y624941D01*
X495199Y625009D01*
X495226Y625212D01*
X495261Y625415D01*
X495266Y625505D01*
X495272Y625556D01*
X495271Y625626D01*
X495279Y625786D01*
X495279Y631191D01*
X508000Y631191D01*
X508045Y631194D01*
X508090Y631192D01*
X508319Y631214D01*
X508550Y631231D01*
X508594Y631240D01*
X508639Y631245D01*
X508862Y631300D01*
X509089Y631350D01*
X509131Y631366D01*
X509175Y631376D01*
X509389Y631463D01*
X509604Y631545D01*
X509644Y631567D01*
X509686Y631584D01*
X509885Y631701D01*
X510087Y631813D01*
X510123Y631841D01*
X510161Y631863D01*
X510342Y632008D01*
X510525Y632148D01*
X510556Y632180D01*
X510592Y632209D01*
X510750Y632378D01*
X510910Y632543D01*
X510937Y632579D01*
X510968Y632612D01*
X511100Y632803D01*
X511235Y632989D01*
X511256Y633029D01*
X511282Y633066D01*
X511384Y633274D01*
X511491Y633477D01*
X511506Y633520D01*
X511526Y633560D01*
X511598Y633780D01*
X511675Y633998D01*
X511683Y634042D01*
X511697Y634085D01*
X511737Y634313D01*
X511781Y634539D01*
X511783Y634584D01*
X511791Y634629D01*
X511809Y635000D01*
X511806Y635045D01*
X511808Y635090D01*
X511786Y635320D01*
X511769Y635550D01*
X511759Y635595D01*
X511755Y635639D01*
X511700Y635863D01*
X511650Y636089D01*
X511634Y636131D01*
X511623Y636175D01*
X511536Y636389D01*
X511454Y636605D01*
X511433Y636644D01*
X511415Y636686D01*
X511298Y636885D01*
X511186Y637087D01*
X511159Y637123D01*
X511136Y637162D01*
X510992Y637342D01*
X510852Y637525D01*
X510819Y637557D01*
X510791Y637592D01*
X510621Y637750D01*
X510457Y637911D01*
X510421Y637937D01*
X510387Y637968D01*
X510196Y638100D01*
X510011Y638235D01*
X509971Y638256D01*
X509934Y638282D01*
X509726Y638385D01*
X509522Y638492D01*
X509480Y638507D01*
X509439Y638527D01*
X509219Y638599D01*
X509002Y638675D01*
X508958Y638684D01*
X508915Y638698D01*
X508686Y638737D01*
X508461Y638781D01*
X508416Y638784D01*
X508371Y638791D01*
X508000Y638809D01*
X495279Y638809D01*
X495279Y645430D01*
X495377Y645921D01*
X495568Y646384D01*
X495847Y646800D01*
X496200Y647153D01*
X496616Y647432D01*
X497079Y647623D01*
X497570Y647721D01*
X503261Y647721D01*
X503421Y647732D01*
X503581Y647734D01*
X503695Y647752D01*
X503811Y647761D01*
X503968Y647795D01*
X504126Y647820D01*
X504236Y647855D01*
X504349Y647880D01*
X504500Y647937D01*
X504653Y647984D01*
X504757Y648034D01*
X504865Y648075D01*
X505006Y648153D01*
X505151Y648223D01*
X505247Y648287D01*
X505347Y648343D01*
X505475Y648441D01*
X505608Y648530D01*
X505694Y648608D01*
X505786Y648678D01*
X505898Y648793D01*
X506017Y648901D01*
X506091Y648990D01*
X506171Y649073D01*
X506265Y649202D01*
X506368Y649327D01*
X506428Y649426D01*
X506496Y649519D01*
X506570Y649661D01*
X506654Y649799D01*
X506699Y649905D01*
X506752Y650007D01*
X506806Y650159D01*
X506868Y650307D01*
X506897Y650419D01*
X506936Y650528D01*
X506966Y650685D01*
X507007Y650841D01*
X507020Y650956D01*
X507042Y651069D01*
X507050Y651229D01*
X507067Y651389D01*
X507063Y651505D01*
X507069Y651620D01*
X507053Y651780D01*
X507048Y651940D01*
X507027Y652054D01*
X507016Y652169D01*
X506977Y652325D01*
X506949Y652483D01*
X506912Y652593D01*
X506884Y652705D01*
X506824Y652854D01*
X506772Y653006D01*
X506720Y653109D01*
X506676Y653216D01*
X506595Y653355D01*
X506522Y653498D01*
X506456Y653592D01*
X506397Y653692D01*
X506297Y653817D01*
X506204Y653948D01*
X506096Y654067D01*
X506052Y654122D01*
X506015Y654157D01*
X505954Y654224D01*
X489210Y670968D01*
X489055Y671102D01*
X488904Y671242D01*
X488846Y671282D01*
X488793Y671328D01*
X488620Y671439D01*
X488450Y671556D01*
X488387Y671587D01*
X488328Y671625D01*
X488140Y671709D01*
X487956Y671801D01*
X487889Y671823D01*
X487825Y671852D01*
X487627Y671908D01*
X487431Y671972D01*
X487362Y671984D01*
X487294Y672003D01*
X487090Y672030D01*
X486888Y672065D01*
X486798Y672070D01*
X486747Y672076D01*
X486677Y672075D01*
X486516Y672083D01*
X479020Y672083D01*
X478780Y672066D01*
X478539Y672053D01*
X478505Y672046D01*
X478470Y672043D01*
X478235Y671991D01*
X477999Y671944D01*
X477965Y671932D01*
X477931Y671924D01*
X477706Y671839D01*
X477479Y671758D01*
X477448Y671741D01*
X477415Y671729D01*
X477205Y671612D01*
X476992Y671499D01*
X476964Y671478D01*
X476933Y671461D01*
X476741Y671314D01*
X476548Y671172D01*
X476523Y671147D01*
X476495Y671126D01*
X476326Y670954D01*
X476155Y670785D01*
X476134Y670756D01*
X476109Y670731D01*
X475968Y670537D01*
X475822Y670344D01*
X475805Y670313D01*
X475785Y670285D01*
X475673Y670073D01*
X475557Y669861D01*
X475545Y669828D01*
X475528Y669797D01*
X475448Y669570D01*
X475364Y669344D01*
X475357Y669310D01*
X475345Y669276D01*
X475299Y669040D01*
X475248Y668805D01*
X475245Y668769D01*
X475239Y668735D01*
X475227Y668494D01*
X475211Y668254D01*
X475213Y668219D01*
X475212Y668184D01*
X475235Y667944D01*
X475254Y667704D01*
X475261Y667670D01*
X475265Y667635D01*
X475322Y667402D01*
X475375Y667166D01*
X475390Y667125D01*
X475396Y667099D01*
X475421Y667038D01*
X475501Y666816D01*
X476525Y664344D01*
X476525Y656656D01*
X473460Y649258D01*
X473396Y649063D01*
X473324Y648870D01*
X473309Y648801D01*
X473287Y648734D01*
X473251Y648532D01*
X473207Y648331D01*
X473203Y648260D01*
X473190Y648191D01*
X473184Y647985D01*
X473170Y647780D01*
X473176Y647710D01*
X473174Y647639D01*
X473197Y647435D01*
X473213Y647230D01*
X473229Y647162D01*
X473237Y647091D01*
X473289Y646893D01*
X473335Y646692D01*
X473365Y646607D01*
X473378Y646558D01*
X473406Y646494D01*
X473460Y646342D01*
X476525Y638944D01*
X476525Y631256D01*
X473460Y623858D01*
X473396Y623663D01*
X473324Y623470D01*
X473309Y623401D01*
X473287Y623334D01*
X473251Y623132D01*
X473207Y622931D01*
X473203Y622860D01*
X473190Y622791D01*
X473184Y622585D01*
X473170Y622380D01*
X473176Y622310D01*
X473174Y622239D01*
X473197Y622035D01*
X473213Y621830D01*
X473229Y621762D01*
X473237Y621691D01*
X473289Y621493D01*
X473335Y621292D01*
X473365Y621207D01*
X473378Y621158D01*
X473406Y621094D01*
X473460Y620942D01*
X476525Y613544D01*
X476525Y605856D01*
X473460Y598458D01*
X473396Y598263D01*
X473324Y598070D01*
X473309Y598001D01*
X473287Y597934D01*
X473251Y597732D01*
X473207Y597531D01*
X473203Y597460D01*
X473190Y597391D01*
X473184Y597185D01*
X473170Y596980D01*
X473176Y596910D01*
X473174Y596839D01*
X473197Y596635D01*
X473213Y596430D01*
X473229Y596362D01*
X473237Y596291D01*
X473289Y596093D01*
X473335Y595892D01*
X473365Y595807D01*
X473378Y595758D01*
X473406Y595694D01*
X473460Y595542D01*
X476525Y588144D01*
X476525Y580456D01*
X473460Y573058D01*
X473396Y572863D01*
X473324Y572670D01*
X473309Y572601D01*
X473287Y572534D01*
X473251Y572332D01*
X473207Y572131D01*
X473203Y572060D01*
X473190Y571991D01*
X473184Y571785D01*
X473170Y571580D01*
X473176Y571510D01*
X473174Y571439D01*
X473197Y571235D01*
X473213Y571030D01*
X473229Y570962D01*
X473237Y570891D01*
X473289Y570693D01*
X473335Y570492D01*
X473365Y570407D01*
X473378Y570358D01*
X473406Y570294D01*
X473460Y570142D01*
X476525Y562744D01*
X476525Y555056D01*
X473583Y547953D01*
X469285Y543656D01*
X469221Y543581D01*
X469149Y543513D01*
X469040Y543373D01*
X468924Y543239D01*
X468871Y543155D01*
X468810Y543077D01*
X468723Y542923D01*
X468628Y542774D01*
X468587Y542683D01*
X468538Y542597D01*
X468474Y542432D01*
X468401Y542271D01*
X468374Y542175D01*
X468338Y542083D01*
X468298Y541911D01*
X468250Y541740D01*
X468237Y541642D01*
X468214Y541546D01*
X468200Y541369D01*
X468177Y541193D01*
X468178Y541094D01*
X468170Y540996D01*
X468181Y540819D01*
X468183Y540642D01*
X468199Y540544D01*
X468205Y540445D01*
X468241Y540272D01*
X468269Y540097D01*
X468299Y540002D01*
X468319Y539905D01*
X468380Y539739D01*
X468433Y539570D01*
X468476Y539481D01*
X468510Y539388D01*
X468612Y539189D01*
X469271Y537598D01*
X469349Y537309D01*
X457200Y537309D01*
X445051Y537309D01*
X445129Y537598D01*
X445785Y539183D01*
X445814Y539231D01*
X445883Y539394D01*
X445960Y539554D01*
X445990Y539648D01*
X446029Y539739D01*
X446073Y539911D01*
X446127Y540080D01*
X446143Y540178D01*
X446168Y540273D01*
X446187Y540449D01*
X446215Y540624D01*
X446217Y540723D01*
X446228Y540822D01*
X446222Y540999D01*
X446224Y541176D01*
X446212Y541274D01*
X446208Y541373D01*
X446176Y541547D01*
X446154Y541723D01*
X446127Y541818D01*
X446109Y541916D01*
X446053Y542083D01*
X446005Y542254D01*
X445965Y542345D01*
X445933Y542438D01*
X445853Y542596D01*
X445781Y542758D01*
X445728Y542842D01*
X445683Y542930D01*
X445581Y543075D01*
X445486Y543225D01*
X445422Y543300D01*
X445364Y543381D01*
X445146Y543622D01*
X445127Y543644D01*
X445122Y543648D01*
X445115Y543656D01*
X440817Y547953D01*
X437875Y555056D01*
X437875Y562744D01*
X440940Y570142D01*
X441005Y570338D01*
X441076Y570530D01*
X441091Y570599D01*
X441113Y570666D01*
X441149Y570868D01*
X441193Y571069D01*
X441197Y571140D01*
X441210Y571209D01*
X441216Y571415D01*
X441230Y571620D01*
X441224Y571690D01*
X441226Y571760D01*
X441203Y571965D01*
X441187Y572170D01*
X441171Y572238D01*
X441163Y572309D01*
X441110Y572507D01*
X441065Y572708D01*
X441035Y572793D01*
X441022Y572842D01*
X440994Y572906D01*
X440940Y573058D01*
X437875Y580456D01*
X437875Y588144D01*
X440940Y595542D01*
X441005Y595738D01*
X441076Y595930D01*
X441091Y595999D01*
X441113Y596066D01*
X441149Y596268D01*
X441193Y596469D01*
X441197Y596540D01*
X441210Y596609D01*
X441216Y596815D01*
X441230Y597020D01*
X441224Y597090D01*
X441226Y597160D01*
X441203Y597365D01*
X441187Y597570D01*
X441171Y597638D01*
X441163Y597709D01*
X441110Y597907D01*
X441065Y598108D01*
X441035Y598193D01*
X441022Y598242D01*
X440994Y598306D01*
X440940Y598458D01*
X437875Y605856D01*
X437875Y613544D01*
X440940Y620942D01*
X441005Y621138D01*
X441076Y621330D01*
X441091Y621399D01*
X441113Y621466D01*
X441149Y621668D01*
X441193Y621869D01*
X441197Y621940D01*
X441210Y622009D01*
X441216Y622215D01*
X441230Y622420D01*
X441224Y622490D01*
X441226Y622560D01*
X441203Y622765D01*
X441187Y622970D01*
X441171Y623038D01*
X441163Y623109D01*
X441110Y623307D01*
X441065Y623508D01*
X441035Y623593D01*
X441022Y623642D01*
X440994Y623706D01*
X440940Y623858D01*
X437875Y631256D01*
X437875Y638944D01*
X440940Y646342D01*
X441005Y646538D01*
X441076Y646730D01*
X441091Y646799D01*
X441113Y646866D01*
X441149Y647068D01*
X441193Y647269D01*
X441197Y647340D01*
X441210Y647409D01*
X441216Y647615D01*
X441230Y647820D01*
X441224Y647890D01*
X441226Y647960D01*
X441203Y648165D01*
X441187Y648370D01*
X441171Y648438D01*
X441163Y648509D01*
X441110Y648707D01*
X441065Y648908D01*
X441035Y648993D01*
X441022Y649042D01*
X440994Y649106D01*
X440940Y649258D01*
X437875Y656656D01*
X437875Y664344D01*
X438899Y666816D01*
X438975Y667045D01*
X439055Y667272D01*
X439062Y667306D01*
X439073Y667340D01*
X439115Y667577D01*
X439161Y667813D01*
X439163Y667848D01*
X439169Y667883D01*
X439177Y668124D01*
X439188Y668364D01*
X439185Y668399D01*
X439186Y668435D01*
X439158Y668674D01*
X439135Y668913D01*
X439127Y668947D01*
X439123Y668983D01*
X439061Y669216D01*
X439004Y669449D01*
X438990Y669481D01*
X438981Y669516D01*
X438886Y669738D01*
X438796Y669960D01*
X438778Y669990D01*
X438764Y670023D01*
X438639Y670228D01*
X438517Y670436D01*
X438494Y670463D01*
X438476Y670493D01*
X438323Y670677D01*
X438171Y670866D01*
X438145Y670890D01*
X438123Y670917D01*
X437945Y671077D01*
X437768Y671242D01*
X437739Y671262D01*
X437712Y671286D01*
X437512Y671419D01*
X437314Y671556D01*
X437282Y671572D01*
X437253Y671591D01*
X437035Y671694D01*
X436820Y671801D01*
X436786Y671812D01*
X436754Y671827D01*
X436524Y671897D01*
X436295Y671972D01*
X436260Y671978D01*
X436227Y671988D01*
X435989Y672024D01*
X435751Y672065D01*
X435708Y672067D01*
X435681Y672071D01*
X435616Y672072D01*
X435380Y672083D01*
X225020Y672083D01*
X224780Y672066D01*
X224539Y672053D01*
X224505Y672046D01*
X224470Y672043D01*
X224235Y671991D01*
X223999Y671944D01*
X223965Y671932D01*
X223931Y671924D01*
X223706Y671839D01*
X223479Y671758D01*
X223448Y671741D01*
X223415Y671729D01*
X223205Y671612D01*
X222992Y671499D01*
X222964Y671478D01*
X222933Y671461D01*
X222741Y671314D01*
X222548Y671172D01*
X222523Y671147D01*
X222495Y671126D01*
X222326Y670954D01*
X222155Y670785D01*
X222134Y670756D01*
X222109Y670731D01*
X221968Y670537D01*
X221822Y670344D01*
X221805Y670313D01*
X221785Y670285D01*
X221673Y670073D01*
X221557Y669861D01*
X221545Y669828D01*
X221528Y669797D01*
X221448Y669570D01*
X221364Y669344D01*
X221357Y669310D01*
X221345Y669276D01*
X221299Y669040D01*
X221248Y668805D01*
X221245Y668769D01*
X221239Y668735D01*
X221227Y668494D01*
X221211Y668254D01*
X221213Y668219D01*
X221212Y668184D01*
X221235Y667944D01*
X221254Y667704D01*
X221261Y667670D01*
X221265Y667635D01*
X221322Y667402D01*
X221375Y667166D01*
X221390Y667125D01*
X221396Y667099D01*
X221421Y667038D01*
X221501Y666816D01*
X222525Y664344D01*
X222525Y656656D01*
X219460Y649258D01*
X219395Y649062D01*
X219324Y648870D01*
X219309Y648801D01*
X219287Y648734D01*
X219251Y648532D01*
X219207Y648331D01*
X219203Y648260D01*
X219190Y648191D01*
X219184Y647985D01*
X219170Y647780D01*
X219176Y647710D01*
X219174Y647640D01*
X219197Y647435D01*
X219213Y647230D01*
X219229Y647162D01*
X219237Y647091D01*
X219290Y646893D01*
X219335Y646692D01*
X219365Y646607D01*
X219378Y646558D01*
X219406Y646494D01*
X219460Y646342D01*
X222525Y638944D01*
X222525Y631256D01*
X219460Y623858D01*
X219395Y623662D01*
X219324Y623470D01*
X219309Y623401D01*
X219287Y623334D01*
X219251Y623132D01*
X219207Y622931D01*
X219203Y622860D01*
X219190Y622791D01*
X219184Y622585D01*
X219170Y622380D01*
X219176Y622310D01*
X219174Y622240D01*
X219197Y622035D01*
X219213Y621830D01*
X219229Y621762D01*
X219237Y621691D01*
X219290Y621493D01*
X219335Y621292D01*
X219365Y621207D01*
X219378Y621158D01*
X219406Y621094D01*
X219460Y620942D01*
X222525Y613544D01*
X222525Y605856D01*
X219460Y598458D01*
X219395Y598262D01*
X219324Y598070D01*
X219309Y598001D01*
X219287Y597934D01*
X219251Y597732D01*
X219207Y597531D01*
X219203Y597460D01*
X219190Y597391D01*
X219184Y597185D01*
X219170Y596980D01*
X219176Y596910D01*
X219174Y596840D01*
X219197Y596635D01*
X219213Y596430D01*
X219229Y596362D01*
X219237Y596291D01*
X219290Y596093D01*
X219335Y595892D01*
X219365Y595807D01*
X219378Y595758D01*
X219406Y595694D01*
X219460Y595542D01*
X222525Y588144D01*
X222525Y580456D01*
X219460Y573058D01*
X219395Y572862D01*
X219324Y572670D01*
X219309Y572601D01*
X219287Y572534D01*
X219251Y572332D01*
X219207Y572131D01*
X219203Y572060D01*
X219190Y571991D01*
X219184Y571785D01*
X219170Y571580D01*
X219176Y571510D01*
X219174Y571440D01*
X219197Y571235D01*
X219213Y571030D01*
X219229Y570962D01*
X219237Y570891D01*
X219290Y570693D01*
X219335Y570492D01*
X219365Y570407D01*
X219378Y570358D01*
X219406Y570294D01*
X219460Y570142D01*
X222525Y562744D01*
X222525Y555056D01*
X219460Y547658D01*
X219395Y547462D01*
X219324Y547270D01*
X219309Y547201D01*
X219287Y547134D01*
X219251Y546932D01*
X219207Y546731D01*
X219203Y546660D01*
X219190Y546591D01*
X219184Y546385D01*
X219170Y546180D01*
X219176Y546110D01*
X219174Y546040D01*
X219197Y545835D01*
X219213Y545630D01*
X219229Y545562D01*
X219237Y545491D01*
X219290Y545293D01*
X219335Y545092D01*
X219365Y545007D01*
X219378Y544958D01*
X219406Y544894D01*
X219460Y544742D01*
X222525Y537344D01*
X222525Y529656D01*
X219460Y522258D01*
X219395Y522062D01*
X219324Y521870D01*
X219309Y521801D01*
X219287Y521734D01*
X219251Y521532D01*
X219207Y521331D01*
X219203Y521260D01*
X219190Y521191D01*
X219184Y520985D01*
X219170Y520780D01*
X219176Y520710D01*
X219174Y520640D01*
X219197Y520435D01*
X219213Y520230D01*
X219229Y520162D01*
X219237Y520091D01*
X219290Y519893D01*
X219335Y519692D01*
X219365Y519607D01*
X219378Y519558D01*
X219406Y519494D01*
X219460Y519342D01*
X222525Y511944D01*
X222525Y504256D01*
X219460Y496858D01*
X219395Y496662D01*
X219324Y496470D01*
X219309Y496401D01*
X219287Y496334D01*
X219251Y496132D01*
X219207Y495931D01*
X219203Y495860D01*
X219190Y495791D01*
X219184Y495585D01*
X219170Y495380D01*
X219176Y495310D01*
X219174Y495240D01*
X219197Y495035D01*
X219213Y494830D01*
X219229Y494762D01*
X219237Y494691D01*
X219290Y494493D01*
X219335Y494292D01*
X219365Y494207D01*
X219378Y494158D01*
X219406Y494094D01*
X219460Y493942D01*
X222525Y486544D01*
X222525Y478856D01*
X219460Y471458D01*
X219395Y471262D01*
X219324Y471070D01*
X219309Y471001D01*
X219287Y470934D01*
X219251Y470732D01*
X219207Y470531D01*
X219203Y470460D01*
X219190Y470391D01*
X219184Y470185D01*
X219170Y469980D01*
X219176Y469910D01*
X219174Y469840D01*
X219197Y469635D01*
X219213Y469430D01*
X219229Y469362D01*
X219237Y469291D01*
X219290Y469093D01*
X219335Y468892D01*
X219365Y468807D01*
X219378Y468758D01*
X219406Y468694D01*
X219460Y468542D01*
X222525Y461144D01*
X222525Y453456D01*
X219460Y446058D01*
X219395Y445862D01*
X219324Y445670D01*
X219309Y445601D01*
X219287Y445534D01*
X219251Y445332D01*
X219207Y445131D01*
X219203Y445060D01*
X219190Y444991D01*
X219184Y444785D01*
X219170Y444580D01*
X219176Y444510D01*
X219174Y444440D01*
X219197Y444235D01*
X219213Y444030D01*
X219229Y443962D01*
X219237Y443891D01*
X219290Y443693D01*
X219335Y443492D01*
X219365Y443407D01*
X219378Y443358D01*
X219406Y443294D01*
X219460Y443142D01*
X222525Y435744D01*
X222525Y428056D01*
X219460Y420658D01*
X219395Y420462D01*
X219324Y420270D01*
X219309Y420201D01*
X219287Y420134D01*
X219251Y419932D01*
X219207Y419731D01*
X219203Y419660D01*
X219190Y419591D01*
X219184Y419385D01*
X219170Y419180D01*
X219176Y419110D01*
X219174Y419040D01*
X219197Y418835D01*
X219213Y418630D01*
X219229Y418562D01*
X219237Y418491D01*
X219290Y418293D01*
X219335Y418092D01*
X219365Y418007D01*
X219378Y417958D01*
X219406Y417894D01*
X219460Y417742D01*
X222525Y410344D01*
X222525Y402656D01*
X219460Y395258D01*
X219395Y395062D01*
X219324Y394870D01*
X219309Y394801D01*
X219287Y394734D01*
X219251Y394532D01*
X219207Y394331D01*
X219203Y394260D01*
X219190Y394191D01*
X219184Y393985D01*
X219170Y393780D01*
X219176Y393710D01*
X219174Y393640D01*
X219197Y393435D01*
X219213Y393230D01*
X219229Y393162D01*
X219237Y393091D01*
X219290Y392893D01*
X219335Y392692D01*
X219365Y392607D01*
X219378Y392558D01*
X219406Y392494D01*
X219460Y392342D01*
X222525Y384944D01*
X222525Y377256D01*
X219583Y370153D01*
X215285Y365856D01*
X215221Y365781D01*
X215149Y365713D01*
X215040Y365573D01*
X214924Y365439D01*
X214871Y365355D01*
X214810Y365277D01*
X214723Y365123D01*
X214628Y364974D01*
X214587Y364883D01*
X214538Y364797D01*
X214474Y364632D01*
X214401Y364471D01*
X214374Y364375D01*
X214338Y364283D01*
X214298Y364111D01*
X214250Y363940D01*
X214237Y363842D01*
X214214Y363746D01*
X214200Y363569D01*
X214177Y363393D01*
X214178Y363294D01*
X214170Y363196D01*
X214181Y363019D01*
X214183Y362842D01*
X214199Y362744D01*
X214205Y362645D01*
X214241Y362472D01*
X214269Y362297D01*
X214299Y362202D01*
X214319Y362105D01*
X214380Y361939D01*
X214433Y361770D01*
X214476Y361681D01*
X214510Y361588D01*
X214612Y361389D01*
X215271Y359798D01*
X215349Y359509D01*
X203200Y359509D01*
X191051Y359509D01*
X191129Y359798D01*
X191785Y361383D01*
X191814Y361431D01*
X191883Y361594D01*
X191960Y361754D01*
X191990Y361848D01*
X192029Y361939D01*
X192073Y362111D01*
X192127Y362280D01*
X192143Y362378D01*
X192168Y362473D01*
X192187Y362649D01*
X192215Y362824D01*
X192217Y362923D01*
X192228Y363022D01*
X192222Y363199D01*
X192224Y363376D01*
X192212Y363474D01*
X192208Y363573D01*
X192176Y363747D01*
X192154Y363923D01*
X192127Y364018D01*
X192109Y364116D01*
X192053Y364283D01*
X192005Y364454D01*
X191965Y364545D01*
X191933Y364638D01*
X191853Y364796D01*
X191781Y364958D01*
X191728Y365042D01*
X191683Y365130D01*
X191581Y365275D01*
X191486Y365425D01*
X191422Y365500D01*
X191364Y365581D01*
X191146Y365822D01*
X191127Y365844D01*
X191122Y365848D01*
X191115Y365856D01*
X186817Y370153D01*
X183875Y377256D01*
X183875Y384944D01*
X186940Y392342D01*
X187004Y392537D01*
X187076Y392730D01*
X187091Y392799D01*
X187113Y392866D01*
X187149Y393068D01*
X187193Y393269D01*
X187197Y393340D01*
X187210Y393409D01*
X187216Y393615D01*
X187230Y393820D01*
X187224Y393890D01*
X187226Y393961D01*
X187203Y394165D01*
X187187Y394370D01*
X187171Y394438D01*
X187163Y394509D01*
X187111Y394707D01*
X187065Y394908D01*
X187035Y394993D01*
X187022Y395042D01*
X186994Y395106D01*
X186940Y395258D01*
X183875Y402656D01*
X183875Y410344D01*
X186940Y417742D01*
X187004Y417937D01*
X187076Y418130D01*
X187091Y418199D01*
X187113Y418266D01*
X187149Y418468D01*
X187193Y418669D01*
X187197Y418740D01*
X187210Y418809D01*
X187216Y419015D01*
X187230Y419220D01*
X187224Y419290D01*
X187226Y419361D01*
X187203Y419565D01*
X187187Y419770D01*
X187171Y419838D01*
X187163Y419909D01*
X187111Y420107D01*
X187065Y420308D01*
X187035Y420393D01*
X187022Y420442D01*
X186994Y420506D01*
X186940Y420658D01*
X183875Y428056D01*
X183875Y435744D01*
X186940Y443142D01*
X187004Y443337D01*
X187076Y443530D01*
X187091Y443599D01*
X187113Y443666D01*
X187149Y443868D01*
X187193Y444069D01*
X187197Y444140D01*
X187210Y444209D01*
X187216Y444415D01*
X187230Y444620D01*
X187224Y444690D01*
X187226Y444761D01*
X187203Y444965D01*
X187187Y445170D01*
X187171Y445238D01*
X187163Y445309D01*
X187111Y445507D01*
X187065Y445708D01*
X187035Y445793D01*
X187022Y445842D01*
X186994Y445906D01*
X186940Y446058D01*
X183875Y453456D01*
X183875Y461144D01*
X186940Y468542D01*
X187004Y468737D01*
X187076Y468930D01*
X187091Y468999D01*
X187113Y469066D01*
X187149Y469268D01*
X187193Y469469D01*
X187197Y469540D01*
X187210Y469609D01*
X187216Y469815D01*
X187230Y470020D01*
X187224Y470090D01*
X187226Y470161D01*
X187203Y470365D01*
X187187Y470570D01*
X187171Y470638D01*
X187163Y470709D01*
X187111Y470907D01*
X187065Y471108D01*
X187035Y471193D01*
X187022Y471242D01*
X186994Y471306D01*
X186940Y471458D01*
X183875Y478856D01*
X183875Y486544D01*
X186940Y493942D01*
X187004Y494137D01*
X187076Y494330D01*
X187091Y494399D01*
X187113Y494466D01*
X187149Y494668D01*
X187193Y494869D01*
X187197Y494940D01*
X187210Y495009D01*
X187216Y495215D01*
X187230Y495420D01*
X187224Y495490D01*
X187226Y495561D01*
X187203Y495765D01*
X187187Y495970D01*
X187171Y496038D01*
X187163Y496109D01*
X187111Y496307D01*
X187065Y496508D01*
X187035Y496593D01*
X187022Y496642D01*
X186994Y496706D01*
X186940Y496858D01*
X183875Y504256D01*
X183875Y511944D01*
X186940Y519342D01*
X187004Y519537D01*
X187076Y519730D01*
X187091Y519799D01*
X187113Y519866D01*
X187149Y520068D01*
X187193Y520269D01*
X187197Y520340D01*
X187210Y520409D01*
X187216Y520615D01*
X187230Y520820D01*
X187224Y520890D01*
X187226Y520961D01*
X187203Y521165D01*
X187187Y521370D01*
X187171Y521438D01*
X187163Y521509D01*
X187111Y521707D01*
X187065Y521908D01*
X187035Y521993D01*
X187022Y522042D01*
X186994Y522106D01*
X186940Y522258D01*
X183875Y529656D01*
X183875Y537344D01*
X186940Y544742D01*
X187004Y544937D01*
X187076Y545130D01*
X187091Y545199D01*
X187113Y545266D01*
X187149Y545468D01*
X187193Y545669D01*
X187197Y545740D01*
X187210Y545809D01*
X187216Y546015D01*
X187230Y546220D01*
X187224Y546290D01*
X187226Y546361D01*
X187203Y546565D01*
X187187Y546770D01*
X187171Y546838D01*
X187163Y546909D01*
X187111Y547107D01*
X187065Y547308D01*
X187035Y547393D01*
X187022Y547442D01*
X186994Y547506D01*
X186940Y547658D01*
X183875Y555056D01*
X183875Y562744D01*
X186940Y570142D01*
X187004Y570337D01*
X187076Y570530D01*
X187091Y570599D01*
X187113Y570666D01*
X187149Y570868D01*
X187193Y571069D01*
X187197Y571140D01*
X187210Y571209D01*
X187216Y571415D01*
X187230Y571620D01*
X187224Y571690D01*
X187226Y571761D01*
X187203Y571965D01*
X187187Y572170D01*
X187171Y572238D01*
X187163Y572309D01*
X187111Y572507D01*
X187065Y572708D01*
X187035Y572793D01*
X187022Y572842D01*
X186994Y572906D01*
X186940Y573058D01*
X183875Y580456D01*
X183875Y588144D01*
X186940Y595542D01*
X187004Y595737D01*
X187076Y595930D01*
X187091Y595999D01*
X187113Y596066D01*
X187149Y596268D01*
X187193Y596469D01*
X187197Y596540D01*
X187210Y596609D01*
X187216Y596815D01*
X187230Y597020D01*
X187224Y597090D01*
X187226Y597161D01*
X187203Y597365D01*
X187187Y597570D01*
X187171Y597638D01*
X187163Y597709D01*
X187111Y597907D01*
X187065Y598108D01*
X187035Y598193D01*
X187022Y598242D01*
X186994Y598306D01*
X186940Y598458D01*
X183875Y605856D01*
X183875Y613544D01*
X186940Y620942D01*
X187004Y621137D01*
X187076Y621330D01*
X187091Y621399D01*
X187113Y621466D01*
X187149Y621668D01*
X187193Y621869D01*
X187197Y621940D01*
X187210Y622009D01*
X187216Y622215D01*
X187230Y622420D01*
X187224Y622490D01*
X187226Y622561D01*
X187203Y622765D01*
X187187Y622970D01*
X187171Y623038D01*
X187163Y623109D01*
X187111Y623307D01*
X187065Y623508D01*
X187035Y623593D01*
X187022Y623642D01*
X186994Y623706D01*
X186940Y623858D01*
X183875Y631256D01*
X183875Y638944D01*
X185351Y642506D01*
X185376Y642583D01*
X185409Y642656D01*
X185463Y642844D01*
X185525Y643030D01*
X185539Y643109D01*
X185561Y643186D01*
X185587Y643381D01*
X185621Y643573D01*
X185623Y643653D01*
X185634Y643733D01*
X185632Y643929D01*
X185637Y644125D01*
X185628Y644205D01*
X185627Y644285D01*
X185597Y644478D01*
X185574Y644673D01*
X185554Y644750D01*
X185541Y644830D01*
X185483Y645017D01*
X185433Y645206D01*
X185401Y645280D01*
X185377Y645357D01*
X185292Y645534D01*
X185216Y645713D01*
X185174Y645781D01*
X185139Y645854D01*
X185030Y646017D01*
X184928Y646184D01*
X184876Y646245D01*
X184831Y646312D01*
X184700Y646457D01*
X184575Y646607D01*
X184515Y646661D01*
X184461Y646721D01*
X184309Y646845D01*
X184164Y646976D01*
X184097Y647020D01*
X184035Y647072D01*
X183867Y647173D01*
X183704Y647281D01*
X183632Y647316D01*
X183563Y647357D01*
X183383Y647433D01*
X183206Y647517D01*
X183129Y647540D01*
X183055Y647572D01*
X182865Y647621D01*
X182678Y647678D01*
X182599Y647690D01*
X182521Y647711D01*
X182326Y647732D01*
X182133Y647761D01*
X182053Y647762D01*
X181972Y647771D01*
X181777Y647764D01*
X181581Y647765D01*
X181501Y647754D01*
X181421Y647751D01*
X181229Y647716D01*
X181035Y647689D01*
X180957Y647667D01*
X180878Y647652D01*
X180693Y647590D01*
X180505Y647535D01*
X180432Y647502D01*
X180356Y647476D01*
X180181Y647387D01*
X180003Y647306D01*
X179936Y647262D01*
X179864Y647226D01*
X179704Y647113D01*
X179540Y647007D01*
X179479Y646954D01*
X179413Y646907D01*
X179138Y646658D01*
X146031Y613550D01*
X145949Y613456D01*
X145860Y613367D01*
X145769Y613247D01*
X145670Y613133D01*
X145603Y613027D01*
X145527Y612927D01*
X145454Y612795D01*
X145373Y612668D01*
X145322Y612554D01*
X145261Y612444D01*
X145209Y612303D01*
X145147Y612165D01*
X145112Y612044D01*
X145069Y611927D01*
X145037Y611780D01*
X144995Y611635D01*
X144979Y611510D01*
X144952Y611388D01*
X144942Y611237D01*
X144922Y611088D01*
X144924Y610962D01*
X144915Y610837D01*
X144927Y610687D01*
X144929Y610536D01*
X144948Y610412D01*
X144958Y610287D01*
X144991Y610140D01*
X145015Y609991D01*
X145052Y609871D01*
X145080Y609749D01*
X145159Y609528D01*
X145179Y609465D01*
X145191Y609440D01*
X145205Y609399D01*
X145797Y607971D01*
X145797Y585029D01*
X144405Y581668D01*
X141832Y579095D01*
X138471Y577703D01*
X115529Y577703D01*
X112168Y579095D01*
X109450Y581814D01*
X109295Y581947D01*
X109144Y582088D01*
X109086Y582128D01*
X109032Y582174D01*
X108859Y582285D01*
X108690Y582402D01*
X108627Y582433D01*
X108567Y582471D01*
X108380Y582555D01*
X108196Y582647D01*
X108129Y582669D01*
X108064Y582698D01*
X107867Y582754D01*
X107671Y582818D01*
X107602Y582830D01*
X107534Y582849D01*
X107330Y582876D01*
X107128Y582911D01*
X107037Y582916D01*
X106987Y582922D01*
X106917Y582921D01*
X106756Y582929D01*
X55816Y582929D01*
X55611Y582914D01*
X55406Y582907D01*
X55337Y582894D01*
X55266Y582889D01*
X55065Y582845D01*
X54863Y582808D01*
X54796Y582786D01*
X54727Y582770D01*
X54535Y582697D01*
X54340Y582632D01*
X54277Y582600D01*
X54212Y582575D01*
X54032Y582475D01*
X53849Y582382D01*
X53791Y582341D01*
X53729Y582307D01*
X53566Y582182D01*
X53398Y582063D01*
X53331Y582003D01*
X53291Y581972D01*
X53242Y581921D01*
X53123Y581814D01*
X49840Y578530D01*
X42222Y575375D01*
X33978Y575375D01*
X26360Y578530D01*
X20530Y584360D01*
X17375Y591978D01*
X17375Y600222D01*
X20530Y607840D01*
X26360Y613670D01*
X33978Y616825D01*
X42222Y616825D01*
X49840Y613670D01*
X52031Y611478D01*
X52186Y611345D01*
X52337Y611204D01*
X52395Y611164D01*
X52448Y611118D01*
X52621Y611007D01*
X52790Y610890D01*
X52854Y610859D01*
X52913Y610821D01*
X53100Y610737D01*
X53285Y610645D01*
X53352Y610623D01*
X53416Y610594D01*
X53614Y610538D01*
X53809Y610474D01*
X53879Y610462D01*
X53947Y610443D01*
X54150Y610416D01*
X54353Y610381D01*
X54443Y610376D01*
X54493Y610370D01*
X54564Y610371D01*
X54724Y610363D01*
X107048Y610363D01*
X107253Y610378D01*
X107459Y610385D01*
X107528Y610398D01*
X107598Y610403D01*
X107800Y610447D01*
X108001Y610484D01*
X108068Y610506D01*
X108137Y610522D01*
X108329Y610595D01*
X108524Y610660D01*
X108587Y610692D01*
X108653Y610717D01*
X108833Y610817D01*
X109016Y610910D01*
X109074Y610951D01*
X109135Y610985D01*
X109298Y611110D01*
X109466Y611229D01*
X109533Y611289D01*
X109574Y611320D01*
X109623Y611371D01*
X109742Y611478D01*
X112168Y613905D01*
X114234Y614760D01*
X114346Y614816D01*
X114462Y614864D01*
X114592Y614940D01*
X114727Y615008D01*
X114829Y615079D01*
X114938Y615143D01*
X115055Y615237D01*
X115179Y615324D01*
X115270Y615410D01*
X115368Y615488D01*
X115471Y615599D01*
X115581Y615702D01*
X115658Y615800D01*
X115744Y615892D01*
X115830Y616016D01*
X115924Y616134D01*
X115986Y616242D01*
X116058Y616346D01*
X116125Y616481D01*
X116200Y616611D01*
X116247Y616728D01*
X116303Y616840D01*
X116350Y616983D01*
X116406Y617123D01*
X116435Y617245D01*
X116474Y617365D01*
X116499Y617513D01*
X116534Y617660D01*
X116546Y617784D01*
X116567Y617908D01*
X116579Y618143D01*
X116585Y618209D01*
X116583Y618236D01*
X116585Y618280D01*
X116585Y619948D01*
X118673Y624990D01*
X123068Y629384D01*
X176436Y682752D01*
X176541Y682874D01*
X176653Y682989D01*
X176721Y683082D01*
X176797Y683170D01*
X176884Y683306D01*
X176978Y683435D01*
X177031Y683537D01*
X177094Y683635D01*
X177160Y683781D01*
X177234Y683923D01*
X177273Y684032D01*
X177320Y684138D01*
X177364Y684292D01*
X177418Y684444D01*
X177440Y684557D01*
X177472Y684668D01*
X177493Y684828D01*
X177524Y684985D01*
X177529Y685100D01*
X177545Y685215D01*
X177543Y685376D01*
X177551Y685536D01*
X177540Y685651D01*
X177538Y685767D01*
X177513Y685926D01*
X177498Y686085D01*
X177470Y686197D01*
X177452Y686312D01*
X177404Y686465D01*
X177366Y686621D01*
X177323Y686728D01*
X177288Y686838D01*
X177219Y686983D01*
X177158Y687132D01*
X177100Y687232D01*
X177050Y687336D01*
X176960Y687469D01*
X176879Y687608D01*
X176807Y687698D01*
X176742Y687794D01*
X176635Y687913D01*
X176534Y688038D01*
X176449Y688117D01*
X176372Y688203D01*
X176248Y688305D01*
X176130Y688414D01*
X176035Y688480D01*
X175946Y688553D01*
X175809Y688637D01*
X175676Y688728D01*
X175573Y688779D01*
X175474Y688839D01*
X175326Y688901D01*
X175182Y688973D01*
X175072Y689009D01*
X174966Y689054D01*
X174810Y689094D01*
X174658Y689144D01*
X174544Y689163D01*
X174432Y689192D01*
X174272Y689210D01*
X174114Y689237D01*
X173953Y689245D01*
X173883Y689253D01*
X173833Y689251D01*
X173743Y689255D01*
X50446Y689255D01*
X50241Y689240D01*
X50036Y689233D01*
X49966Y689220D01*
X49896Y689215D01*
X49695Y689171D01*
X49493Y689134D01*
X49426Y689112D01*
X49357Y689096D01*
X49165Y689023D01*
X48970Y688958D01*
X48907Y688926D01*
X48841Y688901D01*
X48662Y688801D01*
X48478Y688708D01*
X48421Y688667D01*
X48359Y688633D01*
X48196Y688508D01*
X48028Y688389D01*
X47961Y688329D01*
X47921Y688298D01*
X47871Y688247D01*
X47752Y688140D01*
X45754Y686141D01*
X45701Y686080D01*
X45642Y686024D01*
X45521Y685871D01*
X45394Y685724D01*
X45350Y685655D01*
X45299Y685592D01*
X45202Y685423D01*
X45097Y685259D01*
X45063Y685185D01*
X45022Y685114D01*
X44950Y684934D01*
X44870Y684756D01*
X44848Y684678D01*
X44818Y684602D01*
X44772Y684413D01*
X44719Y684226D01*
X44708Y684145D01*
X44689Y684066D01*
X44671Y683872D01*
X44646Y683679D01*
X44647Y683597D01*
X44639Y683516D01*
X44650Y683322D01*
X44652Y683127D01*
X44665Y683047D01*
X44669Y682965D01*
X44708Y682775D01*
X44738Y682582D01*
X44763Y682504D01*
X44779Y682425D01*
X44896Y682072D01*
X46820Y677104D01*
X46820Y669096D01*
X43927Y661628D01*
X38532Y655710D01*
X31363Y652140D01*
X23389Y651402D01*
X15909Y653530D01*
X15731Y653567D01*
X15555Y653613D01*
X15461Y653623D01*
X15368Y653642D01*
X15187Y653653D01*
X15007Y653673D01*
X14912Y653669D01*
X14818Y653675D01*
X14637Y653660D01*
X14456Y653653D01*
X14362Y653636D01*
X14268Y653628D01*
X14092Y653587D01*
X13913Y653554D01*
X13823Y653524D01*
X13731Y653502D01*
X13562Y653436D01*
X13390Y653378D01*
X13306Y653335D01*
X13218Y653300D01*
X13060Y653210D01*
X12898Y653128D01*
X12821Y653073D01*
X12739Y653026D01*
X12596Y652914D01*
X12448Y652809D01*
X12355Y652725D01*
X12305Y652686D01*
X12262Y652641D01*
X12173Y652560D01*
X10260Y650648D01*
X10127Y650493D01*
X9986Y650342D01*
X9946Y650283D01*
X9900Y650230D01*
X9789Y650057D01*
X9672Y649888D01*
X9641Y649825D01*
X9603Y649765D01*
X9519Y649578D01*
X9427Y649394D01*
X9405Y649326D01*
X9376Y649262D01*
X9320Y649064D01*
X9256Y648869D01*
X9244Y648800D01*
X9225Y648732D01*
X9198Y648528D01*
X9163Y648325D01*
X9158Y648235D01*
X9152Y648185D01*
X9153Y648114D01*
X9145Y647954D01*
X9145Y478046D01*
X9151Y477966D01*
X9148Y477885D01*
X9171Y477691D01*
X9185Y477496D01*
X9202Y477417D01*
X9211Y477337D01*
X9261Y477149D01*
X9304Y476957D01*
X9332Y476882D01*
X9353Y476804D01*
X9430Y476624D01*
X9499Y476441D01*
X9538Y476371D01*
X9570Y476297D01*
X9672Y476130D01*
X9767Y475959D01*
X9816Y475895D01*
X9858Y475827D01*
X9983Y475676D01*
X10102Y475521D01*
X10160Y475465D01*
X10211Y475403D01*
X10357Y475272D01*
X10497Y475135D01*
X10562Y475088D01*
X10622Y475034D01*
X10785Y474926D01*
X10943Y474811D01*
X11014Y474773D01*
X11081Y474729D01*
X11258Y474645D01*
X11431Y474554D01*
X11507Y474528D01*
X11580Y474493D01*
X11767Y474436D01*
X11952Y474371D01*
X12031Y474356D01*
X12108Y474332D01*
X12302Y474302D01*
X12493Y474265D01*
X12573Y474261D01*
X12653Y474249D01*
X12849Y474247D01*
X13044Y474238D01*
X13124Y474246D01*
X13205Y474245D01*
X13399Y474272D01*
X13593Y474291D01*
X13671Y474310D01*
X13751Y474321D01*
X13939Y474376D01*
X14129Y474423D01*
X14203Y474453D01*
X14281Y474475D01*
X14459Y474556D01*
X14640Y474630D01*
X14709Y474671D01*
X14783Y474704D01*
X14947Y474810D01*
X15116Y474910D01*
X15178Y474960D01*
X15246Y475003D01*
X15393Y475132D01*
X15546Y475255D01*
X15601Y475314D01*
X15661Y475366D01*
X15788Y475515D01*
X15922Y475658D01*
X15968Y475725D01*
X16020Y475786D01*
X16124Y475951D01*
X16236Y476112D01*
X16272Y476184D01*
X16314Y476252D01*
X16473Y476588D01*
X16654Y477025D01*
X22085Y482456D01*
X29180Y485395D01*
X57180Y485395D01*
X64275Y482456D01*
X69706Y477025D01*
X72645Y469930D01*
X72645Y462250D01*
X69706Y455155D01*
X65400Y450849D01*
X65336Y450774D01*
X65264Y450706D01*
X65155Y450566D01*
X65039Y450432D01*
X64986Y450349D01*
X64926Y450271D01*
X64838Y450116D01*
X64743Y449967D01*
X64702Y449877D01*
X64653Y449791D01*
X64589Y449625D01*
X64516Y449464D01*
X64489Y449369D01*
X64453Y449277D01*
X64413Y449104D01*
X64365Y448933D01*
X64352Y448835D01*
X64329Y448739D01*
X64315Y448563D01*
X64292Y448387D01*
X64293Y448288D01*
X64285Y448189D01*
X64296Y448012D01*
X64298Y447835D01*
X64313Y447737D01*
X64320Y447639D01*
X64356Y447465D01*
X64384Y447290D01*
X64414Y447195D01*
X64434Y447099D01*
X64495Y446933D01*
X64548Y446763D01*
X64591Y446674D01*
X64625Y446581D01*
X64738Y446363D01*
X65392Y444781D01*
X65468Y444499D01*
X43180Y444499D01*
X43135Y444496D01*
X43090Y444498D01*
X42861Y444476D01*
X42630Y444459D01*
X42586Y444450D01*
X42541Y444445D01*
X42318Y444390D01*
X42091Y444340D01*
X42049Y444324D01*
X42005Y444314D01*
X41791Y444227D01*
X41576Y444145D01*
X41536Y444123D01*
X41494Y444106D01*
X41295Y443989D01*
X41093Y443877D01*
X41057Y443849D01*
X41019Y443827D01*
X40838Y443682D01*
X40655Y443542D01*
X40624Y443510D01*
X40588Y443481D01*
X40430Y443312D01*
X40270Y443147D01*
X40243Y443111D01*
X40212Y443078D01*
X40080Y442887D01*
X39945Y442701D01*
X39924Y442661D01*
X39898Y442624D01*
X39796Y442416D01*
X39689Y442213D01*
X39674Y442170D01*
X39654Y442130D01*
X39582Y441910D01*
X39505Y441692D01*
X39497Y441648D01*
X39483Y441605D01*
X39443Y441377D01*
X39399Y441151D01*
X39397Y441106D01*
X39389Y441061D01*
X39371Y440690D01*
X39374Y440645D01*
X39372Y440600D01*
X39394Y440370D01*
X39411Y440140D01*
X39421Y440095D01*
X39425Y440051D01*
X39480Y439827D01*
X39530Y439601D01*
X39546Y439559D01*
X39557Y439515D01*
X39644Y439301D01*
X39726Y439085D01*
X39747Y439046D01*
X39765Y439004D01*
X39882Y438805D01*
X39994Y438603D01*
X40021Y438567D01*
X40044Y438528D01*
X40189Y438348D01*
X40328Y438164D01*
X40361Y438133D01*
X40389Y438098D01*
X40559Y437940D01*
X40723Y437779D01*
X40759Y437753D01*
X40793Y437722D01*
X40984Y437590D01*
X41169Y437455D01*
X41209Y437434D01*
X41246Y437408D01*
X41454Y437305D01*
X41658Y437198D01*
X41700Y437183D01*
X41741Y437163D01*
X41961Y437091D01*
X42178Y437015D01*
X42222Y437006D01*
X42265Y436992D01*
X42494Y436953D01*
X42719Y436909D01*
X42764Y436906D01*
X42809Y436899D01*
X43180Y436881D01*
X65468Y436881D01*
X65392Y436599D01*
X64736Y435014D01*
X64701Y434956D01*
X64632Y434793D01*
X64554Y434633D01*
X64525Y434538D01*
X64486Y434447D01*
X64442Y434276D01*
X64388Y434107D01*
X64372Y434009D01*
X64347Y433914D01*
X64328Y433737D01*
X64300Y433562D01*
X64298Y433464D01*
X64287Y433365D01*
X64293Y433188D01*
X64291Y433011D01*
X64303Y432913D01*
X64307Y432814D01*
X64339Y432639D01*
X64361Y432464D01*
X64388Y432368D01*
X64406Y432271D01*
X64462Y432103D01*
X64510Y431932D01*
X64550Y431842D01*
X64582Y431748D01*
X64663Y431590D01*
X64734Y431428D01*
X64787Y431345D01*
X64832Y431257D01*
X64934Y431112D01*
X65029Y430962D01*
X65094Y430887D01*
X65151Y430806D01*
X65370Y430565D01*
X65388Y430543D01*
X65393Y430538D01*
X65400Y430531D01*
X69706Y426225D01*
X71998Y420690D01*
X72055Y420578D01*
X72102Y420462D01*
X72178Y420332D01*
X72246Y420197D01*
X72318Y420094D01*
X72381Y419986D01*
X72476Y419869D01*
X72562Y419745D01*
X72648Y419654D01*
X72726Y419556D01*
X72837Y419453D01*
X72940Y419343D01*
X73038Y419266D01*
X73130Y419180D01*
X73254Y419094D01*
X73372Y419000D01*
X73481Y418937D01*
X73584Y418866D01*
X73719Y418799D01*
X73849Y418724D01*
X73966Y418677D01*
X74078Y418621D01*
X74222Y418574D01*
X74362Y418518D01*
X74483Y418489D01*
X74603Y418450D01*
X74751Y418425D01*
X74898Y418389D01*
X75023Y418378D01*
X75146Y418357D01*
X75382Y418345D01*
X75447Y418339D01*
X75474Y418341D01*
X75518Y418339D01*
X113849Y418339D01*
X113859Y418339D01*
X113869Y418339D01*
X114132Y418359D01*
X114399Y418379D01*
X114409Y418381D01*
X114419Y418382D01*
X114677Y418440D01*
X114938Y418498D01*
X114947Y418501D01*
X114957Y418503D01*
X115307Y418629D01*
X116799Y419247D01*
X139741Y419247D01*
X143102Y417855D01*
X145675Y415282D01*
X147067Y411921D01*
X147067Y388979D01*
X145675Y385618D01*
X143102Y383045D01*
X139741Y381653D01*
X116799Y381653D01*
X113438Y383045D01*
X110865Y385618D01*
X109649Y388554D01*
X109593Y388666D01*
X109546Y388782D01*
X109469Y388912D01*
X109402Y389047D01*
X109330Y389149D01*
X109267Y389258D01*
X109172Y389376D01*
X109086Y389499D01*
X109000Y389590D01*
X108921Y389688D01*
X108811Y389791D01*
X108708Y389901D01*
X108610Y389978D01*
X108518Y390064D01*
X108393Y390150D01*
X108276Y390244D01*
X108167Y390306D01*
X108064Y390378D01*
X107929Y390445D01*
X107798Y390520D01*
X107682Y390567D01*
X107570Y390623D01*
X107426Y390670D01*
X107286Y390726D01*
X107164Y390755D01*
X107045Y390794D01*
X106897Y390819D01*
X106750Y390855D01*
X106625Y390866D01*
X106501Y390887D01*
X106266Y390899D01*
X106201Y390905D01*
X106173Y390903D01*
X106130Y390905D01*
X52136Y390905D01*
X47094Y392993D01*
X45218Y394870D01*
X45063Y395004D01*
X44912Y395144D01*
X44854Y395184D01*
X44801Y395230D01*
X44628Y395341D01*
X44458Y395458D01*
X44395Y395489D01*
X44336Y395527D01*
X44148Y395612D01*
X43964Y395703D01*
X43897Y395725D01*
X43833Y395754D01*
X43635Y395810D01*
X43440Y395874D01*
X43370Y395886D01*
X43302Y395905D01*
X43098Y395932D01*
X42896Y395967D01*
X42806Y395972D01*
X42755Y395978D01*
X42685Y395977D01*
X42525Y395985D01*
X29180Y395985D01*
X22085Y398924D01*
X16654Y404355D01*
X16473Y404792D01*
X16437Y404864D01*
X16409Y404939D01*
X16314Y405110D01*
X16226Y405285D01*
X16180Y405350D01*
X16141Y405421D01*
X16022Y405577D01*
X15910Y405737D01*
X15855Y405795D01*
X15806Y405859D01*
X15666Y405996D01*
X15532Y406139D01*
X15469Y406189D01*
X15411Y406245D01*
X15253Y406360D01*
X15100Y406482D01*
X15030Y406522D01*
X14965Y406569D01*
X14792Y406660D01*
X14622Y406758D01*
X14548Y406788D01*
X14477Y406826D01*
X14292Y406891D01*
X14110Y406964D01*
X14032Y406982D01*
X13956Y407009D01*
X13764Y407047D01*
X13574Y407092D01*
X13494Y407100D01*
X13415Y407115D01*
X13219Y407125D01*
X13024Y407143D01*
X12944Y407138D01*
X12864Y407142D01*
X12669Y407123D01*
X12474Y407113D01*
X12395Y407097D01*
X12315Y407089D01*
X12125Y407042D01*
X11933Y407004D01*
X11857Y406977D01*
X11779Y406957D01*
X11598Y406884D01*
X11413Y406818D01*
X11343Y406780D01*
X11268Y406750D01*
X11099Y406651D01*
X10926Y406559D01*
X10862Y406511D01*
X10792Y406470D01*
X10639Y406348D01*
X10482Y406232D01*
X10425Y406176D01*
X10362Y406125D01*
X10228Y405982D01*
X10089Y405845D01*
X10041Y405781D01*
X9986Y405722D01*
X9874Y405560D01*
X9757Y405404D01*
X9718Y405334D01*
X9672Y405268D01*
X9585Y405093D01*
X9491Y404921D01*
X9463Y404845D01*
X9427Y404774D01*
X9367Y404588D01*
X9298Y404404D01*
X9281Y404325D01*
X9256Y404249D01*
X9223Y404056D01*
X9182Y403865D01*
X9176Y403785D01*
X9163Y403705D01*
X9145Y403334D01*
X9145Y187317D01*
X9157Y187144D01*
X9160Y186972D01*
X9177Y186870D01*
X9185Y186766D01*
X9222Y186598D01*
X9250Y186427D01*
X9281Y186329D01*
X9304Y186228D01*
X9365Y186066D01*
X9417Y185902D01*
X9463Y185809D01*
X9499Y185712D01*
X9583Y185561D01*
X9659Y185406D01*
X9717Y185320D01*
X9767Y185230D01*
X9872Y185092D01*
X9969Y184950D01*
X10039Y184873D01*
X10102Y184791D01*
X10225Y184671D01*
X10343Y184543D01*
X10423Y184478D01*
X10497Y184406D01*
X10636Y184305D01*
X10770Y184195D01*
X10860Y184142D01*
X10943Y184081D01*
X11096Y184001D01*
X11244Y183913D01*
X11340Y183873D01*
X11431Y183825D01*
X11594Y183768D01*
X11754Y183701D01*
X11854Y183676D01*
X11952Y183642D01*
X12121Y183608D01*
X12289Y183566D01*
X12392Y183555D01*
X12493Y183535D01*
X12665Y183527D01*
X12837Y183509D01*
X12941Y183513D01*
X13044Y183508D01*
X13216Y183525D01*
X13389Y183532D01*
X13490Y183551D01*
X13593Y183561D01*
X13761Y183603D01*
X13931Y183635D01*
X14029Y183668D01*
X14129Y183693D01*
X14289Y183758D01*
X14452Y183814D01*
X14544Y183862D01*
X14640Y183901D01*
X14789Y183988D01*
X14942Y184068D01*
X15058Y184146D01*
X15116Y184180D01*
X15161Y184216D01*
X15250Y184277D01*
X15687Y184607D01*
X23389Y186798D01*
X31363Y186060D01*
X38532Y182490D01*
X43927Y176572D01*
X46820Y169104D01*
X46820Y161096D01*
X44083Y154030D01*
X44025Y153842D01*
X43960Y153656D01*
X43945Y153578D01*
X43922Y153503D01*
X43892Y153308D01*
X43854Y153115D01*
X43850Y153036D01*
X43838Y152957D01*
X43836Y152760D01*
X43827Y152564D01*
X43834Y152485D01*
X43834Y152406D01*
X43861Y152210D01*
X43880Y152015D01*
X43899Y151938D01*
X43910Y151859D01*
X43965Y151670D01*
X44012Y151479D01*
X44041Y151406D01*
X44064Y151329D01*
X44145Y151150D01*
X44219Y150968D01*
X44259Y150900D01*
X44292Y150827D01*
X44399Y150662D01*
X44499Y150492D01*
X44548Y150430D01*
X44591Y150364D01*
X44720Y150216D01*
X44844Y150062D01*
X44902Y150008D01*
X44954Y149948D01*
X45103Y149820D01*
X45247Y149686D01*
X45313Y149641D01*
X45373Y149589D01*
X45539Y149484D01*
X45701Y149372D01*
X45772Y149337D01*
X45839Y149295D01*
X46019Y149215D01*
X46196Y149127D01*
X46271Y149103D01*
X46343Y149070D01*
X46533Y149017D01*
X46720Y148956D01*
X46798Y148943D01*
X46875Y148921D01*
X47070Y148896D01*
X47264Y148863D01*
X47366Y148858D01*
X47422Y148851D01*
X47490Y148852D01*
X47635Y148845D01*
X426065Y148845D01*
X426225Y148856D01*
G37*
G36*
X677965Y336060D02*
X677965Y336060D01*
X678205Y336073D01*
X678240Y336080D01*
X678275Y336083D01*
X678510Y336135D01*
X678746Y336182D01*
X678779Y336194D01*
X678814Y336202D01*
X679039Y336287D01*
X679265Y336368D01*
X679297Y336385D01*
X679330Y336397D01*
X679540Y336514D01*
X679752Y336627D01*
X679781Y336648D01*
X679812Y336665D01*
X680004Y336812D01*
X680197Y336954D01*
X680222Y336979D01*
X680250Y337000D01*
X680418Y337172D01*
X680590Y337341D01*
X680611Y337370D01*
X680636Y337395D01*
X680776Y337588D01*
X680922Y337782D01*
X680939Y337813D01*
X680960Y337841D01*
X681071Y338053D01*
X681188Y338265D01*
X681200Y338298D01*
X681217Y338329D01*
X681296Y338556D01*
X681381Y338782D01*
X681388Y338816D01*
X681400Y338850D01*
X681446Y339086D01*
X681497Y339321D01*
X681499Y339357D01*
X681506Y339391D01*
X681518Y339632D01*
X681534Y339872D01*
X681531Y339907D01*
X681533Y339942D01*
X681510Y340182D01*
X681491Y340422D01*
X681483Y340456D01*
X681480Y340491D01*
X681423Y340724D01*
X681369Y340960D01*
X681355Y341001D01*
X681348Y341027D01*
X681324Y341088D01*
X681244Y341310D01*
X678275Y348477D01*
X678275Y356523D01*
X681354Y363956D01*
X687044Y369646D01*
X694477Y372725D01*
X702523Y372725D01*
X709956Y369646D01*
X715646Y363956D01*
X716827Y361105D01*
X716863Y361033D01*
X716891Y360958D01*
X716986Y360787D01*
X717074Y360612D01*
X717120Y360546D01*
X717159Y360476D01*
X717278Y360320D01*
X717390Y360160D01*
X717445Y360101D01*
X717494Y360037D01*
X717634Y359901D01*
X717768Y359758D01*
X717831Y359708D01*
X717889Y359652D01*
X718047Y359537D01*
X718200Y359415D01*
X718270Y359375D01*
X718335Y359328D01*
X718508Y359237D01*
X718678Y359138D01*
X718752Y359108D01*
X718823Y359071D01*
X719008Y359006D01*
X719190Y358933D01*
X719268Y358914D01*
X719344Y358888D01*
X719536Y358850D01*
X719726Y358804D01*
X719806Y358797D01*
X719885Y358782D01*
X720081Y358772D01*
X720276Y358754D01*
X720356Y358759D01*
X720436Y358755D01*
X720631Y358773D01*
X720826Y358784D01*
X720905Y358800D01*
X720985Y358808D01*
X721175Y358854D01*
X721367Y358893D01*
X721443Y358920D01*
X721521Y358939D01*
X721702Y359013D01*
X721887Y359079D01*
X721957Y359117D01*
X722032Y359147D01*
X722201Y359246D01*
X722374Y359338D01*
X722438Y359386D01*
X722508Y359426D01*
X722661Y359549D01*
X722818Y359665D01*
X722875Y359721D01*
X722938Y359771D01*
X723072Y359915D01*
X723211Y360052D01*
X723259Y360116D01*
X723314Y360175D01*
X723426Y360337D01*
X723543Y360492D01*
X723582Y360563D01*
X723628Y360629D01*
X723715Y360805D01*
X723809Y360976D01*
X723837Y361051D01*
X723873Y361123D01*
X723933Y361309D01*
X724002Y361493D01*
X724019Y361571D01*
X724044Y361648D01*
X724077Y361841D01*
X724118Y362032D01*
X724124Y362112D01*
X724137Y362191D01*
X724155Y362563D01*
X724155Y487822D01*
X724138Y488062D01*
X724125Y488303D01*
X724118Y488337D01*
X724115Y488372D01*
X724063Y488607D01*
X724016Y488843D01*
X724004Y488877D01*
X723996Y488911D01*
X723911Y489136D01*
X723830Y489363D01*
X723813Y489394D01*
X723801Y489427D01*
X723684Y489637D01*
X723571Y489850D01*
X723550Y489878D01*
X723533Y489909D01*
X723386Y490101D01*
X723244Y490294D01*
X723219Y490319D01*
X723198Y490347D01*
X723026Y490515D01*
X722857Y490687D01*
X722828Y490708D01*
X722803Y490733D01*
X722609Y490874D01*
X722416Y491020D01*
X722385Y491037D01*
X722357Y491057D01*
X722145Y491169D01*
X721933Y491285D01*
X721900Y491298D01*
X721869Y491314D01*
X721642Y491394D01*
X721416Y491478D01*
X721382Y491485D01*
X721348Y491497D01*
X721112Y491543D01*
X720877Y491594D01*
X720841Y491597D01*
X720807Y491603D01*
X720566Y491615D01*
X720326Y491631D01*
X720291Y491629D01*
X720256Y491630D01*
X720016Y491607D01*
X719776Y491589D01*
X719742Y491581D01*
X719707Y491577D01*
X719474Y491520D01*
X719238Y491467D01*
X719197Y491452D01*
X719171Y491446D01*
X719110Y491421D01*
X718888Y491341D01*
X712500Y488695D01*
X684500Y488695D01*
X677405Y491634D01*
X671974Y497065D01*
X669035Y504160D01*
X669035Y510139D01*
X669024Y510299D01*
X669022Y510459D01*
X669004Y510573D01*
X668995Y510689D01*
X668961Y510846D01*
X668936Y511004D01*
X668901Y511115D01*
X668876Y511227D01*
X668819Y511378D01*
X668772Y511531D01*
X668722Y511635D01*
X668681Y511743D01*
X668603Y511884D01*
X668533Y512029D01*
X668469Y512125D01*
X668413Y512225D01*
X668315Y512353D01*
X668226Y512486D01*
X668148Y512572D01*
X668078Y512664D01*
X667963Y512776D01*
X667855Y512895D01*
X667766Y512969D01*
X667683Y513049D01*
X667553Y513144D01*
X667429Y513246D01*
X667330Y513306D01*
X667237Y513374D01*
X667095Y513448D01*
X666957Y513532D01*
X666851Y513577D01*
X666749Y513630D01*
X666597Y513684D01*
X666449Y513746D01*
X666337Y513775D01*
X666228Y513814D01*
X666071Y513844D01*
X665915Y513885D01*
X665800Y513898D01*
X665687Y513920D01*
X665527Y513928D01*
X665367Y513945D01*
X665251Y513941D01*
X665136Y513947D01*
X664976Y513931D01*
X664816Y513926D01*
X664702Y513905D01*
X664587Y513894D01*
X664431Y513855D01*
X664273Y513827D01*
X664163Y513790D01*
X664051Y513762D01*
X663902Y513702D01*
X663750Y513650D01*
X663647Y513598D01*
X663540Y513554D01*
X663401Y513473D01*
X663258Y513400D01*
X663164Y513334D01*
X663064Y513275D01*
X662939Y513174D01*
X662808Y513082D01*
X662689Y512974D01*
X662634Y512930D01*
X662599Y512893D01*
X662532Y512832D01*
X655192Y505491D01*
X655185Y505484D01*
X655178Y505477D01*
X655005Y505275D01*
X654831Y505074D01*
X654825Y505066D01*
X654819Y505058D01*
X654677Y504834D01*
X654534Y504609D01*
X654530Y504600D01*
X654525Y504592D01*
X654366Y504255D01*
X651260Y496758D01*
X651196Y496563D01*
X651124Y496370D01*
X651109Y496301D01*
X651087Y496234D01*
X651051Y496032D01*
X651007Y495831D01*
X651003Y495760D01*
X650990Y495691D01*
X650984Y495485D01*
X650970Y495280D01*
X650976Y495210D01*
X650974Y495139D01*
X650997Y494935D01*
X651013Y494730D01*
X651029Y494662D01*
X651037Y494591D01*
X651089Y494393D01*
X651135Y494192D01*
X651165Y494107D01*
X651178Y494058D01*
X651206Y493994D01*
X651260Y493842D01*
X654325Y486444D01*
X654325Y478756D01*
X651383Y471653D01*
X647085Y467356D01*
X647021Y467281D01*
X646949Y467213D01*
X646840Y467073D01*
X646724Y466939D01*
X646671Y466855D01*
X646610Y466777D01*
X646523Y466623D01*
X646428Y466474D01*
X646387Y466383D01*
X646338Y466297D01*
X646274Y466132D01*
X646201Y465971D01*
X646174Y465875D01*
X646138Y465783D01*
X646098Y465611D01*
X646050Y465440D01*
X646037Y465342D01*
X646014Y465246D01*
X646000Y465069D01*
X645977Y464893D01*
X645978Y464794D01*
X645970Y464696D01*
X645981Y464519D01*
X645983Y464342D01*
X645999Y464244D01*
X646005Y464145D01*
X646041Y463972D01*
X646069Y463797D01*
X646099Y463702D01*
X646119Y463605D01*
X646180Y463439D01*
X646233Y463270D01*
X646276Y463181D01*
X646310Y463088D01*
X646412Y462889D01*
X647071Y461298D01*
X647149Y461009D01*
X635000Y461009D01*
X622851Y461009D01*
X622929Y461298D01*
X623585Y462883D01*
X623614Y462931D01*
X623683Y463094D01*
X623760Y463254D01*
X623790Y463348D01*
X623829Y463439D01*
X623873Y463611D01*
X623927Y463780D01*
X623943Y463878D01*
X623968Y463973D01*
X623987Y464149D01*
X624015Y464324D01*
X624017Y464423D01*
X624028Y464522D01*
X624022Y464699D01*
X624024Y464876D01*
X624012Y464974D01*
X624008Y465073D01*
X623976Y465247D01*
X623954Y465423D01*
X623927Y465518D01*
X623909Y465616D01*
X623853Y465783D01*
X623805Y465954D01*
X623765Y466045D01*
X623733Y466138D01*
X623653Y466296D01*
X623581Y466458D01*
X623528Y466542D01*
X623483Y466630D01*
X623381Y466775D01*
X623286Y466925D01*
X623222Y467000D01*
X623164Y467081D01*
X622946Y467322D01*
X622927Y467344D01*
X622922Y467348D01*
X622915Y467356D01*
X618617Y471653D01*
X615675Y478756D01*
X615675Y486444D01*
X618740Y493842D01*
X618805Y494038D01*
X618876Y494230D01*
X618891Y494299D01*
X618913Y494366D01*
X618949Y494568D01*
X618993Y494769D01*
X618997Y494840D01*
X619010Y494909D01*
X619016Y495115D01*
X619030Y495320D01*
X619024Y495390D01*
X619026Y495460D01*
X619003Y495665D01*
X618987Y495870D01*
X618971Y495938D01*
X618963Y496009D01*
X618910Y496207D01*
X618865Y496408D01*
X618835Y496493D01*
X618822Y496542D01*
X618794Y496606D01*
X618740Y496758D01*
X615675Y504156D01*
X615675Y511844D01*
X618740Y519242D01*
X618805Y519438D01*
X618876Y519630D01*
X618891Y519699D01*
X618913Y519766D01*
X618949Y519968D01*
X618993Y520169D01*
X618997Y520240D01*
X619010Y520309D01*
X619016Y520515D01*
X619030Y520720D01*
X619024Y520790D01*
X619026Y520860D01*
X619003Y521065D01*
X618987Y521270D01*
X618971Y521338D01*
X618963Y521409D01*
X618910Y521607D01*
X618865Y521808D01*
X618835Y521893D01*
X618822Y521942D01*
X618794Y522006D01*
X618740Y522158D01*
X615675Y529556D01*
X615675Y537244D01*
X618740Y544642D01*
X618805Y544838D01*
X618876Y545030D01*
X618891Y545099D01*
X618913Y545166D01*
X618949Y545368D01*
X618993Y545569D01*
X618997Y545640D01*
X619010Y545709D01*
X619016Y545915D01*
X619030Y546120D01*
X619024Y546190D01*
X619026Y546260D01*
X619003Y546465D01*
X618987Y546670D01*
X618971Y546738D01*
X618963Y546809D01*
X618910Y547007D01*
X618865Y547208D01*
X618835Y547293D01*
X618822Y547342D01*
X618794Y547406D01*
X618740Y547558D01*
X615675Y554956D01*
X615675Y562644D01*
X618740Y570042D01*
X618805Y570238D01*
X618876Y570430D01*
X618891Y570499D01*
X618913Y570566D01*
X618949Y570768D01*
X618993Y570969D01*
X618997Y571040D01*
X619010Y571109D01*
X619016Y571315D01*
X619030Y571520D01*
X619024Y571590D01*
X619026Y571660D01*
X619003Y571865D01*
X618987Y572070D01*
X618971Y572138D01*
X618963Y572209D01*
X618910Y572407D01*
X618865Y572608D01*
X618835Y572693D01*
X618822Y572742D01*
X618794Y572806D01*
X618740Y572958D01*
X615675Y580356D01*
X615675Y588044D01*
X618617Y595147D01*
X622915Y599444D01*
X622979Y599519D01*
X623051Y599587D01*
X623160Y599727D01*
X623276Y599861D01*
X623329Y599945D01*
X623390Y600023D01*
X623477Y600177D01*
X623572Y600326D01*
X623613Y600417D01*
X623662Y600503D01*
X623726Y600668D01*
X623799Y600829D01*
X623826Y600925D01*
X623862Y601017D01*
X623890Y601137D01*
X623892Y601143D01*
X623896Y601165D01*
X623902Y601189D01*
X623950Y601360D01*
X623963Y601458D01*
X623986Y601554D01*
X623995Y601669D01*
X623998Y601685D01*
X624000Y601734D01*
X624023Y601907D01*
X624022Y602006D01*
X624030Y602104D01*
X624024Y602210D01*
X624025Y602236D01*
X624019Y602298D01*
X624017Y602458D01*
X624001Y602556D01*
X623995Y602655D01*
X623975Y602748D01*
X623972Y602785D01*
X623954Y602859D01*
X623931Y603003D01*
X623901Y603098D01*
X623881Y603195D01*
X623852Y603274D01*
X623840Y603320D01*
X623806Y603405D01*
X623767Y603530D01*
X623724Y603619D01*
X623690Y603712D01*
X623648Y603794D01*
X623632Y603832D01*
X623600Y603887D01*
X623588Y603911D01*
X622929Y605502D01*
X622851Y605791D01*
X635000Y605791D01*
X647149Y605791D01*
X647071Y605502D01*
X646415Y603917D01*
X646386Y603869D01*
X646339Y603759D01*
X646292Y603668D01*
X646273Y603615D01*
X646240Y603546D01*
X646210Y603452D01*
X646171Y603361D01*
X646137Y603230D01*
X646108Y603148D01*
X646100Y603104D01*
X646073Y603020D01*
X646057Y602922D01*
X646032Y602827D01*
X646016Y602677D01*
X646002Y602606D01*
X646000Y602573D01*
X645985Y602476D01*
X645983Y602377D01*
X645972Y602278D01*
X645978Y602114D01*
X645975Y602055D01*
X645977Y602033D01*
X645976Y601924D01*
X645988Y601826D01*
X645992Y601727D01*
X646024Y601553D01*
X646024Y601550D01*
X646028Y601506D01*
X646031Y601494D01*
X646046Y601377D01*
X646073Y601282D01*
X646091Y601184D01*
X646147Y601016D01*
X646157Y600984D01*
X646160Y600971D01*
X646161Y600967D01*
X646195Y600846D01*
X646235Y600756D01*
X646267Y600662D01*
X646347Y600503D01*
X646419Y600342D01*
X646472Y600258D01*
X646517Y600170D01*
X646620Y600025D01*
X646714Y599875D01*
X646778Y599800D01*
X646835Y599719D01*
X647054Y599478D01*
X647073Y599456D01*
X647078Y599452D01*
X647085Y599444D01*
X648767Y597762D01*
X648922Y597629D01*
X649073Y597488D01*
X649131Y597448D01*
X649184Y597402D01*
X649357Y597291D01*
X649527Y597174D01*
X649590Y597143D01*
X649649Y597105D01*
X649837Y597021D01*
X650021Y596929D01*
X650088Y596907D01*
X650152Y596878D01*
X650350Y596822D01*
X650545Y596758D01*
X650615Y596746D01*
X650683Y596727D01*
X650886Y596700D01*
X651089Y596665D01*
X651179Y596660D01*
X651230Y596654D01*
X651300Y596655D01*
X651460Y596647D01*
X671908Y596647D01*
X672113Y596662D01*
X672318Y596669D01*
X672388Y596682D01*
X672458Y596687D01*
X672659Y596731D01*
X672861Y596768D01*
X672928Y596790D01*
X672997Y596806D01*
X673189Y596879D01*
X673384Y596944D01*
X673447Y596976D01*
X673513Y597001D01*
X673692Y597101D01*
X673876Y597194D01*
X673933Y597235D01*
X673995Y597269D01*
X674158Y597394D01*
X674326Y597513D01*
X674393Y597573D01*
X674433Y597604D01*
X674482Y597655D01*
X674601Y597762D01*
X677405Y600566D01*
X684500Y603505D01*
X712500Y603505D01*
X718888Y600859D01*
X719117Y600783D01*
X719344Y600703D01*
X719378Y600696D01*
X719412Y600685D01*
X719649Y600643D01*
X719885Y600597D01*
X719920Y600595D01*
X719955Y600589D01*
X720196Y600581D01*
X720436Y600570D01*
X720471Y600573D01*
X720507Y600572D01*
X720746Y600600D01*
X720985Y600623D01*
X721019Y600631D01*
X721055Y600635D01*
X721288Y600697D01*
X721521Y600754D01*
X721553Y600768D01*
X721588Y600777D01*
X721809Y600871D01*
X722032Y600962D01*
X722063Y600980D01*
X722095Y600994D01*
X722299Y601119D01*
X722508Y601241D01*
X722535Y601264D01*
X722565Y601282D01*
X722750Y601436D01*
X722938Y601587D01*
X722962Y601612D01*
X722989Y601635D01*
X723150Y601814D01*
X723314Y601990D01*
X723334Y602019D01*
X723358Y602046D01*
X723491Y602246D01*
X723628Y602444D01*
X723644Y602476D01*
X723663Y602505D01*
X723766Y602723D01*
X723873Y602938D01*
X723884Y602972D01*
X723899Y603004D01*
X723969Y603234D01*
X724044Y603463D01*
X724050Y603498D01*
X724060Y603531D01*
X724096Y603768D01*
X724137Y604007D01*
X724139Y604050D01*
X724143Y604077D01*
X724144Y604142D01*
X724155Y604378D01*
X724155Y649470D01*
X724148Y649566D01*
X724150Y649663D01*
X724128Y649841D01*
X724115Y650020D01*
X724094Y650115D01*
X724083Y650211D01*
X724035Y650384D01*
X723996Y650559D01*
X723962Y650649D01*
X723936Y650743D01*
X723864Y650907D01*
X723801Y651075D01*
X723754Y651159D01*
X723715Y651248D01*
X723620Y651400D01*
X723533Y651557D01*
X723474Y651634D01*
X723423Y651716D01*
X723307Y651853D01*
X723198Y651995D01*
X723129Y652063D01*
X723066Y652137D01*
X722931Y652255D01*
X722803Y652381D01*
X722725Y652438D01*
X722652Y652502D01*
X722502Y652600D01*
X722357Y652705D01*
X722271Y652750D01*
X722190Y652803D01*
X722027Y652878D01*
X721869Y652962D01*
X721777Y652994D01*
X721689Y653034D01*
X721517Y653085D01*
X721348Y653145D01*
X721253Y653163D01*
X721160Y653191D01*
X720982Y653217D01*
X720807Y653251D01*
X720710Y653256D01*
X720614Y653270D01*
X720435Y653269D01*
X720256Y653278D01*
X720159Y653269D01*
X720063Y653268D01*
X719885Y653242D01*
X719707Y653225D01*
X719613Y653202D01*
X719517Y653188D01*
X719345Y653136D01*
X719171Y653093D01*
X719081Y653057D01*
X718989Y653029D01*
X718682Y652895D01*
X718660Y652886D01*
X718655Y652883D01*
X718648Y652880D01*
X717164Y652140D01*
X709189Y651402D01*
X701487Y653593D01*
X695096Y658419D01*
X690880Y665228D01*
X689409Y673100D01*
X690880Y680972D01*
X692409Y683441D01*
X692539Y683689D01*
X692662Y683923D01*
X692663Y683926D01*
X692664Y683929D01*
X692759Y684199D01*
X692845Y684444D01*
X692846Y684447D01*
X692847Y684450D01*
X692901Y684729D01*
X692951Y684985D01*
X692951Y684988D01*
X692952Y684992D01*
X692965Y685259D01*
X692978Y685536D01*
X692978Y685539D01*
X692978Y685543D01*
X692951Y685821D01*
X692925Y686085D01*
X692924Y686088D01*
X692924Y686092D01*
X692857Y686362D01*
X692794Y686621D01*
X692792Y686624D01*
X692791Y686627D01*
X692690Y686876D01*
X692586Y687132D01*
X692584Y687135D01*
X692583Y687138D01*
X692448Y687366D01*
X692306Y687608D01*
X692304Y687610D01*
X692303Y687613D01*
X692138Y687818D01*
X691961Y688038D01*
X691959Y688040D01*
X691957Y688043D01*
X691763Y688222D01*
X691558Y688414D01*
X691555Y688416D01*
X691552Y688418D01*
X691331Y688571D01*
X691104Y688728D01*
X691101Y688729D01*
X691098Y688731D01*
X690860Y688849D01*
X690610Y688973D01*
X690606Y688974D01*
X690603Y688975D01*
X690347Y689058D01*
X690085Y689144D01*
X690082Y689144D01*
X690079Y689145D01*
X689809Y689191D01*
X689541Y689237D01*
X689537Y689237D01*
X689535Y689238D01*
X689523Y689238D01*
X689170Y689255D01*
X518915Y689255D01*
X518755Y689244D01*
X518595Y689242D01*
X518481Y689224D01*
X518365Y689215D01*
X518208Y689181D01*
X518050Y689156D01*
X517940Y689121D01*
X517827Y689096D01*
X517676Y689039D01*
X517523Y688992D01*
X517419Y688942D01*
X517311Y688901D01*
X517170Y688823D01*
X517025Y688753D01*
X516929Y688689D01*
X516829Y688633D01*
X516701Y688535D01*
X516568Y688446D01*
X516482Y688368D01*
X516390Y688298D01*
X516278Y688183D01*
X516159Y688075D01*
X516085Y687986D01*
X516005Y687903D01*
X515911Y687774D01*
X515808Y687649D01*
X515748Y687550D01*
X515680Y687457D01*
X515606Y687315D01*
X515522Y687177D01*
X515477Y687071D01*
X515424Y686969D01*
X515370Y686817D01*
X515308Y686669D01*
X515279Y686557D01*
X515240Y686448D01*
X515210Y686291D01*
X515169Y686135D01*
X515156Y686020D01*
X515134Y685907D01*
X515126Y685747D01*
X515109Y685587D01*
X515113Y685471D01*
X515107Y685356D01*
X515123Y685196D01*
X515128Y685036D01*
X515149Y684922D01*
X515160Y684807D01*
X515199Y684651D01*
X515227Y684493D01*
X515264Y684383D01*
X515292Y684271D01*
X515352Y684122D01*
X515404Y683970D01*
X515456Y683867D01*
X515500Y683760D01*
X515581Y683621D01*
X515654Y683478D01*
X515720Y683384D01*
X515779Y683284D01*
X515879Y683159D01*
X515972Y683028D01*
X516080Y682909D01*
X516124Y682854D01*
X516161Y682819D01*
X516222Y682752D01*
X546348Y652626D01*
X546503Y652492D01*
X546654Y652352D01*
X546712Y652312D01*
X546765Y652266D01*
X546938Y652155D01*
X547108Y652038D01*
X547171Y652007D01*
X547230Y651969D01*
X547418Y651885D01*
X547602Y651793D01*
X547669Y651771D01*
X547733Y651742D01*
X547931Y651686D01*
X548127Y651622D01*
X548196Y651610D01*
X548264Y651591D01*
X548468Y651564D01*
X548670Y651529D01*
X548760Y651524D01*
X548811Y651518D01*
X548881Y651519D01*
X549042Y651511D01*
X623605Y651511D01*
X623615Y651511D01*
X623624Y651511D01*
X623887Y651531D01*
X624155Y651551D01*
X624165Y651553D01*
X624174Y651554D01*
X624431Y651612D01*
X624694Y651670D01*
X624703Y651673D01*
X624712Y651675D01*
X625062Y651801D01*
X631156Y654325D01*
X638844Y654325D01*
X645947Y651383D01*
X651383Y645947D01*
X654325Y638844D01*
X654325Y631156D01*
X651383Y624053D01*
X647085Y619756D01*
X647021Y619681D01*
X646949Y619613D01*
X646840Y619473D01*
X646724Y619339D01*
X646671Y619255D01*
X646610Y619177D01*
X646523Y619023D01*
X646428Y618874D01*
X646387Y618783D01*
X646338Y618697D01*
X646274Y618532D01*
X646201Y618371D01*
X646174Y618275D01*
X646138Y618183D01*
X646098Y618011D01*
X646050Y617840D01*
X646037Y617742D01*
X646014Y617646D01*
X646000Y617469D01*
X645977Y617293D01*
X645978Y617194D01*
X645970Y617096D01*
X645981Y616919D01*
X645983Y616742D01*
X645999Y616644D01*
X646005Y616545D01*
X646041Y616372D01*
X646069Y616197D01*
X646099Y616102D01*
X646119Y616005D01*
X646180Y615839D01*
X646233Y615670D01*
X646276Y615581D01*
X646310Y615488D01*
X646412Y615289D01*
X647071Y613698D01*
X647149Y613409D01*
X635000Y613409D01*
X622851Y613409D01*
X622929Y613698D01*
X623585Y615283D01*
X623614Y615331D01*
X623683Y615494D01*
X623760Y615654D01*
X623790Y615748D01*
X623829Y615839D01*
X623873Y616011D01*
X623927Y616180D01*
X623943Y616278D01*
X623968Y616373D01*
X623987Y616549D01*
X624015Y616724D01*
X624017Y616823D01*
X624028Y616922D01*
X624022Y617099D01*
X624024Y617276D01*
X624012Y617374D01*
X624008Y617473D01*
X623976Y617647D01*
X623954Y617823D01*
X623927Y617918D01*
X623909Y618016D01*
X623853Y618183D01*
X623805Y618354D01*
X623765Y618445D01*
X623733Y618538D01*
X623653Y618696D01*
X623581Y618858D01*
X623528Y618942D01*
X623483Y619030D01*
X623381Y619175D01*
X623286Y619325D01*
X623222Y619400D01*
X623164Y619481D01*
X622946Y619722D01*
X622927Y619744D01*
X622922Y619748D01*
X622915Y619756D01*
X619709Y622962D01*
X619554Y623096D01*
X619403Y623236D01*
X619345Y623276D01*
X619292Y623322D01*
X619119Y623433D01*
X618949Y623550D01*
X618886Y623581D01*
X618827Y623619D01*
X618640Y623703D01*
X618455Y623795D01*
X618388Y623817D01*
X618324Y623846D01*
X618126Y623902D01*
X617931Y623966D01*
X617861Y623978D01*
X617793Y623997D01*
X617590Y624024D01*
X617387Y624059D01*
X617297Y624064D01*
X617246Y624070D01*
X617176Y624069D01*
X617016Y624077D01*
X539054Y624077D01*
X534012Y626165D01*
X527224Y632954D01*
X527102Y633059D01*
X526987Y633171D01*
X526894Y633239D01*
X526806Y633315D01*
X526670Y633402D01*
X526541Y633496D01*
X526439Y633549D01*
X526341Y633612D01*
X526194Y633678D01*
X526053Y633752D01*
X525944Y633791D01*
X525838Y633838D01*
X525684Y633882D01*
X525532Y633936D01*
X525419Y633958D01*
X525308Y633990D01*
X525148Y634011D01*
X524991Y634042D01*
X524876Y634047D01*
X524761Y634063D01*
X524600Y634061D01*
X524440Y634069D01*
X524325Y634058D01*
X524209Y634056D01*
X524050Y634031D01*
X523891Y634016D01*
X523779Y633988D01*
X523664Y633970D01*
X523511Y633922D01*
X523355Y633884D01*
X523248Y633841D01*
X523138Y633806D01*
X522993Y633737D01*
X522844Y633676D01*
X522744Y633618D01*
X522640Y633568D01*
X522507Y633478D01*
X522368Y633397D01*
X522278Y633325D01*
X522182Y633260D01*
X522063Y633153D01*
X521938Y633052D01*
X521859Y632967D01*
X521773Y632890D01*
X521672Y632766D01*
X521562Y632648D01*
X521496Y632553D01*
X521423Y632464D01*
X521340Y632327D01*
X521248Y632194D01*
X521197Y632091D01*
X521137Y631992D01*
X521075Y631844D01*
X521003Y631700D01*
X520967Y631590D01*
X520922Y631484D01*
X520882Y631328D01*
X520832Y631176D01*
X520813Y631062D01*
X520784Y630950D01*
X520766Y630790D01*
X520739Y630632D01*
X520731Y630471D01*
X520723Y630401D01*
X520725Y630351D01*
X520721Y630261D01*
X520721Y625786D01*
X520736Y625581D01*
X520743Y625376D01*
X520756Y625307D01*
X520761Y625236D01*
X520805Y625035D01*
X520842Y624833D01*
X520864Y624767D01*
X520880Y624698D01*
X520953Y624505D01*
X521018Y624311D01*
X521050Y624247D01*
X521075Y624182D01*
X521175Y624002D01*
X521268Y623819D01*
X521309Y623761D01*
X521343Y623699D01*
X521468Y623536D01*
X521587Y623368D01*
X521647Y623301D01*
X521678Y623261D01*
X521729Y623212D01*
X521836Y623093D01*
X524383Y620547D01*
X527325Y613444D01*
X527325Y605756D01*
X524260Y598358D01*
X524195Y598162D01*
X524124Y597970D01*
X524109Y597901D01*
X524087Y597834D01*
X524051Y597632D01*
X524007Y597431D01*
X524003Y597360D01*
X523990Y597291D01*
X523984Y597085D01*
X523970Y596880D01*
X523976Y596810D01*
X523974Y596740D01*
X523997Y596535D01*
X524013Y596330D01*
X524029Y596262D01*
X524037Y596191D01*
X524090Y595993D01*
X524135Y595792D01*
X524165Y595707D01*
X524178Y595658D01*
X524206Y595594D01*
X524260Y595442D01*
X527325Y588044D01*
X527325Y580356D01*
X524260Y572958D01*
X524195Y572762D01*
X524124Y572570D01*
X524109Y572501D01*
X524087Y572434D01*
X524051Y572232D01*
X524007Y572031D01*
X524003Y571960D01*
X523990Y571891D01*
X523984Y571685D01*
X523970Y571480D01*
X523976Y571410D01*
X523974Y571340D01*
X523997Y571135D01*
X524013Y570930D01*
X524029Y570862D01*
X524037Y570791D01*
X524090Y570593D01*
X524135Y570392D01*
X524165Y570307D01*
X524178Y570258D01*
X524206Y570194D01*
X524260Y570042D01*
X527325Y562644D01*
X527325Y554956D01*
X524260Y547558D01*
X524195Y547362D01*
X524124Y547170D01*
X524109Y547101D01*
X524087Y547034D01*
X524051Y546832D01*
X524007Y546631D01*
X524003Y546560D01*
X523990Y546491D01*
X523984Y546285D01*
X523970Y546080D01*
X523976Y546010D01*
X523974Y545940D01*
X523997Y545735D01*
X524013Y545530D01*
X524029Y545462D01*
X524037Y545391D01*
X524090Y545193D01*
X524135Y544992D01*
X524165Y544907D01*
X524178Y544858D01*
X524206Y544794D01*
X524260Y544642D01*
X527325Y537244D01*
X527325Y529556D01*
X524260Y522158D01*
X524195Y521962D01*
X524124Y521770D01*
X524109Y521701D01*
X524087Y521634D01*
X524051Y521432D01*
X524007Y521231D01*
X524003Y521160D01*
X523990Y521091D01*
X523984Y520885D01*
X523970Y520680D01*
X523976Y520610D01*
X523974Y520540D01*
X523997Y520335D01*
X524013Y520130D01*
X524029Y520062D01*
X524037Y519991D01*
X524090Y519793D01*
X524135Y519592D01*
X524165Y519507D01*
X524178Y519458D01*
X524206Y519394D01*
X524260Y519242D01*
X527325Y511844D01*
X527325Y504156D01*
X524260Y496758D01*
X524195Y496562D01*
X524124Y496370D01*
X524109Y496301D01*
X524087Y496234D01*
X524051Y496032D01*
X524007Y495831D01*
X524003Y495760D01*
X523990Y495691D01*
X523984Y495485D01*
X523970Y495280D01*
X523976Y495210D01*
X523974Y495140D01*
X523997Y494935D01*
X524013Y494730D01*
X524029Y494662D01*
X524037Y494591D01*
X524090Y494393D01*
X524135Y494192D01*
X524165Y494107D01*
X524178Y494058D01*
X524206Y493994D01*
X524260Y493842D01*
X527325Y486444D01*
X527325Y478756D01*
X524260Y471358D01*
X524195Y471162D01*
X524124Y470970D01*
X524109Y470901D01*
X524087Y470834D01*
X524051Y470632D01*
X524007Y470431D01*
X524003Y470360D01*
X523990Y470291D01*
X523984Y470085D01*
X523970Y469880D01*
X523976Y469810D01*
X523974Y469740D01*
X523997Y469535D01*
X524013Y469330D01*
X524029Y469262D01*
X524037Y469191D01*
X524090Y468993D01*
X524135Y468792D01*
X524165Y468707D01*
X524178Y468658D01*
X524206Y468594D01*
X524260Y468442D01*
X527325Y461044D01*
X527325Y453356D01*
X524383Y446253D01*
X522324Y444195D01*
X522190Y444040D01*
X522050Y443889D01*
X522010Y443831D01*
X521964Y443778D01*
X521853Y443605D01*
X521736Y443435D01*
X521705Y443372D01*
X521667Y443313D01*
X521582Y443125D01*
X521491Y442941D01*
X521469Y442874D01*
X521440Y442810D01*
X521384Y442612D01*
X521320Y442417D01*
X521308Y442347D01*
X521289Y442279D01*
X521262Y442076D01*
X521227Y441873D01*
X521222Y441783D01*
X521216Y441733D01*
X521217Y441662D01*
X521209Y441502D01*
X521209Y395036D01*
X519121Y389994D01*
X518662Y389536D01*
X518557Y389414D01*
X518445Y389299D01*
X518377Y389206D01*
X518301Y389118D01*
X518215Y388983D01*
X518120Y388853D01*
X518067Y388751D01*
X518004Y388653D01*
X517938Y388507D01*
X517864Y388365D01*
X517825Y388256D01*
X517778Y388150D01*
X517734Y387996D01*
X517680Y387844D01*
X517658Y387731D01*
X517626Y387620D01*
X517605Y387460D01*
X517574Y387303D01*
X517569Y387187D01*
X517553Y387073D01*
X517555Y386912D01*
X517547Y386752D01*
X517558Y386637D01*
X517560Y386521D01*
X517585Y386363D01*
X517600Y386203D01*
X517628Y386091D01*
X517646Y385976D01*
X517694Y385823D01*
X517732Y385667D01*
X517775Y385560D01*
X517810Y385450D01*
X517879Y385305D01*
X517940Y385156D01*
X517998Y385056D01*
X518048Y384952D01*
X518138Y384819D01*
X518219Y384680D01*
X518291Y384590D01*
X518356Y384494D01*
X518463Y384375D01*
X518564Y384250D01*
X518649Y384171D01*
X518726Y384086D01*
X518850Y383984D01*
X518968Y383874D01*
X519063Y383808D01*
X519152Y383735D01*
X519289Y383652D01*
X519422Y383560D01*
X519525Y383509D01*
X519624Y383449D01*
X519772Y383387D01*
X519916Y383315D01*
X520026Y383279D01*
X520132Y383234D01*
X520288Y383194D01*
X520440Y383144D01*
X520554Y383125D01*
X520666Y383096D01*
X520826Y383078D01*
X520984Y383051D01*
X521144Y383043D01*
X521215Y383035D01*
X521265Y383037D01*
X521355Y383033D01*
X524338Y383033D01*
X531060Y380248D01*
X536204Y375104D01*
X537207Y372684D01*
X537263Y372572D01*
X537310Y372456D01*
X537387Y372326D01*
X537454Y372191D01*
X537526Y372089D01*
X537589Y371980D01*
X537684Y371862D01*
X537770Y371739D01*
X537856Y371648D01*
X537935Y371550D01*
X538045Y371447D01*
X538148Y371337D01*
X538246Y371260D01*
X538338Y371174D01*
X538463Y371088D01*
X538580Y370994D01*
X538689Y370932D01*
X538792Y370860D01*
X538927Y370793D01*
X539058Y370718D01*
X539174Y370671D01*
X539286Y370615D01*
X539430Y370568D01*
X539570Y370512D01*
X539692Y370483D01*
X539811Y370444D01*
X539959Y370419D01*
X540106Y370383D01*
X540231Y370372D01*
X540355Y370351D01*
X540590Y370339D01*
X540655Y370333D01*
X540683Y370335D01*
X540726Y370333D01*
X577412Y370333D01*
X577653Y370350D01*
X577893Y370363D01*
X577927Y370370D01*
X577962Y370373D01*
X578199Y370425D01*
X578434Y370472D01*
X578467Y370484D01*
X578501Y370492D01*
X578727Y370577D01*
X578953Y370658D01*
X578984Y370675D01*
X579017Y370687D01*
X579227Y370804D01*
X579440Y370917D01*
X579468Y370938D01*
X579499Y370955D01*
X579691Y371101D01*
X579885Y371244D01*
X579910Y371269D01*
X579938Y371290D01*
X580106Y371462D01*
X580277Y371631D01*
X580298Y371660D01*
X580323Y371685D01*
X580464Y371879D01*
X580610Y372072D01*
X580627Y372103D01*
X580647Y372131D01*
X580759Y372344D01*
X580875Y372555D01*
X580888Y372588D01*
X580904Y372619D01*
X580984Y372846D01*
X581068Y373072D01*
X581076Y373107D01*
X581087Y373140D01*
X581134Y373376D01*
X581184Y373611D01*
X581187Y373647D01*
X581194Y373681D01*
X581205Y373922D01*
X581221Y374162D01*
X581219Y374197D01*
X581220Y374232D01*
X581197Y374472D01*
X581179Y374712D01*
X581171Y374746D01*
X581167Y374781D01*
X581110Y375014D01*
X581057Y375250D01*
X581042Y375291D01*
X581036Y375317D01*
X581011Y375378D01*
X580932Y375600D01*
X580532Y376564D01*
X580364Y377191D01*
X593600Y377191D01*
X606836Y377191D01*
X606668Y376564D01*
X606268Y375600D01*
X606193Y375371D01*
X606113Y375144D01*
X606106Y375110D01*
X606095Y375076D01*
X606053Y374838D01*
X606006Y374603D01*
X606005Y374568D01*
X605999Y374533D01*
X605991Y374292D01*
X605980Y374052D01*
X605983Y374017D01*
X605982Y373982D01*
X606010Y373741D01*
X606033Y373503D01*
X606041Y373469D01*
X606045Y373433D01*
X606107Y373200D01*
X606164Y372967D01*
X606177Y372934D01*
X606187Y372900D01*
X606281Y372679D01*
X606372Y372456D01*
X606390Y372425D01*
X606404Y372393D01*
X606529Y372188D01*
X606651Y371980D01*
X606673Y371953D01*
X606692Y371923D01*
X606845Y371738D01*
X606996Y371550D01*
X607022Y371526D01*
X607045Y371499D01*
X607223Y371339D01*
X607400Y371174D01*
X607429Y371154D01*
X607455Y371130D01*
X607656Y370997D01*
X607854Y370860D01*
X607885Y370844D01*
X607915Y370825D01*
X608132Y370722D01*
X608348Y370615D01*
X608382Y370604D01*
X608414Y370589D01*
X608644Y370519D01*
X608873Y370444D01*
X608907Y370438D01*
X608941Y370428D01*
X609179Y370392D01*
X609416Y370351D01*
X609460Y370349D01*
X609487Y370345D01*
X609552Y370344D01*
X609788Y370333D01*
X626806Y370333D01*
X631848Y368245D01*
X662934Y337158D01*
X663089Y337025D01*
X663240Y336884D01*
X663298Y336844D01*
X663351Y336798D01*
X663524Y336687D01*
X663694Y336570D01*
X663757Y336539D01*
X663816Y336501D01*
X664004Y336417D01*
X664188Y336325D01*
X664255Y336303D01*
X664319Y336274D01*
X664517Y336218D01*
X664713Y336154D01*
X664782Y336142D01*
X664850Y336123D01*
X665054Y336096D01*
X665256Y336061D01*
X665346Y336056D01*
X665397Y336050D01*
X665467Y336051D01*
X665628Y336043D01*
X677725Y336043D01*
X677965Y336060D01*
G37*
G36*
X548444Y178324D02*
X548444Y178324D01*
X548649Y178331D01*
X548718Y178344D01*
X548789Y178349D01*
X548990Y178393D01*
X549192Y178430D01*
X549258Y178452D01*
X549327Y178468D01*
X549520Y178541D01*
X549714Y178606D01*
X549777Y178638D01*
X549843Y178663D01*
X550023Y178763D01*
X550206Y178856D01*
X550264Y178897D01*
X550325Y178931D01*
X550489Y179056D01*
X550657Y179175D01*
X550724Y179235D01*
X550764Y179266D01*
X550813Y179317D01*
X550932Y179424D01*
X572110Y200602D01*
X572244Y200757D01*
X572384Y200908D01*
X572424Y200966D01*
X572470Y201019D01*
X572581Y201193D01*
X572698Y201362D01*
X572729Y201425D01*
X572767Y201484D01*
X572851Y201672D01*
X572943Y201856D01*
X572965Y201923D01*
X572994Y201987D01*
X573050Y202185D01*
X573114Y202380D01*
X573126Y202450D01*
X573145Y202518D01*
X573172Y202721D01*
X573207Y202924D01*
X573212Y203014D01*
X573218Y203065D01*
X573217Y203135D01*
X573225Y203295D01*
X573225Y216249D01*
X574340Y218940D01*
X574405Y219136D01*
X574477Y219328D01*
X574492Y219397D01*
X574514Y219464D01*
X574550Y219667D01*
X574593Y219867D01*
X574598Y219938D01*
X574610Y220007D01*
X574616Y220213D01*
X574630Y220418D01*
X574625Y220488D01*
X574627Y220559D01*
X574603Y220763D01*
X574587Y220968D01*
X574572Y221037D01*
X574564Y221107D01*
X574511Y221306D01*
X574465Y221506D01*
X574435Y221591D01*
X574422Y221640D01*
X574394Y221705D01*
X574340Y221856D01*
X573225Y224547D01*
X573225Y232653D01*
X576327Y240141D01*
X580261Y244075D01*
X580343Y244170D01*
X580432Y244258D01*
X580523Y244378D01*
X580621Y244492D01*
X580689Y244598D01*
X580764Y244698D01*
X580837Y244830D01*
X580918Y244957D01*
X580970Y245072D01*
X581030Y245182D01*
X581083Y245323D01*
X581145Y245460D01*
X581179Y245581D01*
X581223Y245698D01*
X581255Y245845D01*
X581296Y245991D01*
X581313Y246115D01*
X581339Y246238D01*
X581349Y246388D01*
X581369Y246537D01*
X581368Y246663D01*
X581376Y246788D01*
X581365Y246938D01*
X581363Y247089D01*
X581343Y247213D01*
X581333Y247338D01*
X581300Y247485D01*
X581277Y247634D01*
X581239Y247754D01*
X581212Y247876D01*
X581132Y248098D01*
X581113Y248161D01*
X581101Y248185D01*
X581086Y248226D01*
X580532Y249564D01*
X580364Y250191D01*
X593600Y250191D01*
X606836Y250191D01*
X606668Y249564D01*
X606114Y248226D01*
X606074Y248107D01*
X606025Y247991D01*
X605988Y247846D01*
X605940Y247703D01*
X605918Y247579D01*
X605887Y247458D01*
X605870Y247308D01*
X605844Y247159D01*
X605840Y247034D01*
X605826Y246909D01*
X605832Y246758D01*
X605827Y246608D01*
X605841Y246483D01*
X605846Y246358D01*
X605873Y246210D01*
X605890Y246060D01*
X605922Y245938D01*
X605945Y245815D01*
X605993Y245672D01*
X606032Y245527D01*
X606081Y245411D01*
X606121Y245292D01*
X606190Y245158D01*
X606249Y245019D01*
X606314Y244913D01*
X606371Y244801D01*
X606458Y244677D01*
X606537Y244549D01*
X606617Y244453D01*
X606690Y244350D01*
X606848Y244176D01*
X606890Y244125D01*
X606910Y244107D01*
X606939Y244075D01*
X609868Y241146D01*
X610023Y241013D01*
X610174Y240872D01*
X610232Y240832D01*
X610285Y240786D01*
X610458Y240675D01*
X610628Y240558D01*
X610691Y240527D01*
X610750Y240489D01*
X610938Y240405D01*
X611122Y240313D01*
X611189Y240291D01*
X611253Y240262D01*
X611451Y240206D01*
X611646Y240142D01*
X611716Y240130D01*
X611784Y240111D01*
X611987Y240084D01*
X612190Y240049D01*
X612280Y240044D01*
X612330Y240038D01*
X612401Y240039D01*
X612561Y240031D01*
X675122Y240031D01*
X675247Y240040D01*
X675372Y240039D01*
X675522Y240060D01*
X675672Y240071D01*
X675795Y240098D01*
X675919Y240115D01*
X676064Y240157D01*
X676211Y240190D01*
X676328Y240234D01*
X676448Y240269D01*
X676586Y240332D01*
X676727Y240385D01*
X676836Y240446D01*
X676950Y240498D01*
X677077Y240580D01*
X677209Y240653D01*
X677308Y240729D01*
X677414Y240797D01*
X677527Y240897D01*
X677647Y240988D01*
X677735Y241078D01*
X677829Y241160D01*
X677927Y241275D01*
X678033Y241383D01*
X678106Y241484D01*
X678188Y241580D01*
X678268Y241707D01*
X678357Y241829D01*
X678415Y241940D01*
X678482Y242046D01*
X678583Y242259D01*
X678614Y242317D01*
X678623Y242343D01*
X678641Y242382D01*
X679667Y244860D01*
X681459Y246652D01*
X681489Y246686D01*
X681522Y246716D01*
X681669Y246895D01*
X681820Y247069D01*
X681844Y247107D01*
X681873Y247142D01*
X681993Y247340D01*
X682117Y247534D01*
X682135Y247575D01*
X682159Y247614D01*
X682248Y247826D01*
X682343Y248037D01*
X682356Y248081D01*
X682373Y248122D01*
X682431Y248345D01*
X682495Y248568D01*
X682501Y248612D01*
X682512Y248656D01*
X682537Y248886D01*
X682568Y249114D01*
X682567Y249160D01*
X682572Y249205D01*
X682564Y249435D01*
X682561Y249666D01*
X682554Y249711D01*
X682553Y249756D01*
X682511Y249983D01*
X682475Y250211D01*
X682462Y250254D01*
X682454Y250299D01*
X682380Y250517D01*
X682311Y250738D01*
X682292Y250779D01*
X682277Y250821D01*
X682173Y251027D01*
X682073Y251235D01*
X682048Y251273D01*
X682027Y251313D01*
X681894Y251502D01*
X681765Y251693D01*
X681735Y251727D01*
X681709Y251764D01*
X681459Y252039D01*
X681354Y252144D01*
X678275Y259577D01*
X678275Y267623D01*
X681354Y275056D01*
X687044Y280746D01*
X694477Y283825D01*
X702523Y283825D01*
X709956Y280746D01*
X715646Y275056D01*
X716827Y272205D01*
X716863Y272133D01*
X716891Y272058D01*
X716986Y271887D01*
X717074Y271712D01*
X717120Y271646D01*
X717159Y271576D01*
X717278Y271420D01*
X717390Y271260D01*
X717445Y271201D01*
X717494Y271137D01*
X717634Y271001D01*
X717768Y270858D01*
X717831Y270808D01*
X717889Y270752D01*
X718047Y270637D01*
X718200Y270515D01*
X718270Y270475D01*
X718335Y270428D01*
X718508Y270337D01*
X718678Y270238D01*
X718752Y270208D01*
X718823Y270171D01*
X719008Y270106D01*
X719190Y270033D01*
X719268Y270014D01*
X719344Y269988D01*
X719536Y269950D01*
X719726Y269904D01*
X719806Y269897D01*
X719885Y269882D01*
X720081Y269872D01*
X720276Y269854D01*
X720356Y269859D01*
X720436Y269855D01*
X720631Y269873D01*
X720826Y269884D01*
X720905Y269900D01*
X720985Y269908D01*
X721175Y269954D01*
X721367Y269993D01*
X721443Y270020D01*
X721521Y270039D01*
X721702Y270113D01*
X721887Y270179D01*
X721957Y270217D01*
X722032Y270247D01*
X722201Y270346D01*
X722374Y270438D01*
X722438Y270486D01*
X722508Y270526D01*
X722661Y270649D01*
X722818Y270765D01*
X722875Y270821D01*
X722938Y270871D01*
X723072Y271015D01*
X723211Y271152D01*
X723259Y271216D01*
X723314Y271275D01*
X723426Y271436D01*
X723543Y271592D01*
X723582Y271663D01*
X723628Y271729D01*
X723715Y271905D01*
X723809Y272076D01*
X723837Y272151D01*
X723873Y272223D01*
X723933Y272409D01*
X724002Y272593D01*
X724019Y272671D01*
X724044Y272748D01*
X724077Y272941D01*
X724118Y273132D01*
X724124Y273212D01*
X724137Y273291D01*
X724155Y273663D01*
X724155Y298866D01*
X724144Y299027D01*
X724142Y299187D01*
X724124Y299301D01*
X724115Y299417D01*
X724081Y299573D01*
X724056Y299732D01*
X724021Y299842D01*
X723996Y299955D01*
X723939Y300106D01*
X723892Y300259D01*
X723842Y300363D01*
X723801Y300471D01*
X723723Y300612D01*
X723653Y300756D01*
X723589Y300852D01*
X723533Y300953D01*
X723435Y301081D01*
X723346Y301214D01*
X723268Y301300D01*
X723198Y301392D01*
X723083Y301504D01*
X722975Y301623D01*
X722886Y301696D01*
X722803Y301777D01*
X722673Y301871D01*
X722549Y301974D01*
X722450Y302034D01*
X722357Y302102D01*
X722215Y302176D01*
X722077Y302259D01*
X721971Y302304D01*
X721869Y302358D01*
X721717Y302411D01*
X721569Y302474D01*
X721457Y302503D01*
X721348Y302541D01*
X721191Y302572D01*
X721035Y302613D01*
X720920Y302625D01*
X720807Y302648D01*
X720647Y302655D01*
X720487Y302673D01*
X720371Y302669D01*
X720256Y302675D01*
X720096Y302659D01*
X719936Y302653D01*
X719822Y302633D01*
X719707Y302622D01*
X719551Y302583D01*
X719393Y302554D01*
X719283Y302517D01*
X719171Y302490D01*
X719022Y302429D01*
X718870Y302378D01*
X718767Y302326D01*
X718660Y302282D01*
X718521Y302201D01*
X718378Y302128D01*
X718284Y302061D01*
X718184Y302003D01*
X718059Y301902D01*
X717928Y301810D01*
X717809Y301702D01*
X717754Y301658D01*
X717719Y301620D01*
X717652Y301560D01*
X714760Y298667D01*
X711399Y297275D01*
X685601Y297275D01*
X682240Y298667D01*
X679667Y301240D01*
X678275Y304601D01*
X678275Y304800D01*
X678272Y304845D01*
X678274Y304890D01*
X678252Y305120D01*
X678235Y305350D01*
X678226Y305394D01*
X678221Y305439D01*
X678166Y305663D01*
X678116Y305889D01*
X678100Y305931D01*
X678090Y305975D01*
X678003Y306189D01*
X677921Y306405D01*
X677899Y306444D01*
X677882Y306486D01*
X677765Y306685D01*
X677653Y306887D01*
X677625Y306923D01*
X677602Y306962D01*
X677458Y307142D01*
X677318Y307325D01*
X677286Y307357D01*
X677257Y307392D01*
X677087Y307550D01*
X676923Y307711D01*
X676887Y307737D01*
X676854Y307768D01*
X676663Y307900D01*
X676477Y308035D01*
X676437Y308056D01*
X676400Y308082D01*
X676192Y308185D01*
X675989Y308292D01*
X675946Y308307D01*
X675906Y308327D01*
X675686Y308398D01*
X675468Y308475D01*
X675424Y308484D01*
X675381Y308498D01*
X675153Y308537D01*
X674927Y308581D01*
X674882Y308583D01*
X674837Y308591D01*
X674466Y308609D01*
X655634Y308609D01*
X655614Y308619D01*
X655393Y308686D01*
X655174Y308759D01*
X655130Y308767D01*
X655086Y308780D01*
X654858Y308815D01*
X654631Y308855D01*
X654586Y308856D01*
X654541Y308863D01*
X654311Y308865D01*
X654080Y308872D01*
X654035Y308866D01*
X653989Y308867D01*
X653761Y308835D01*
X653532Y308809D01*
X653488Y308797D01*
X653443Y308791D01*
X653221Y308726D01*
X652998Y308667D01*
X652957Y308649D01*
X652913Y308636D01*
X652703Y308541D01*
X652491Y308450D01*
X652453Y308426D01*
X652411Y308407D01*
X652217Y308282D01*
X652021Y308162D01*
X651986Y308133D01*
X651948Y308108D01*
X651774Y307956D01*
X651597Y307809D01*
X651567Y307775D01*
X651532Y307745D01*
X651382Y307570D01*
X651228Y307398D01*
X651203Y307360D01*
X651174Y307326D01*
X651051Y307131D01*
X650930Y306949D01*
X645607Y301626D01*
X638725Y298775D01*
X631275Y298775D01*
X624393Y301626D01*
X619420Y306599D01*
X619386Y306628D01*
X619356Y306662D01*
X619177Y306809D01*
X619003Y306960D01*
X618965Y306984D01*
X618930Y307013D01*
X618732Y307132D01*
X618538Y307256D01*
X618497Y307275D01*
X618458Y307298D01*
X618246Y307388D01*
X618035Y307483D01*
X617991Y307495D01*
X617950Y307513D01*
X617727Y307571D01*
X617504Y307634D01*
X617460Y307640D01*
X617416Y307652D01*
X617187Y307677D01*
X616958Y307708D01*
X616913Y307707D01*
X616868Y307712D01*
X616637Y307704D01*
X616406Y307701D01*
X616361Y307694D01*
X616316Y307692D01*
X616090Y307651D01*
X615861Y307615D01*
X615818Y307601D01*
X615774Y307593D01*
X615555Y307520D01*
X615334Y307451D01*
X615294Y307431D01*
X615251Y307417D01*
X615045Y307312D01*
X614837Y307213D01*
X614799Y307187D01*
X614759Y307167D01*
X614570Y307033D01*
X614379Y306905D01*
X614346Y306875D01*
X614309Y306849D01*
X614033Y306599D01*
X492246Y184812D01*
X492141Y184690D01*
X492029Y184575D01*
X491961Y184482D01*
X491885Y184394D01*
X491799Y184259D01*
X491704Y184129D01*
X491651Y184027D01*
X491588Y183929D01*
X491522Y183783D01*
X491448Y183641D01*
X491409Y183532D01*
X491362Y183426D01*
X491318Y183272D01*
X491264Y183120D01*
X491242Y183007D01*
X491210Y182896D01*
X491189Y182736D01*
X491158Y182579D01*
X491153Y182464D01*
X491137Y182349D01*
X491139Y182188D01*
X491131Y182028D01*
X491142Y181913D01*
X491144Y181797D01*
X491169Y181638D01*
X491184Y181479D01*
X491212Y181367D01*
X491230Y181252D01*
X491278Y181099D01*
X491316Y180943D01*
X491359Y180836D01*
X491394Y180726D01*
X491463Y180581D01*
X491524Y180432D01*
X491582Y180332D01*
X491632Y180228D01*
X491722Y180095D01*
X491803Y179956D01*
X491875Y179866D01*
X491940Y179770D01*
X492048Y179651D01*
X492148Y179526D01*
X492233Y179447D01*
X492310Y179361D01*
X492434Y179259D01*
X492552Y179150D01*
X492647Y179084D01*
X492736Y179011D01*
X492873Y178927D01*
X493006Y178836D01*
X493109Y178785D01*
X493208Y178725D01*
X493356Y178663D01*
X493500Y178591D01*
X493610Y178555D01*
X493716Y178510D01*
X493872Y178470D01*
X494024Y178420D01*
X494138Y178401D01*
X494250Y178372D01*
X494410Y178354D01*
X494568Y178327D01*
X494729Y178319D01*
X494799Y178311D01*
X494849Y178313D01*
X494939Y178309D01*
X548238Y178309D01*
X548444Y178324D01*
G37*
%LPC*%
G36*
X41909Y549909D02*
X41909Y549909D01*
X41909Y560221D01*
X49930Y560221D01*
X50421Y560123D01*
X50884Y559932D01*
X51300Y559653D01*
X51653Y559300D01*
X51932Y558884D01*
X52123Y558421D01*
X52221Y557930D01*
X52221Y549909D01*
X41909Y549909D01*
G37*
%LPD*%
%LPC*%
G36*
X23979Y549909D02*
X23979Y549909D01*
X23979Y557930D01*
X24077Y558421D01*
X24268Y558884D01*
X24547Y559300D01*
X24900Y559653D01*
X25316Y559932D01*
X25779Y560123D01*
X26270Y560221D01*
X34291Y560221D01*
X34291Y549909D01*
X23979Y549909D01*
G37*
%LPD*%
%LPC*%
G36*
X41909Y531979D02*
X41909Y531979D01*
X41909Y542291D01*
X52221Y542291D01*
X52221Y534270D01*
X52123Y533779D01*
X51932Y533316D01*
X51653Y532900D01*
X51300Y532547D01*
X50884Y532268D01*
X50421Y532077D01*
X49930Y531979D01*
X41909Y531979D01*
G37*
%LPD*%
%LPC*%
G36*
X26270Y531979D02*
X26270Y531979D01*
X25779Y532077D01*
X25316Y532268D01*
X24900Y532547D01*
X24547Y532900D01*
X24268Y533316D01*
X24077Y533779D01*
X23979Y534270D01*
X23979Y542291D01*
X34291Y542291D01*
X34291Y531979D01*
X26270Y531979D01*
G37*
%LPD*%
%LPC*%
G36*
X597409Y384809D02*
X597409Y384809D01*
X597409Y394236D01*
X598036Y394068D01*
X599704Y393377D01*
X601267Y392475D01*
X602699Y391376D01*
X603976Y390099D01*
X605075Y388667D01*
X605977Y387104D01*
X606668Y385436D01*
X606836Y384809D01*
X597409Y384809D01*
G37*
%LPD*%
%LPC*%
G36*
X597409Y257809D02*
X597409Y257809D01*
X597409Y267236D01*
X598036Y267068D01*
X599704Y266377D01*
X601267Y265475D01*
X602699Y264376D01*
X603976Y263099D01*
X605075Y261667D01*
X605977Y260104D01*
X606668Y258436D01*
X606836Y257809D01*
X597409Y257809D01*
G37*
%LPD*%
%LPC*%
G36*
X580364Y384809D02*
X580364Y384809D01*
X580532Y385436D01*
X581223Y387104D01*
X582125Y388667D01*
X583224Y390099D01*
X584501Y391376D01*
X585933Y392475D01*
X587496Y393377D01*
X589164Y394068D01*
X589791Y394236D01*
X589791Y384809D01*
X580364Y384809D01*
G37*
%LPD*%
%LPC*%
G36*
X580364Y257809D02*
X580364Y257809D01*
X580532Y258436D01*
X581223Y260104D01*
X582125Y261667D01*
X583224Y263099D01*
X584501Y264376D01*
X585933Y265475D01*
X587496Y266377D01*
X589164Y267068D01*
X589791Y267236D01*
X589791Y257809D01*
X580364Y257809D01*
G37*
%LPD*%
%LPC*%
G36*
X638809Y453391D02*
X638809Y453391D01*
X647149Y453391D01*
X647071Y453102D01*
X646433Y451562D01*
X645600Y450117D01*
X644584Y448795D01*
X643405Y447616D01*
X642083Y446600D01*
X640638Y445767D01*
X639098Y445129D01*
X638809Y445051D01*
X638809Y453391D01*
G37*
%LPD*%
%LPC*%
G36*
X207009Y199491D02*
X207009Y199491D01*
X215349Y199491D01*
X215271Y199202D01*
X214633Y197662D01*
X213800Y196217D01*
X212784Y194895D01*
X211605Y193716D01*
X210283Y192700D01*
X208838Y191867D01*
X207298Y191229D01*
X207009Y191151D01*
X207009Y199491D01*
G37*
%LPD*%
%LPC*%
G36*
X630902Y445129D02*
X630902Y445129D01*
X629362Y445767D01*
X627917Y446600D01*
X626595Y447616D01*
X625416Y448795D01*
X624400Y450117D01*
X623567Y451562D01*
X622929Y453102D01*
X622851Y453391D01*
X631191Y453391D01*
X631191Y445051D01*
X630902Y445129D01*
G37*
%LPD*%
%LPC*%
G36*
X199102Y191229D02*
X199102Y191229D01*
X197562Y191867D01*
X196117Y192700D01*
X194795Y193716D01*
X193616Y194895D01*
X192600Y196217D01*
X191767Y197662D01*
X191129Y199202D01*
X191051Y199491D01*
X199391Y199491D01*
X199391Y191151D01*
X199102Y191229D01*
G37*
%LPD*%
%LPC*%
G36*
X130809Y550309D02*
X130809Y550309D01*
X130809Y558082D01*
X131680Y557799D01*
X133390Y556928D01*
X134943Y555800D01*
X136300Y554443D01*
X137428Y552890D01*
X138299Y551180D01*
X138582Y550309D01*
X130809Y550309D01*
G37*
%LPD*%
%LPC*%
G36*
X132079Y454259D02*
X132079Y454259D01*
X132079Y462032D01*
X132950Y461749D01*
X134660Y460878D01*
X136213Y459750D01*
X137570Y458393D01*
X138698Y456840D01*
X139569Y455130D01*
X139852Y454259D01*
X132079Y454259D01*
G37*
%LPD*%
%LPC*%
G36*
X132079Y446641D02*
X132079Y446641D01*
X139852Y446641D01*
X139569Y445770D01*
X138698Y444060D01*
X137570Y442507D01*
X136213Y441150D01*
X134660Y440022D01*
X132950Y439151D01*
X132079Y438868D01*
X132079Y446641D01*
G37*
%LPD*%
%LPC*%
G36*
X115418Y550309D02*
X115418Y550309D01*
X115701Y551180D01*
X116572Y552890D01*
X117700Y554443D01*
X119057Y555800D01*
X120610Y556928D01*
X122320Y557799D01*
X123191Y558082D01*
X123191Y550309D01*
X115418Y550309D01*
G37*
%LPD*%
%LPC*%
G36*
X130809Y542691D02*
X130809Y542691D01*
X138582Y542691D01*
X138299Y541820D01*
X137428Y540110D01*
X136300Y538557D01*
X134943Y537200D01*
X133390Y536072D01*
X131680Y535201D01*
X130809Y534918D01*
X130809Y542691D01*
G37*
%LPD*%
%LPC*%
G36*
X116688Y454259D02*
X116688Y454259D01*
X116971Y455130D01*
X117842Y456840D01*
X118970Y458393D01*
X120327Y459750D01*
X121880Y460878D01*
X123590Y461749D01*
X124461Y462032D01*
X124461Y454259D01*
X116688Y454259D01*
G37*
%LPD*%
%LPC*%
G36*
X123590Y439151D02*
X123590Y439151D01*
X121880Y440022D01*
X120327Y441150D01*
X118970Y442507D01*
X117842Y444060D01*
X116971Y445770D01*
X116688Y446641D01*
X124461Y446641D01*
X124461Y438868D01*
X123590Y439151D01*
G37*
%LPD*%
%LPC*%
G36*
X122320Y535201D02*
X122320Y535201D01*
X120610Y536072D01*
X119057Y537200D01*
X117700Y538557D01*
X116572Y540110D01*
X115701Y541820D01*
X115418Y542691D01*
X123191Y542691D01*
X123191Y534918D01*
X122320Y535201D01*
G37*
%LPD*%
%LPC*%
G36*
X638809Y397509D02*
X638809Y397509D01*
X638809Y405207D01*
X639653Y404933D01*
X641353Y404067D01*
X642896Y402945D01*
X644245Y401596D01*
X645367Y400053D01*
X646233Y398353D01*
X646507Y397509D01*
X638809Y397509D01*
G37*
%LPD*%
%LPC*%
G36*
X638809Y270509D02*
X638809Y270509D01*
X638809Y278207D01*
X639653Y277933D01*
X641353Y277067D01*
X642896Y275945D01*
X644245Y274596D01*
X645367Y273053D01*
X646233Y271353D01*
X646507Y270509D01*
X638809Y270509D01*
G37*
%LPD*%
%LPC*%
G36*
X623493Y397509D02*
X623493Y397509D01*
X623767Y398353D01*
X624633Y400053D01*
X625755Y401596D01*
X627104Y402945D01*
X628647Y404067D01*
X630347Y404933D01*
X631191Y405207D01*
X631191Y397509D01*
X623493Y397509D01*
G37*
%LPD*%
%LPC*%
G36*
X638809Y389891D02*
X638809Y389891D01*
X646507Y389891D01*
X646233Y389047D01*
X645367Y387347D01*
X644245Y385804D01*
X642896Y384455D01*
X641353Y383333D01*
X639653Y382467D01*
X638809Y382193D01*
X638809Y389891D01*
G37*
%LPD*%
%LPC*%
G36*
X623493Y270509D02*
X623493Y270509D01*
X623767Y271353D01*
X624633Y273053D01*
X625755Y274596D01*
X627104Y275945D01*
X628647Y277067D01*
X630347Y277933D01*
X631191Y278207D01*
X631191Y270509D01*
X623493Y270509D01*
G37*
%LPD*%
%LPC*%
G36*
X638809Y262891D02*
X638809Y262891D01*
X646507Y262891D01*
X646233Y262047D01*
X645367Y260347D01*
X644245Y258804D01*
X642896Y257455D01*
X641353Y256333D01*
X639653Y255467D01*
X638809Y255193D01*
X638809Y262891D01*
G37*
%LPD*%
%LPC*%
G36*
X630347Y382467D02*
X630347Y382467D01*
X628647Y383333D01*
X627104Y384455D01*
X625755Y385804D01*
X624633Y387347D01*
X623767Y389047D01*
X623493Y389891D01*
X631191Y389891D01*
X631191Y382193D01*
X630347Y382467D01*
G37*
%LPD*%
%LPC*%
G36*
X630347Y255467D02*
X630347Y255467D01*
X628647Y256333D01*
X627104Y257455D01*
X625755Y258804D01*
X624633Y260347D01*
X623767Y262047D01*
X623493Y262891D01*
X631191Y262891D01*
X631191Y255193D01*
X630347Y255467D01*
G37*
%LPD*%
D10*
X127000Y546500D03*
D11*
X127000Y596500D03*
D10*
X128270Y450450D03*
D11*
X128270Y400450D03*
D12*
X53340Y466090D02*
X33020Y466090D01*
X33020Y440690D02*
X53340Y440690D01*
X53340Y415290D02*
X33020Y415290D01*
D13*
X698500Y317500D03*
D14*
X698500Y352500D03*
D15*
X38100Y546100D03*
D16*
X38100Y596100D03*
D17*
X635000Y393700D03*
X635000Y317500D03*
X635000Y266700D03*
X635000Y190500D03*
D18*
X593600Y330200D03*
D19*
X593600Y355600D03*
X593600Y381000D03*
D18*
X593600Y203200D03*
D19*
X593600Y228600D03*
X593600Y254000D03*
D20*
X457200Y203300D03*
D21*
X457200Y228700D03*
X457200Y254100D03*
X457200Y279500D03*
X457200Y304900D03*
X457200Y330300D03*
X457200Y355700D03*
X457200Y381100D03*
X457200Y406500D03*
X457200Y431900D03*
X457200Y457300D03*
X457200Y482700D03*
X457200Y508100D03*
X457200Y533500D03*
X457200Y558900D03*
X457200Y584300D03*
X457200Y609700D03*
X457200Y635100D03*
X457200Y660500D03*
X203200Y660500D03*
X203200Y635100D03*
X203200Y609700D03*
X203200Y584300D03*
X203200Y558900D03*
X203200Y533500D03*
X203200Y508100D03*
X203200Y482700D03*
X203200Y457300D03*
X203200Y431900D03*
X203200Y406500D03*
X203200Y381100D03*
X203200Y355700D03*
X203200Y330300D03*
X203200Y304900D03*
X203200Y279500D03*
X203200Y254100D03*
X203200Y228700D03*
X203200Y203300D03*
D20*
X508000Y635000D03*
D21*
X508000Y609600D03*
X508000Y584200D03*
X508000Y558800D03*
X508000Y533400D03*
X508000Y508000D03*
X508000Y482600D03*
X508000Y457200D03*
X635000Y457200D03*
X635000Y482600D03*
X635000Y508000D03*
X635000Y533400D03*
X635000Y558800D03*
X635000Y584200D03*
X635000Y609600D03*
X635000Y635000D03*
D12*
X688340Y508000D02*
X708660Y508000D01*
X708660Y533400D02*
X688340Y533400D01*
X688340Y558800D02*
X708660Y558800D01*
X708660Y584200D02*
X688340Y584200D01*
D22*
X520700Y288544D02*
X520700Y270256D01*
X520700Y346456D02*
X520700Y364744D01*
D13*
X698500Y228600D03*
D14*
X698500Y263600D03*
D23*
X123444Y445770D02*
X48006Y445770D01*
X123444Y445770D02*
X128270Y450450D01*
X48006Y445770D02*
X43180Y440690D01*
X41148Y548640D02*
X123444Y548640D01*
X127000Y546500D01*
X41148Y548640D02*
X38100Y546100D01*
X130302Y541782D02*
X130302Y452628D01*
X128270Y450450D01*
X130302Y541782D02*
X127000Y546500D01*
X150876Y404622D02*
X198882Y356616D01*
X150876Y404622D02*
X150876Y425196D01*
X130302Y445770D01*
X198882Y356616D02*
X203200Y355700D01*
X130302Y445770D02*
X128270Y450450D01*
X459486Y534924D02*
X466344Y534924D01*
X486918Y555498D01*
X486918Y617220D01*
X507492Y637794D01*
X459486Y534924D02*
X457200Y533500D01*
X508000Y635000D02*
X507492Y637794D01*
X534924Y610362D02*
X610362Y610362D01*
X630936Y610362D01*
X534924Y610362D02*
X514350Y630936D01*
X630936Y610362D02*
X635000Y609600D01*
X514350Y630936D02*
X508000Y635000D01*
X596646Y260604D02*
X630936Y260604D01*
X635000Y266700D01*
X596646Y260604D02*
X593600Y254000D01*
X603504Y390906D02*
X630936Y390906D01*
X603504Y390906D02*
X596646Y384048D01*
X630936Y390906D02*
X635000Y393700D01*
X596646Y384048D02*
X593600Y381000D01*
X637794Y397764D02*
X637794Y452628D01*
X635000Y457200D01*
X637794Y397764D02*
X635000Y393700D01*
X637794Y267462D02*
X672084Y267462D01*
X699516Y294894D01*
X713232Y294894D01*
X720090Y301752D01*
X720090Y363474D01*
X692658Y390906D01*
X637794Y390906D01*
X637794Y267462D02*
X635000Y266700D01*
X637794Y390906D02*
X635000Y393700D01*
X610362Y473202D02*
X610362Y610362D01*
X610362Y473202D02*
X630936Y452628D01*
X635000Y457200D01*
X123444Y596646D02*
X41148Y596646D01*
X123444Y596646D02*
X127000Y596500D01*
X41148Y596646D02*
X38100Y596100D01*
X541782Y637794D02*
X630936Y637794D01*
X541782Y637794D02*
X493776Y685800D01*
X198882Y685800D01*
X130302Y617220D01*
X130302Y596646D01*
X630936Y637794D02*
X635000Y635000D01*
X130302Y596646D02*
X127000Y596500D01*
X123444Y404622D02*
X54864Y404622D01*
X48006Y411480D01*
X123444Y404622D02*
X128270Y400450D01*
X48006Y411480D02*
X43180Y415290D01*
X521208Y356616D02*
X589788Y356616D01*
X521208Y356616D02*
X520700Y355600D01*
X589788Y356616D02*
X593600Y355600D01*
X658368Y322326D02*
X692658Y322326D01*
X658368Y322326D02*
X624078Y356616D01*
X596646Y356616D01*
X692658Y322326D02*
X698500Y317500D01*
X596646Y356616D02*
X593600Y355600D01*
X603504Y322326D02*
X610362Y322326D01*
X630936Y322326D01*
X603504Y322326D02*
X596646Y329184D01*
X630936Y322326D02*
X635000Y317500D01*
X596646Y329184D02*
X593600Y330200D01*
X294894Y329184D02*
X205740Y329184D01*
X294894Y329184D02*
X445770Y178308D01*
X466344Y178308D01*
X610362Y322326D01*
X205740Y329184D02*
X203200Y330300D01*
X603504Y192024D02*
X630936Y192024D01*
X603504Y192024D02*
X596646Y198882D01*
X630936Y192024D02*
X635000Y190500D01*
X596646Y198882D02*
X593600Y203200D01*
X349758Y253746D02*
X205740Y253746D01*
X349758Y253746D02*
X438912Y164592D01*
X555498Y164592D01*
X589788Y198882D01*
X205740Y253746D02*
X203200Y254100D01*
X589788Y198882D02*
X593600Y203200D01*
X507492Y589788D02*
X507492Y603504D01*
X507492Y589788D02*
X508000Y584200D01*
X507492Y603504D02*
X508000Y609600D01*
X507492Y582930D02*
X507492Y562356D01*
X507492Y582930D02*
X508000Y584200D01*
X507492Y562356D02*
X508000Y558800D01*
X507492Y528066D02*
X507492Y514350D01*
X508000Y508000D01*
X507492Y528066D02*
X508000Y533400D01*
X480060Y459486D02*
X459486Y459486D01*
X480060Y459486D02*
X507492Y486918D01*
X459486Y459486D02*
X457200Y457300D01*
X508000Y482600D02*
X507492Y486918D01*
X466344Y356616D02*
X459486Y356616D01*
X466344Y356616D02*
X507492Y397764D01*
X507492Y452628D01*
X459486Y356616D02*
X457200Y355700D01*
X507492Y452628D02*
X508000Y457200D01*
X658368Y528066D02*
X692658Y528066D01*
X658368Y528066D02*
X637794Y507492D01*
X692658Y528066D02*
X698500Y533400D01*
X637794Y507492D02*
X635000Y508000D01*
X637794Y562356D02*
X692658Y562356D01*
X698500Y558800D01*
X637794Y562356D02*
X635000Y558800D01*
X637794Y582930D02*
X692658Y582930D01*
X698500Y584200D01*
X637794Y582930D02*
X635000Y584200D01*
X596646Y226314D02*
X692658Y226314D01*
X698500Y228600D01*
X596646Y226314D02*
X593600Y228600D01*
M02*
