M48
;GenerationSoftware,Autodesk,EAGLE,9.4.2*%
;CreationDate,2025-03-20T00:12:06Z*%
FMAT,2
ICI,OFF
METRIC,TZ,000.000
T7C0.813
T6C0.900
T5C1.016
T4C1.020
T3C1.200
T2C1.230
T1C1.300
%
G90
M71
T1
X3810Y59610
X3810Y54610
T2
X59360Y22860
X59360Y33020
X59360Y35560
X59360Y38100
X59360Y25400
X59360Y20320
T3
X69850Y26360
X69850Y22860
X69850Y31750
X69850Y35250
T4
X63500Y45720
X63500Y48260
X63500Y50800
X63500Y53340
X63500Y55880
X50800Y55880
X63500Y60960
X63500Y63500
X63500Y58420
X45720Y20330
X45720Y22870
X45720Y25410
X45720Y27950
X45720Y30490
X45720Y33030
X45720Y35570
X45720Y38110
X45720Y40650
X45720Y43190
X45720Y45730
X45720Y48270
X45720Y50810
X45720Y53350
X45720Y55890
X45720Y58430
X45720Y60970
X45720Y63510
X45720Y66050
X20320Y66050
X20320Y63510
X20320Y60970
X20320Y58430
X20320Y55890
X20320Y53350
X20320Y50810
X20320Y48270
X20320Y45730
X20320Y43190
X20320Y40650
X20320Y38110
X20320Y35570
X20320Y33030
X20320Y30490
X20320Y27950
X20320Y25410
X20320Y22870
X20320Y20330
X50800Y63500
X50800Y60960
X50800Y58420
X50800Y53340
X50800Y50800
X50800Y48260
X50800Y45720
T5
X4318Y46609
X4318Y44069
X4318Y41529
X69850Y50800
X69850Y53340
X69850Y55880
X69850Y58420
T6
X12700Y59650
X12827Y45045
X12827Y40045
X63500Y39370
X63500Y31750
X63500Y26670
X63500Y19050
X12700Y54650
T7
X52070Y27940
X52070Y35560
M30