G04 EAGLE Gerber RS-274X export*
G75*
%MOMM*%
%FSLAX34Y34*%
%LPD*%
%IN*%
%IPPOS*%
%AMOC8*
5,1,8,0,0,1.08239X$1,22.5*%
G01*
%ADD10C,0.254000*%


D10*
X0Y139700D02*
X733300Y139700D01*
X733300Y698400D01*
X0Y698400D01*
X0Y139700D01*
X38100Y672601D02*
X38100Y673599D01*
X38022Y674594D01*
X37866Y675580D01*
X37633Y676550D01*
X37324Y677499D01*
X36942Y678421D01*
X36489Y679310D01*
X35968Y680161D01*
X35381Y680969D01*
X34733Y681727D01*
X34027Y682433D01*
X33269Y683081D01*
X32461Y683668D01*
X31610Y684189D01*
X30721Y684642D01*
X29799Y685024D01*
X28850Y685333D01*
X27880Y685566D01*
X26894Y685722D01*
X25899Y685800D01*
X24901Y685800D01*
X23906Y685722D01*
X22920Y685566D01*
X21950Y685333D01*
X21001Y685024D01*
X20079Y684642D01*
X19190Y684189D01*
X18339Y683668D01*
X17531Y683081D01*
X16773Y682433D01*
X16067Y681727D01*
X15419Y680969D01*
X14832Y680161D01*
X14311Y679310D01*
X13858Y678421D01*
X13476Y677499D01*
X13167Y676550D01*
X12934Y675580D01*
X12778Y674594D01*
X12700Y673599D01*
X12700Y672601D01*
X12778Y671606D01*
X12934Y670620D01*
X13167Y669650D01*
X13476Y668701D01*
X13858Y667779D01*
X14311Y666890D01*
X14832Y666039D01*
X15419Y665231D01*
X16067Y664473D01*
X16773Y663767D01*
X17531Y663119D01*
X18339Y662532D01*
X19190Y662011D01*
X20079Y661558D01*
X21001Y661176D01*
X21950Y660867D01*
X22920Y660634D01*
X23906Y660478D01*
X24901Y660400D01*
X25899Y660400D01*
X26894Y660478D01*
X27880Y660634D01*
X28850Y660867D01*
X29799Y661176D01*
X30721Y661558D01*
X31610Y662011D01*
X32461Y662532D01*
X33269Y663119D01*
X34027Y663767D01*
X34733Y664473D01*
X35381Y665231D01*
X35968Y666039D01*
X36489Y666890D01*
X36942Y667779D01*
X37324Y668701D01*
X37633Y669650D01*
X37866Y670620D01*
X38022Y671606D01*
X38100Y672601D01*
X723900Y672601D02*
X723900Y673599D01*
X723822Y674594D01*
X723666Y675580D01*
X723433Y676550D01*
X723124Y677499D01*
X722742Y678421D01*
X722289Y679310D01*
X721768Y680161D01*
X721181Y680969D01*
X720533Y681727D01*
X719827Y682433D01*
X719069Y683081D01*
X718261Y683668D01*
X717410Y684189D01*
X716521Y684642D01*
X715599Y685024D01*
X714650Y685333D01*
X713680Y685566D01*
X712694Y685722D01*
X711699Y685800D01*
X710701Y685800D01*
X709706Y685722D01*
X708720Y685566D01*
X707750Y685333D01*
X706801Y685024D01*
X705879Y684642D01*
X704990Y684189D01*
X704139Y683668D01*
X703331Y683081D01*
X702573Y682433D01*
X701867Y681727D01*
X701219Y680969D01*
X700632Y680161D01*
X700111Y679310D01*
X699658Y678421D01*
X699276Y677499D01*
X698967Y676550D01*
X698734Y675580D01*
X698578Y674594D01*
X698500Y673599D01*
X698500Y672601D01*
X698578Y671606D01*
X698734Y670620D01*
X698967Y669650D01*
X699276Y668701D01*
X699658Y667779D01*
X700111Y666890D01*
X700632Y666039D01*
X701219Y665231D01*
X701867Y664473D01*
X702573Y663767D01*
X703331Y663119D01*
X704139Y662532D01*
X704990Y662011D01*
X705879Y661558D01*
X706801Y661176D01*
X707750Y660867D01*
X708720Y660634D01*
X709706Y660478D01*
X710701Y660400D01*
X711699Y660400D01*
X712694Y660478D01*
X713680Y660634D01*
X714650Y660867D01*
X715599Y661176D01*
X716521Y661558D01*
X717410Y662011D01*
X718261Y662532D01*
X719069Y663119D01*
X719827Y663767D01*
X720533Y664473D01*
X721181Y665231D01*
X721768Y666039D01*
X722289Y666890D01*
X722742Y667779D01*
X723124Y668701D01*
X723433Y669650D01*
X723666Y670620D01*
X723822Y671606D01*
X723900Y672601D01*
X38100Y164601D02*
X38100Y165599D01*
X38022Y166594D01*
X37866Y167580D01*
X37633Y168550D01*
X37324Y169499D01*
X36942Y170421D01*
X36489Y171310D01*
X35968Y172161D01*
X35381Y172969D01*
X34733Y173727D01*
X34027Y174433D01*
X33269Y175081D01*
X32461Y175668D01*
X31610Y176189D01*
X30721Y176642D01*
X29799Y177024D01*
X28850Y177333D01*
X27880Y177566D01*
X26894Y177722D01*
X25899Y177800D01*
X24901Y177800D01*
X23906Y177722D01*
X22920Y177566D01*
X21950Y177333D01*
X21001Y177024D01*
X20079Y176642D01*
X19190Y176189D01*
X18339Y175668D01*
X17531Y175081D01*
X16773Y174433D01*
X16067Y173727D01*
X15419Y172969D01*
X14832Y172161D01*
X14311Y171310D01*
X13858Y170421D01*
X13476Y169499D01*
X13167Y168550D01*
X12934Y167580D01*
X12778Y166594D01*
X12700Y165599D01*
X12700Y164601D01*
X12778Y163606D01*
X12934Y162620D01*
X13167Y161650D01*
X13476Y160701D01*
X13858Y159779D01*
X14311Y158890D01*
X14832Y158039D01*
X15419Y157231D01*
X16067Y156473D01*
X16773Y155767D01*
X17531Y155119D01*
X18339Y154532D01*
X19190Y154011D01*
X20079Y153558D01*
X21001Y153176D01*
X21950Y152867D01*
X22920Y152634D01*
X23906Y152478D01*
X24901Y152400D01*
X25899Y152400D01*
X26894Y152478D01*
X27880Y152634D01*
X28850Y152867D01*
X29799Y153176D01*
X30721Y153558D01*
X31610Y154011D01*
X32461Y154532D01*
X33269Y155119D01*
X34027Y155767D01*
X34733Y156473D01*
X35381Y157231D01*
X35968Y158039D01*
X36489Y158890D01*
X36942Y159779D01*
X37324Y160701D01*
X37633Y161650D01*
X37866Y162620D01*
X38022Y163606D01*
X38100Y164601D01*
X723900Y164601D02*
X723900Y165599D01*
X723822Y166594D01*
X723666Y167580D01*
X723433Y168550D01*
X723124Y169499D01*
X722742Y170421D01*
X722289Y171310D01*
X721768Y172161D01*
X721181Y172969D01*
X720533Y173727D01*
X719827Y174433D01*
X719069Y175081D01*
X718261Y175668D01*
X717410Y176189D01*
X716521Y176642D01*
X715599Y177024D01*
X714650Y177333D01*
X713680Y177566D01*
X712694Y177722D01*
X711699Y177800D01*
X710701Y177800D01*
X709706Y177722D01*
X708720Y177566D01*
X707750Y177333D01*
X706801Y177024D01*
X705879Y176642D01*
X704990Y176189D01*
X704139Y175668D01*
X703331Y175081D01*
X702573Y174433D01*
X701867Y173727D01*
X701219Y172969D01*
X700632Y172161D01*
X700111Y171310D01*
X699658Y170421D01*
X699276Y169499D01*
X698967Y168550D01*
X698734Y167580D01*
X698578Y166594D01*
X698500Y165599D01*
X698500Y164601D01*
X698578Y163606D01*
X698734Y162620D01*
X698967Y161650D01*
X699276Y160701D01*
X699658Y159779D01*
X700111Y158890D01*
X700632Y158039D01*
X701219Y157231D01*
X701867Y156473D01*
X702573Y155767D01*
X703331Y155119D01*
X704139Y154532D01*
X704990Y154011D01*
X705879Y153558D01*
X706801Y153176D01*
X707750Y152867D01*
X708720Y152634D01*
X709706Y152478D01*
X710701Y152400D01*
X711699Y152400D01*
X712694Y152478D01*
X713680Y152634D01*
X714650Y152867D01*
X715599Y153176D01*
X716521Y153558D01*
X717410Y154011D01*
X718261Y154532D01*
X719069Y155119D01*
X719827Y155767D01*
X720533Y156473D01*
X721181Y157231D01*
X721768Y158039D01*
X722289Y158890D01*
X722742Y159779D01*
X723124Y160701D01*
X723433Y161650D01*
X723666Y162620D01*
X723822Y163606D01*
X723900Y164601D01*
M02*
