G04 EAGLE Gerber RS-274X export*
G75*
%MOMM*%
%FSLAX34Y34*%
%LPD*%
%INBottom Copper*%
%IPPOS*%
%AMOC8*
5,1,8,0,0,1.08239X$1,22.5*%
G01*
%ADD10C,1.524000*%
%ADD11R,0.600000X0.600000*%
%ADD12R,1.100000X1.000000*%
%ADD13R,0.600000X1.200000*%
%ADD14C,3.216000*%
%ADD15C,0.203200*%
%ADD16C,0.806400*%
%ADD17C,0.152400*%
%ADD18C,0.706400*%
%ADD19C,0.101600*%
%ADD20C,0.606400*%


D10*
X248920Y25400D02*
X233680Y25400D01*
X233680Y50800D02*
X248920Y50800D01*
X248920Y76200D02*
X233680Y76200D01*
X233680Y101600D02*
X248920Y101600D01*
X248920Y127000D02*
X233680Y127000D01*
X233680Y152400D02*
X248920Y152400D01*
X284480Y190500D02*
X299720Y190500D01*
X299720Y215900D02*
X284480Y215900D01*
X284480Y241300D02*
X299720Y241300D01*
X299720Y266700D02*
X284480Y266700D01*
X284480Y292100D02*
X299720Y292100D01*
X299720Y317500D02*
X284480Y317500D01*
X33020Y25400D02*
X17780Y25400D01*
X17780Y50800D02*
X33020Y50800D01*
X33020Y76200D02*
X17780Y76200D01*
X17780Y101600D02*
X33020Y101600D01*
X33020Y127000D02*
X17780Y127000D01*
X17780Y152400D02*
X33020Y152400D01*
X233680Y190500D02*
X248920Y190500D01*
X248920Y215900D02*
X233680Y215900D01*
X233680Y241300D02*
X248920Y241300D01*
X248920Y266700D02*
X233680Y266700D01*
X233680Y292100D02*
X248920Y292100D01*
X248920Y317500D02*
X233680Y317500D01*
X33020Y190500D02*
X17780Y190500D01*
X17780Y215900D02*
X33020Y215900D01*
X33020Y241300D02*
X17780Y241300D01*
X17780Y266700D02*
X33020Y266700D01*
X33020Y292100D02*
X17780Y292100D01*
X17780Y317500D02*
X33020Y317500D01*
X233680Y355600D02*
X248920Y355600D01*
X248920Y381000D02*
X233680Y381000D01*
X233680Y406400D02*
X248920Y406400D01*
X248920Y431800D02*
X233680Y431800D01*
X233680Y457200D02*
X248920Y457200D01*
X248920Y482600D02*
X233680Y482600D01*
X33020Y355600D02*
X17780Y355600D01*
X17780Y381000D02*
X33020Y381000D01*
X33020Y406400D02*
X17780Y406400D01*
X17780Y431800D02*
X33020Y431800D01*
X33020Y457200D02*
X17780Y457200D01*
X17780Y482600D02*
X33020Y482600D01*
X284480Y25400D02*
X299720Y25400D01*
X299720Y50800D02*
X284480Y50800D01*
X284480Y76200D02*
X299720Y76200D01*
X299720Y101600D02*
X284480Y101600D01*
X284480Y127000D02*
X299720Y127000D01*
X299720Y152400D02*
X284480Y152400D01*
X411480Y25400D02*
X426720Y25400D01*
X426720Y50800D02*
X411480Y50800D01*
X411480Y76200D02*
X426720Y76200D01*
X426720Y101600D02*
X411480Y101600D01*
X411480Y127000D02*
X426720Y127000D01*
X426720Y152400D02*
X411480Y152400D01*
X411480Y190500D02*
X426720Y190500D01*
X426720Y215900D02*
X411480Y215900D01*
X411480Y241300D02*
X426720Y241300D01*
X426720Y266700D02*
X411480Y266700D01*
X411480Y292100D02*
X426720Y292100D01*
X426720Y317500D02*
X411480Y317500D01*
D11*
X350600Y25400D03*
X360600Y25400D03*
D12*
X364100Y215900D03*
X347100Y215900D03*
X364100Y266700D03*
X347100Y266700D03*
X364100Y317500D03*
X347100Y317500D03*
D11*
X350600Y76200D03*
X360600Y76200D03*
X350600Y127000D03*
X360600Y127000D03*
D13*
X172720Y499050D03*
X160020Y499050D03*
X147320Y499050D03*
X134620Y499050D03*
X121920Y499050D03*
X109220Y499050D03*
X96520Y499050D03*
X83820Y499050D03*
X83820Y555050D03*
X96520Y555050D03*
X109220Y555050D03*
X121920Y555050D03*
X134620Y555050D03*
X147320Y555050D03*
X160020Y555050D03*
X172720Y555050D03*
D14*
X354330Y455930D03*
D15*
X127000Y25400D02*
X25400Y25400D01*
D16*
X127000Y25400D03*
X127000Y50800D03*
D15*
X241300Y50800D01*
X127000Y76200D02*
X25400Y76200D01*
D16*
X127000Y76200D03*
X127000Y101600D03*
D15*
X241300Y101600D01*
X127000Y127000D02*
X25400Y127000D01*
D16*
X127000Y127000D03*
X127000Y152400D03*
D15*
X241300Y152400D01*
D17*
X127000Y190500D02*
X25400Y190500D01*
D18*
X127000Y190500D03*
X127000Y215900D03*
D17*
X241300Y215900D01*
X127000Y241300D02*
X25400Y241300D01*
D18*
X127000Y241300D03*
X127000Y266700D03*
D17*
X241300Y266700D01*
X127000Y292100D02*
X25400Y292100D01*
D18*
X127000Y292100D03*
X127000Y317500D03*
D17*
X241300Y317500D01*
D19*
X127000Y355600D02*
X25400Y355600D01*
D20*
X127000Y355600D03*
X127000Y381000D03*
D19*
X241300Y381000D01*
X127000Y406400D02*
X25400Y406400D01*
D20*
X127000Y406400D03*
X127000Y431800D03*
D19*
X241300Y431800D01*
X127000Y457200D02*
X25400Y457200D01*
D20*
X127000Y457200D03*
X127000Y482600D03*
D19*
X241300Y482600D01*
D16*
X393700Y190500D03*
D15*
X419100Y190500D01*
X431800Y190500D01*
X419100Y215900D02*
X364100Y215900D01*
X364100Y266700D02*
X393700Y266700D01*
D16*
X393700Y266700D03*
D15*
X419100Y317500D02*
X364100Y317500D01*
X347100Y317500D02*
X292100Y317500D01*
X292100Y266700D02*
X347100Y266700D01*
X347100Y215900D02*
X317500Y215900D01*
D16*
X317500Y215900D03*
D15*
X317500Y50800D02*
X292100Y50800D01*
D16*
X317500Y50800D03*
X317500Y152400D03*
D15*
X292100Y152400D01*
X292100Y127000D02*
X350600Y127000D01*
X350600Y76200D02*
X292100Y76200D01*
X330200Y25400D02*
X350600Y25400D01*
D16*
X330200Y25400D03*
D15*
X360600Y25400D02*
X419100Y25400D01*
D16*
X381000Y76200D03*
D15*
X360600Y76200D01*
X360600Y127000D02*
X419100Y127000D01*
M02*
