M48
;GenerationSoftware,Autodesk,EAGLE,9.4.2*%
;CreationDate,2024-08-03T10:17:14Z*%
FMAT,2
ICI,OFF
METRIC,TZ,000.000
T5C0.200
T4C0.300
T3C0.400
T2C1.016
T1C2.200
%
G90
M71
T1
X35433Y45593
T2
X2540Y35560
X2540Y38100
X2540Y40640
X2540Y43180
X2540Y48260
X29210Y2540
X29210Y5080
X29210Y7620
X29210Y10160
X29210Y12700
X24130Y19050
X29210Y15240
X41910Y2540
X41910Y5080
X41910Y10160
X41910Y12700
X41910Y15240
X41910Y19050
X41910Y21590
X41910Y24130
X41910Y26670
X41910Y29210
X41910Y31750
X41910Y7620
X24130Y2540
X24130Y5080
X24130Y7620
X24130Y10160
X24130Y12700
X24130Y15240
X29210Y19050
X29210Y21590
X29210Y24130
X29210Y26670
X29210Y29210
X29210Y31750
X2540Y2540
X2540Y5080
X2540Y7620
X2540Y10160
X2540Y12700
X2540Y15240
X2540Y45720
X24130Y21590
X24130Y24130
X24130Y26670
X24130Y29210
X24130Y31750
X2540Y19050
X2540Y21590
X2540Y24130
X2540Y26670
X2540Y29210
X2540Y31750
X24130Y35560
X24130Y38100
X24130Y40640
X24130Y43180
X24130Y45720
X24130Y48260
T3
X12700Y2540
X12700Y5080
X12700Y7620
X12700Y10160
X12700Y12700
X12700Y15240
X39370Y19050
X39370Y26670
X31750Y5080
X31750Y15240
X33020Y2540
X38100Y7620
X31750Y21590
T4
X12700Y19050
X12700Y21590
X12700Y24130
X12700Y26670
X12700Y31750
X12700Y29210
T5
X12700Y35560
X12700Y38100
X12700Y40640
X12700Y43180
X12700Y45720
X12700Y48260
M30