G04 EAGLE Gerber RS-274X export*
G75*
%MOMM*%
%FSLAX34Y34*%
%LPD*%
%INSolderpaste Top*%
%IPPOS*%
%AMOC8*
5,1,8,0,0,1.08239X$1,22.5*%
G01*
%ADD10R,0.600000X0.600000*%
%ADD11R,1.100000X1.000000*%
%ADD12R,0.200000X1.600000*%
%ADD13R,1.600000X0.200000*%


D10*
X350600Y50800D03*
X360600Y50800D03*
X350600Y101600D03*
X360600Y101600D03*
X350600Y152400D03*
X360600Y152400D03*
D11*
X364100Y190500D03*
X347100Y190500D03*
X364100Y241300D03*
X347100Y241300D03*
X364100Y292100D03*
X347100Y292100D03*
D12*
X292330Y379930D03*
X296330Y379930D03*
X300330Y379930D03*
X304330Y379930D03*
X308330Y379930D03*
X312330Y379930D03*
X316330Y379930D03*
X320330Y379930D03*
X324330Y379930D03*
X328330Y379930D03*
X332330Y379930D03*
X336330Y379930D03*
X340330Y379930D03*
X344330Y379930D03*
X348330Y379930D03*
X352330Y379930D03*
X356330Y379930D03*
X360330Y379930D03*
X364330Y379930D03*
X368330Y379930D03*
X372330Y379930D03*
X376330Y379930D03*
X380330Y379930D03*
X384330Y379930D03*
X388330Y379930D03*
X392330Y379930D03*
X396330Y379930D03*
X400330Y379930D03*
X404330Y379930D03*
X408330Y379930D03*
X412330Y379930D03*
X416330Y379930D03*
D13*
X430330Y393930D03*
X430330Y397930D03*
X430330Y401930D03*
X430330Y405930D03*
X430330Y409930D03*
X430330Y413930D03*
X430330Y417930D03*
X430330Y421930D03*
X430330Y425930D03*
X430330Y429930D03*
X430330Y433930D03*
X430330Y437930D03*
X430330Y441930D03*
X430330Y445930D03*
X430330Y449930D03*
X430330Y453930D03*
X430330Y457930D03*
X430330Y461930D03*
X430330Y465930D03*
X430330Y469930D03*
X430330Y473930D03*
X430330Y477930D03*
X430330Y481930D03*
X430330Y485930D03*
X430330Y489930D03*
X430330Y493930D03*
X430330Y497930D03*
X430330Y501930D03*
X430330Y505930D03*
X430330Y509930D03*
X430330Y513930D03*
X430330Y517930D03*
D12*
X416330Y531930D03*
X412330Y531930D03*
X408330Y531930D03*
X404330Y531930D03*
X400330Y531930D03*
X396330Y531930D03*
X392330Y531930D03*
X388330Y531930D03*
X384330Y531930D03*
X380330Y531930D03*
X376330Y531930D03*
X372330Y531930D03*
X368330Y531930D03*
X364330Y531930D03*
X360330Y531930D03*
X356330Y531930D03*
X352330Y531930D03*
X348330Y531930D03*
X344330Y531930D03*
X340330Y531930D03*
X336330Y531930D03*
X332330Y531930D03*
X328330Y531930D03*
X324330Y531930D03*
X320330Y531930D03*
X316330Y531930D03*
X312330Y531930D03*
X308330Y531930D03*
X304330Y531930D03*
X300330Y531930D03*
X296330Y531930D03*
X292330Y531930D03*
D13*
X278330Y517930D03*
X278330Y513930D03*
X278330Y509930D03*
X278330Y505930D03*
X278330Y501930D03*
X278330Y497930D03*
X278330Y493930D03*
X278330Y489930D03*
X278330Y485930D03*
X278330Y481930D03*
X278330Y477930D03*
X278330Y473930D03*
X278330Y469930D03*
X278330Y465930D03*
X278330Y461930D03*
X278330Y457930D03*
X278330Y453930D03*
X278330Y449930D03*
X278330Y445930D03*
X278330Y441930D03*
X278330Y437930D03*
X278330Y433930D03*
X278330Y429930D03*
X278330Y425930D03*
X278330Y421930D03*
X278330Y417930D03*
X278330Y413930D03*
X278330Y409930D03*
X278330Y405930D03*
X278330Y401930D03*
X278330Y397930D03*
X278330Y393930D03*
M02*
