G04 EAGLE Gerber RS-274X export*
G75*
%MOMM*%
%FSLAX34Y34*%
%LPD*%
%INSoldermask Top*%
%IPPOS*%
%AMOC8*
5,1,8,0,0,1.08239X$1,22.5*%
G01*
%ADD10C,1.727200*%
%ADD11R,0.803200X0.803200*%
%ADD12R,1.303200X1.203200*%
%ADD13R,0.403200X1.803200*%
%ADD14R,1.803200X0.403200*%
%ADD15C,3.419200*%
%ADD16R,0.711200X0.711200*%
%ADD17C,1.009600*%
%ADD18C,0.909600*%
%ADD19C,0.809600*%


D10*
X248920Y25400D02*
X233680Y25400D01*
X233680Y50800D02*
X248920Y50800D01*
X248920Y76200D02*
X233680Y76200D01*
X233680Y101600D02*
X248920Y101600D01*
X248920Y127000D02*
X233680Y127000D01*
X233680Y152400D02*
X248920Y152400D01*
X284480Y190500D02*
X299720Y190500D01*
X299720Y215900D02*
X284480Y215900D01*
X284480Y241300D02*
X299720Y241300D01*
X299720Y266700D02*
X284480Y266700D01*
X284480Y292100D02*
X299720Y292100D01*
X299720Y317500D02*
X284480Y317500D01*
X33020Y25400D02*
X17780Y25400D01*
X17780Y50800D02*
X33020Y50800D01*
X33020Y76200D02*
X17780Y76200D01*
X17780Y101600D02*
X33020Y101600D01*
X33020Y127000D02*
X17780Y127000D01*
X17780Y152400D02*
X33020Y152400D01*
X233680Y190500D02*
X248920Y190500D01*
X248920Y215900D02*
X233680Y215900D01*
X233680Y241300D02*
X248920Y241300D01*
X248920Y266700D02*
X233680Y266700D01*
X233680Y292100D02*
X248920Y292100D01*
X248920Y317500D02*
X233680Y317500D01*
X33020Y190500D02*
X17780Y190500D01*
X17780Y215900D02*
X33020Y215900D01*
X33020Y241300D02*
X17780Y241300D01*
X17780Y266700D02*
X33020Y266700D01*
X33020Y292100D02*
X17780Y292100D01*
X17780Y317500D02*
X33020Y317500D01*
X233680Y355600D02*
X248920Y355600D01*
X248920Y381000D02*
X233680Y381000D01*
X233680Y406400D02*
X248920Y406400D01*
X248920Y431800D02*
X233680Y431800D01*
X233680Y457200D02*
X248920Y457200D01*
X248920Y482600D02*
X233680Y482600D01*
X33020Y355600D02*
X17780Y355600D01*
X17780Y381000D02*
X33020Y381000D01*
X33020Y406400D02*
X17780Y406400D01*
X17780Y431800D02*
X33020Y431800D01*
X33020Y457200D02*
X17780Y457200D01*
X17780Y482600D02*
X33020Y482600D01*
X284480Y25400D02*
X299720Y25400D01*
X299720Y50800D02*
X284480Y50800D01*
X284480Y76200D02*
X299720Y76200D01*
X299720Y101600D02*
X284480Y101600D01*
X284480Y127000D02*
X299720Y127000D01*
X299720Y152400D02*
X284480Y152400D01*
X411480Y25400D02*
X426720Y25400D01*
X426720Y50800D02*
X411480Y50800D01*
X411480Y76200D02*
X426720Y76200D01*
X426720Y101600D02*
X411480Y101600D01*
X411480Y127000D02*
X426720Y127000D01*
X426720Y152400D02*
X411480Y152400D01*
X411480Y190500D02*
X426720Y190500D01*
X426720Y215900D02*
X411480Y215900D01*
X411480Y241300D02*
X426720Y241300D01*
X426720Y266700D02*
X411480Y266700D01*
X411480Y292100D02*
X426720Y292100D01*
X426720Y317500D02*
X411480Y317500D01*
D11*
X350600Y50800D03*
X360600Y50800D03*
X350600Y101600D03*
X360600Y101600D03*
X350600Y152400D03*
X360600Y152400D03*
D12*
X364100Y190500D03*
X347100Y190500D03*
X364100Y241300D03*
X347100Y241300D03*
X364100Y292100D03*
X347100Y292100D03*
D13*
X292330Y379930D03*
X296330Y379930D03*
X300330Y379930D03*
X304330Y379930D03*
X308330Y379930D03*
X312330Y379930D03*
X316330Y379930D03*
X320330Y379930D03*
X324330Y379930D03*
X328330Y379930D03*
X332330Y379930D03*
X336330Y379930D03*
X340330Y379930D03*
X344330Y379930D03*
X348330Y379930D03*
X352330Y379930D03*
X356330Y379930D03*
X360330Y379930D03*
X364330Y379930D03*
X368330Y379930D03*
X372330Y379930D03*
X376330Y379930D03*
X380330Y379930D03*
X384330Y379930D03*
X388330Y379930D03*
X392330Y379930D03*
X396330Y379930D03*
X400330Y379930D03*
X404330Y379930D03*
X408330Y379930D03*
X412330Y379930D03*
X416330Y379930D03*
D14*
X430330Y393930D03*
X430330Y397930D03*
X430330Y401930D03*
X430330Y405930D03*
X430330Y409930D03*
X430330Y413930D03*
X430330Y417930D03*
X430330Y421930D03*
X430330Y425930D03*
X430330Y429930D03*
X430330Y433930D03*
X430330Y437930D03*
X430330Y441930D03*
X430330Y445930D03*
X430330Y449930D03*
X430330Y453930D03*
X430330Y457930D03*
X430330Y461930D03*
X430330Y465930D03*
X430330Y469930D03*
X430330Y473930D03*
X430330Y477930D03*
X430330Y481930D03*
X430330Y485930D03*
X430330Y489930D03*
X430330Y493930D03*
X430330Y497930D03*
X430330Y501930D03*
X430330Y505930D03*
X430330Y509930D03*
X430330Y513930D03*
X430330Y517930D03*
D13*
X416330Y531930D03*
X412330Y531930D03*
X408330Y531930D03*
X404330Y531930D03*
X400330Y531930D03*
X396330Y531930D03*
X392330Y531930D03*
X388330Y531930D03*
X384330Y531930D03*
X380330Y531930D03*
X376330Y531930D03*
X372330Y531930D03*
X368330Y531930D03*
X364330Y531930D03*
X360330Y531930D03*
X356330Y531930D03*
X352330Y531930D03*
X348330Y531930D03*
X344330Y531930D03*
X340330Y531930D03*
X336330Y531930D03*
X332330Y531930D03*
X328330Y531930D03*
X324330Y531930D03*
X320330Y531930D03*
X316330Y531930D03*
X312330Y531930D03*
X308330Y531930D03*
X304330Y531930D03*
X300330Y531930D03*
X296330Y531930D03*
X292330Y531930D03*
D14*
X278330Y517930D03*
X278330Y513930D03*
X278330Y509930D03*
X278330Y505930D03*
X278330Y501930D03*
X278330Y497930D03*
X278330Y493930D03*
X278330Y489930D03*
X278330Y485930D03*
X278330Y481930D03*
X278330Y477930D03*
X278330Y473930D03*
X278330Y469930D03*
X278330Y465930D03*
X278330Y461930D03*
X278330Y457930D03*
X278330Y453930D03*
X278330Y449930D03*
X278330Y445930D03*
X278330Y441930D03*
X278330Y437930D03*
X278330Y433930D03*
X278330Y429930D03*
X278330Y425930D03*
X278330Y421930D03*
X278330Y417930D03*
X278330Y413930D03*
X278330Y409930D03*
X278330Y405930D03*
X278330Y401930D03*
X278330Y397930D03*
X278330Y393930D03*
D15*
X354330Y455930D03*
D16*
X25400Y546100D03*
X431800Y342900D03*
D17*
X127000Y25400D03*
X127000Y50800D03*
X127000Y76200D03*
X127000Y101600D03*
X127000Y127000D03*
X127000Y152400D03*
D18*
X127000Y190500D03*
X127000Y215900D03*
X127000Y241300D03*
X127000Y266700D03*
X127000Y292100D03*
X127000Y317500D03*
D19*
X127000Y355600D03*
X127000Y381000D03*
X127000Y406400D03*
X127000Y431800D03*
X127000Y457200D03*
X127000Y482600D03*
D17*
X393700Y190500D03*
X393700Y266700D03*
X317500Y215900D03*
X317500Y50800D03*
X317500Y152400D03*
X330200Y25400D03*
X381000Y76200D03*
M02*
