G04 EAGLE Gerber RS-274X export*
G75*
%MOMM*%
%FSLAX34Y34*%
%LPD*%
%IN*%
%IPPOS*%
%AMOC8*
5,1,8,0,0,1.08239X$1,22.5*%
G01*
%ADD10C,0.254000*%


D10*
X0Y0D02*
X381000Y0D01*
X381000Y381000D01*
X0Y381000D01*
X0Y0D01*
X270256Y189247D02*
X270256Y191753D01*
X270177Y194258D01*
X270020Y196758D01*
X269784Y199253D01*
X269470Y201739D01*
X269078Y204214D01*
X268609Y206676D01*
X268062Y209121D01*
X267439Y211548D01*
X266740Y213954D01*
X265965Y216338D01*
X265116Y218695D01*
X264194Y221025D01*
X263199Y223325D01*
X262132Y225592D01*
X260994Y227825D01*
X259787Y230021D01*
X258512Y232178D01*
X257169Y234293D01*
X255760Y236366D01*
X254288Y238393D01*
X252752Y240373D01*
X251154Y242304D01*
X249497Y244183D01*
X247782Y246010D01*
X246010Y247782D01*
X244183Y249497D01*
X242304Y251154D01*
X240373Y252752D01*
X238393Y254288D01*
X236366Y255760D01*
X234293Y257169D01*
X232178Y258512D01*
X230021Y259787D01*
X227825Y260994D01*
X225592Y262132D01*
X223325Y263199D01*
X221025Y264194D01*
X218695Y265116D01*
X216338Y265965D01*
X213954Y266740D01*
X211548Y267439D01*
X209121Y268062D01*
X206676Y268609D01*
X204214Y269078D01*
X201739Y269470D01*
X199253Y269784D01*
X196758Y270020D01*
X194258Y270177D01*
X191753Y270256D01*
X189247Y270256D01*
X186743Y270177D01*
X184242Y270020D01*
X181747Y269784D01*
X179261Y269470D01*
X176786Y269078D01*
X174325Y268609D01*
X171879Y268062D01*
X169452Y267439D01*
X167046Y266740D01*
X164662Y265965D01*
X162305Y265116D01*
X159975Y264194D01*
X157675Y263199D01*
X155408Y262132D01*
X153175Y260994D01*
X150979Y259787D01*
X148822Y258512D01*
X146707Y257169D01*
X144634Y255760D01*
X142607Y254288D01*
X140627Y252752D01*
X138696Y251154D01*
X136817Y249497D01*
X134990Y247782D01*
X133218Y246010D01*
X131503Y244183D01*
X129846Y242304D01*
X128248Y240373D01*
X126712Y238393D01*
X125240Y236366D01*
X123831Y234293D01*
X122488Y232178D01*
X121213Y230021D01*
X120006Y227825D01*
X118868Y225592D01*
X117801Y223325D01*
X116806Y221025D01*
X115884Y218695D01*
X115035Y216338D01*
X114260Y213954D01*
X113561Y211548D01*
X112938Y209121D01*
X112391Y206676D01*
X111922Y204214D01*
X111530Y201739D01*
X111216Y199253D01*
X110980Y196758D01*
X110823Y194258D01*
X110744Y191753D01*
X110744Y189247D01*
X110823Y186743D01*
X110980Y184242D01*
X111216Y181747D01*
X111530Y179261D01*
X111922Y176786D01*
X112391Y174325D01*
X112938Y171879D01*
X113561Y169452D01*
X114260Y167046D01*
X115035Y164662D01*
X115884Y162305D01*
X116806Y159975D01*
X117801Y157675D01*
X118868Y155408D01*
X120006Y153175D01*
X121213Y150979D01*
X122488Y148822D01*
X123831Y146707D01*
X125240Y144634D01*
X126712Y142607D01*
X128248Y140627D01*
X129846Y138696D01*
X131503Y136817D01*
X133218Y134990D01*
X134990Y133218D01*
X136817Y131503D01*
X138696Y129846D01*
X140627Y128248D01*
X142607Y126712D01*
X144634Y125240D01*
X146707Y123831D01*
X148822Y122488D01*
X150979Y121213D01*
X153175Y120006D01*
X155408Y118868D01*
X157675Y117801D01*
X159975Y116806D01*
X162305Y115884D01*
X164662Y115035D01*
X167046Y114260D01*
X169452Y113561D01*
X171879Y112938D01*
X174325Y112391D01*
X176786Y111922D01*
X179261Y111530D01*
X181747Y111216D01*
X184242Y110980D01*
X186743Y110823D01*
X189247Y110744D01*
X191753Y110744D01*
X194258Y110823D01*
X196758Y110980D01*
X199253Y111216D01*
X201739Y111530D01*
X204214Y111922D01*
X206676Y112391D01*
X209121Y112938D01*
X211548Y113561D01*
X213954Y114260D01*
X216338Y115035D01*
X218695Y115884D01*
X221025Y116806D01*
X223325Y117801D01*
X225592Y118868D01*
X227825Y120006D01*
X230021Y121213D01*
X232178Y122488D01*
X234293Y123831D01*
X236366Y125240D01*
X238393Y126712D01*
X240373Y128248D01*
X242304Y129846D01*
X244183Y131503D01*
X246010Y133218D01*
X247782Y134990D01*
X249497Y136817D01*
X251154Y138696D01*
X252752Y140627D01*
X254288Y142607D01*
X255760Y144634D01*
X257169Y146707D01*
X258512Y148822D01*
X259787Y150979D01*
X260994Y153175D01*
X262132Y155408D01*
X263199Y157675D01*
X264194Y159975D01*
X265116Y162305D01*
X265965Y164662D01*
X266740Y167046D01*
X267439Y169452D01*
X268062Y171879D01*
X268609Y174325D01*
X269078Y176786D01*
X269470Y179261D01*
X269784Y181747D01*
X270020Y184242D01*
X270177Y186743D01*
X270256Y189247D01*
M02*
